<?xml version="1.0" standalone="no"?>
<!DOCTYPE svg PUBLIC "-//W3C//DTD SVG 1.1//EN" "http://www.w3.org/Graphics/SVG/1.1/DTD/svg11.dtd" >
<svg>
<metadata>
Created by FontForge 20110222 at Mon Mar  7 04:35:27 2011
 By www-data
2004 Vic Fieger, Xaviera Comics
</metadata>
<defs>
<font id="Helsinki" horiz-adv-x="115" >
  <font-face 
    font-family="Helsinki"
    font-weight="400"
    font-stretch="normal"
    units-per-em="2048"
    panose-1="2 0 0 0 0 0 0 0 0 0"
    ascent="1638"
    descent="-410"
    x-height="1439"
    cap-height="1453"
    bbox="-406 -307.6 1496 1691.92"
    underline-thickness="48"
    underline-position="-140"
    unicode-range="U+0020-2122"
  />
    <missing-glyph />
    <glyph glyph-name="space" unicode=" " horiz-adv-x="424" 
 />
    <glyph glyph-name="exclam" unicode="!" horiz-adv-x="626" 
d="M155 1474l-52 -1047q85 -56 214 -13l198 1012q-153 108 -360 48zM167 326q41 0 80 -21t61 -60t22 -82q0 -42 -21.5 -81t-60.5 -60t-81 -21q-43 0 -81.5 21t-60 60t-21.5 81q0 43 22 82t60.5 60t80.5 21z" />
    <glyph glyph-name="quotedbl" unicode="&#x22;" horiz-adv-x="720" 
d="M321 1518l-44 -564q-128 -76 -260 -3l46 574q139 32 258 -7zM622 1511l-43 -564q-128 -76 -260 -3l46 574q139 32 257 -7z" />
    <glyph glyph-name="numbersign" unicode="#" 
 />
    <glyph glyph-name="dollar" unicode="$" horiz-adv-x="1227" 
d="M38 121q-65 227 76 352q257 -151 373 -186q216 2 237 108q5 85 -132 164l-257 125q-241 128 -250 361q9 134 92.5 241t188 140.5t129.5 34.5l19 200q139 69 263 -16l-19 -209q120 -1 319 -135q8 -189 -118 -329q-243 182 -389 170q-137 16 -145 -98q-5 -65 193 -168
q227 -92 336.5 -211t97.5 -289q-16 -230 -214 -353q-126 -88 -192 -99l-5 -202q-201 -74 -296 37l16 206q-114 14 -323 156z" />
    <glyph glyph-name="percent" unicode="%" 
 />
    <glyph glyph-name="ampersand" unicode="&#x26;" 
 />
    <glyph glyph-name="quotesingle" unicode="'" horiz-adv-x="419" 
d="M321 1518l-44 -564q-128 -76 -260 -3l46 574q139 32 258 -7z" />
    <glyph glyph-name="parenleft" unicode="(" 
 />
    <glyph glyph-name="parenright" unicode=")" 
 />
    <glyph glyph-name="asterisk" unicode="*" horiz-adv-x="912" 
d="M920 819l-156 219l-211 -199q-136 34 -164 200l227 184l-164 211q55 124 227 140l144 -196l215 171q148 -40 140 -181l-218 -194l168 -188q-73 -134 -208 -167z" />
    <glyph glyph-name="plus" unicode="+" 
 />
    <glyph glyph-name="comma" unicode="," horiz-adv-x="497" 
d="M-185 316q46 0 89.5 -26t68 -74t24.5 -101q18 -83 -139 -402l-136 36l14 166q-55 52 -79 100t-24 100q0 53 25 101t68 74t89 26z" />
    <glyph glyph-name="hyphen" unicode="-" horiz-adv-x="871" 
d="M123 631q-23 162 35 331h685q13 -169 -35 -331h-685z" />
    <glyph glyph-name="hyphen" unicode="&#x2010;" horiz-adv-x="871" 
d="M123 631q-23 162 35 331h685q13 -169 -35 -331h-685z" />
    <glyph glyph-name="period" unicode="." horiz-adv-x="441" 
d="M-243 316q41 0 80 -21t61 -60t22 -82q0 -42 -21.5 -81t-60.5 -60t-81 -21q-43 0 -81.5 21t-60 60t-21.5 81q0 43 22 82t60.5 60t80.5 21z" />
    <glyph glyph-name="slash" unicode="/" 
 />
    <glyph glyph-name="zero" unicode="0" horiz-adv-x="1296" 
d="M1050 1251q142 -215 115.5 -544.5t-192.5 -543.5t-409 -214t-398 208.5t-129.5 535.5t207.5 550t423 223t383 -215zM467.5 983.5q-73.5 -107.5 -88.5 -286t51.5 -295.5t160.5 -110.5t158 118t74.5 279t-45 283.5t-146.5 117.5t-164.5 -106z" />
    <glyph glyph-name="one" unicode="1" horiz-adv-x="631" 
d="M933 -18l82 1423q-10 55 -52 63l-358 -18q-106 -155 -26 -352l87 2l-70 -1138q220 -39 337 20z" />
    <glyph glyph-name="two" unicode="2" horiz-adv-x="1305" 
d="M660 275l516 27q100 -134 2 -333l-1022 -20q-70 190 50 354q594 441 635 584.5t-37.5 208.5t-210.5 9.5t-271 -171.5q-166 108 -108 327q247 196 458 196q247 0 388 -120q104 -86 125 -304t-137 -417.5t-388 -340.5z" />
    <glyph glyph-name="three" unicode="3" horiz-adv-x="1304" 
d="M143 1384l940 60q54 -126 -19 -287l-310 -325q190 10 289 -101t85 -288q-13 -164 -104 -279t-251 -179q-116 -47 -240 -56q-199 -15 -359 57q-69 30 -149 108q-72 181 56 347q77 -87 173.5 -136.5t205.5 -62.5t200 37t125 174t-247 177l-110 -28q-113 127 -21 288
l255 231l-530 -65q-118 164 11 328z" />
    <glyph glyph-name="four" unicode="4" horiz-adv-x="1277" 
d="M729 1405l-631 -887q-66 -159 28 -283l588 10l-9 -283q149 -55 315 3l7 283l105 3q62 152 8 304l-89 1l29 865q-238 70 -351 -16zM735 534l-306 -5l340 500z" />
    <glyph glyph-name="five" unicode="5" horiz-adv-x="1256" 
d="M38 121q-65 227 76 352q257 -151 373 -186q216 2 237 108q51 242 -123 276q-278 -4 -379.5 -20t-160.5 93l57 667q7 34 80 45l831 15q85 -173 -15 -322l-591 -11l-27 -176q231 26 362.5 3t241.5 -142t59 -454q-23 -223 -221 -346q-126 -88 -364 -73q-227 29 -436 171z
" />
    <glyph glyph-name="six" unicode="6" horiz-adv-x="1356" 
d="M267 1042.5q-161 -254.5 -218 -487.5q-63 -412 231 -584q644 -179 803 434q144 592 -543 498q192 291 411 382q-14 163 -153 232q-370 -220 -531 -474.5zM774.5 587q35.5 -45 2 -182.5t-147.5 -174.5t-182 9.5t-79 142.5t26 165t191 77t189.5 -37z" />
    <glyph glyph-name="seven" unicode="7" horiz-adv-x="1189" 
d="M526 -24l488 1278q43 201 -89 209l-891 -34q-51 -153 -24 -330l604 15l-431 -1157q208 -39 343 19z" />
    <glyph glyph-name="eight" unicode="8" horiz-adv-x="1260" 
d="M1152 586q37 -79 33 -180q-11 -236 -198 -361q-152 -101 -384 -114q-171 -9 -314 47q-124 47 -182 169q-41 86 -36 193q11 222 179 320l70 41q-192 157 -183 354q12 254 220 363q125 65 307 75q203 11 338 -46q209 -88 197 -334q-10 -209 -159 -299l-70 -41
q115 -46 182 -187zM677 1166q-207 -9 -215 -161q-7 -150 192 -140q201 11 208 158q7 151 -185 143zM637 584q-226 -11 -234 -186q-8 -168 221 -156q221 12 229 177q8 176 -216 165z" />
    <glyph glyph-name="nine" unicode="9" horiz-adv-x="1262" 
d="M878 388.5q170 255.5 234 490.5q75 419 -217 603q-645 200 -823 -420q-32 -572 534 -524q-202 -291 -415 -388q-1 -155 194 -262q323 245 493 500.5zM413 882.5q-40 78.5 -17 194t139.5 150.5t183.5 -15t75.5 -148t-31 -167t-175 -81t-175.5 66.5z" />
    <glyph glyph-name="colon" unicode=":" horiz-adv-x="443" 
d="M165 1111q41 0 80 -21t61 -60t22 -82q0 -42 -21.5 -81t-60.5 -60t-81 -21q-43 0 -81.5 21t-60 60t-21.5 81q0 43 22 82t60.5 60t80.5 21zM167 320q41 0 80 -21t61 -60t22 -82q0 -42 -21.5 -81t-60.5 -60t-81 -21q-43 0 -81.5 21t-60 60t-21.5 81q0 43 22 82t60.5 60
t80.5 21z" />
    <glyph glyph-name="semicolon" unicode=";" horiz-adv-x="505" 
d="M172 316q47 0 91.5 -26t69.5 -74t25 -101q19 -83 -142 -402l-139 36l14 166q-55 52 -79.5 100t-24.5 100q0 53 25 101t69 74t91 26zM165 1111q41 0 80 -21t61 -60t22 -82q0 -42 -21.5 -81t-60.5 -60t-81 -21q-43 0 -81.5 21t-60 60t-21.5 81q0 43 22 82t60.5 60t80.5 21z
" />
    <glyph glyph-name="less" unicode="&#x3c;" 
 />
    <glyph glyph-name="equal" unicode="=" 
 />
    <glyph glyph-name="greater" unicode="&#x3e;" 
 />
    <glyph glyph-name="question" unicode="?" horiz-adv-x="1029" 
d="M101 1177q28 -189 236 -150q65 227 231 224q122 -20 126 -125.5t-122 -169.5q-158 -54 -205 -171.5t-23 -338.5q109 -58 246 -11q8 159 54 220q64 51 189 128q170 104 176 395.5t-402 362.5q-371 -20 -506 -364zM452 330q41 0 80 -21t61 -60t22 -82q0 -42 -21.5 -81
t-60.5 -60t-81 -21q-43 0 -81.5 21t-60 60t-21.5 81q0 43 22 82t60.5 60t80.5 21z" />
    <glyph glyph-name="at" unicode="@" 
 />
    <glyph glyph-name="A" unicode="A" horiz-adv-x="1338" 
d="M534 1461l-524 -1461q109 -93 332 -63l92 270l371 46l72 -268q219 -42 356 48l-400 1440q-141 87 -299 -12zM749 533l-244 -29l157 492z" />
    <glyph glyph-name="B" unicode="B" horiz-adv-x="1343" 
d="M72 1374l-127 -1398l10 -36q11 -36 59 -30l48 7q397 -16 793 43q115 3 200 115.5t78.5 315.5t-223.5 312q180 83 221.5 256t-8.5 318t-248 178.5t-696 -13.5zM815 1115.5q45 -88.5 1 -206.5t-462 -106l36 360q380 41 425 -47.5zM788 498.5q54 -87.5 13.5 -191
t-517.5 -98.5l37 345q413 32 467 -55.5z" />
    <glyph glyph-name="C" unicode="C" horiz-adv-x="1275" 
d="M1151 1319q35 -180 -94 -288q-87 56 -273 89q-163 16 -266 -94.5t-126 -286.5q-34 -111 42 -285q76 -158 231.5 -167t372.5 61q78 -154 15 -302q-257 -118 -417 -112q-295 37 -430 214q-180 237 -122 669q46 342 217 517q223 181 541 148q221 -14 309 -163z" />
    <glyph glyph-name="D" unicode="D" horiz-adv-x="1234" 
d="M44 1324l16 120l100 23l384 -11q572 -103 568 -701q-13 -305 -146 -516q-164 -281 -834 -281l-114 32l-21 138zM354 1155l-40 -881q259 -17 365 89t120.5 331.5t-59 341t-386.5 119.5z" />
    <glyph glyph-name="E" unicode="E" horiz-adv-x="1242" 
d="M169 1437q-36 -17 -47 -56l-90 -1371q10 -55 53 -63l935 37q106 155 23 332l-671 -20l27 310l547 23q87 130 12 276l-537 -11l18 256l654 21q66 137 17 294z" />
    <glyph glyph-name="F" unicode="F" horiz-adv-x="1240" 
d="M169 1437q-36 -17 -47 -56l-88 -1414q136 -86 327 -4l36 565l547 23q87 129 11 275l-536 -10l20 334l654 21q66 137 17 294z" />
    <glyph glyph-name="G" unicode="G" horiz-adv-x="1309" 
d="M1093 788q58 -33 84 -92l-40 -474q-99 -177 -250 -244q-135 -60 -279 -60q-251 0 -400 161q-208 227 -179 649q28 408 267 606q195 129 458 129q144 0 236 -30.5t195 -132.5q9 -176 -86 -288l-101 45q-119 71 -263 71q-191 -4 -278 -87.5t-110 -337.5q-17 -215 38 -328
q52 -158 247 -146q206 24 224 147l6 103l-207 2q-90 178 33 312z" />
    <glyph glyph-name="H" unicode="H" horiz-adv-x="1307" 
d="M167 1398l-86 -1405q110 -79 325 -24l36 610l469 20l-29 -611q138 -85 323 8l68 1423q-142 77 -296 2l-38 -521l-475 -24l29 559q-180 69 -326 -37z" />
    <glyph glyph-name="I" unicode="I" horiz-adv-x="578" 
d="M-8 -18q141 -73 345 -15l118 1471q-176 51 -328 15z" />
    <glyph glyph-name="J" unicode="J" horiz-adv-x="1011" 
d="M546 1430q118 -1575 -472 -1003q-104 -71 -67 -287q121 -253 397 -210q203 20 326.5 194t135.5 967l-6 354q-165 53 -314 -15z" />
    <glyph glyph-name="K" unicode="K" horiz-adv-x="1214" 
d="M83 1454l-74 -1456q186 -86 329 -4l23 565l437 -580q142 -20 206.5 31t82.5 158l-500 606l521 521q-65 182 -254 169l-458 -463l29 453q-219 72 -342 0z" />
    <glyph glyph-name="L" unicode="L" horiz-adv-x="1145" 
d="M114 1433l-82 -1423q10 -55 53 -63l871 32q106 156 23 333l-600 -16l72 1157q-220 39 -337 -20z" />
    <glyph glyph-name="M" unicode="M" horiz-adv-x="1471" 
d="M74 1444l-101 -1484l323 -3l53 719l164 -674q59 -66 135 -28l306 696l-41 -710l325 3l91 1483q-134 35 -278 -2l-411 -842l-233 840q-208 57 -333 2z" />
    <glyph glyph-name="N" unicode="N" horiz-adv-x="1307" 
d="M167 1398l-86 -1405q110 -79 325 -24l56 818l447 -816q176 -70 278 22l86 1426q-142 77 -296 2l-48 -788l-476 807q-215 56 -286 -42z" />
    <glyph glyph-name="O" unicode="O" horiz-adv-x="1463" 
d="M1194 1251q162 -215 132 -544.5t-220 -543.5t-467.5 -214t-454 208.5t-147.5 535.5t237 550t483 223t437 -215zM491.5 983.5q-105.5 -107.5 -127.5 -286t74 -295.5t232 -110.5t228 118t107.5 279t-64.5 283.5t-212 117.5t-237.5 -106z" />
    <glyph glyph-name="P" unicode="P" horiz-adv-x="1350" 
d="M72 1374l-127 -1368q122 -104 327 -32l45 430l117 13l324 75q321 79 371.5 354.5t-3 425.5t-251.5 183.5t-696 -13.5zM815 1110.5q45 -96.5 -6.5 -236.5t-464.5 -168l46 456q380 45 425 -51.5z" />
    <glyph glyph-name="Q" unicode="Q" horiz-adv-x="1463" 
d="M1194 1251q162 -215 132 -544.5t-279 -629.5l76 -195l-293 -115l-84 213q-385 -31 -561.5 177.5t-147.5 535.5t237 550t483 223t437 -215zM491.5 983.5q-105.5 -107.5 -127.5 -286t74 -295.5t213 -113l-62 184l242 104l72 -170q87 114 102.5 281.5t-64.5 283.5
t-212 117.5t-237.5 -106z" />
    <glyph glyph-name="R" unicode="R" horiz-adv-x="1350" 
d="M72 1374l-127 -1368q122 -104 327 -32l47 473l117 12l351 -509q230 -70 328 127l-354 457q321 80 370 334t-4.5 404t-251.5 183.5t-696 -13.5zM815 1110.5q45 -96.5 -5 -215t-463 -146.5l43 413q380 45 425 -51.5z" />
    <glyph glyph-name="S" unicode="S" horiz-adv-x="1227" 
d="M38 121q-65 227 76 352q257 -151 373 -186q216 2 237 108q5 85 -132 164l-257 125q-241 128 -250 361q9 134 92.5 241t188 140.5t248.5 24.5q264 -16 463 -150q8 -189 -118 -329q-243 182 -389 170q-137 16 -145 -98q-5 -65 193 -168q227 -92 336.5 -211t97.5 -289
q-16 -230 -214 -353q-126 -88 -364 -73q-227 29 -436 171z" />
    <glyph glyph-name="T" unicode="T" horiz-adv-x="1357" 
d="M46 1434q-102 -131 9 -318l363 8l-65 -1148q181 -67 333 -2l54 1163l369 5q77 161 8 321z" />
    <glyph glyph-name="U" unicode="U" horiz-adv-x="1295" 
d="M47 1439q180 35 343 -5q-61 -794 -56.5 -922.5t53.5 -196t167.5 -67.5t163 73t56.5 191.5t41 924.5q146 37 332 2q-48 -1069 -107 -1201.5t-180 -214t-317 -81.5t-343.5 98.5t-190 285.5t37.5 1113z" />
    <glyph glyph-name="V" unicode="V" horiz-adv-x="1389" 
d="M1388 1453l-570 -1469q-179 -81 -341 -3l-363 1472q186 32 375 0l191 -1052l326 1052q185 30 382 0z" />
    <glyph glyph-name="W" unicode="W" horiz-adv-x="1553" 
d="M1247 -26l249 1470q-155 69 -307 17l-159 -876l-93 861q-118 45 -297 8l-205 -843l-41 856q-188 33 -336 -10l133 -1513q154 -33 319 5l235 874l137 -857q223 -47 365 8z" />
    <glyph glyph-name="X" unicode="X" horiz-adv-x="1313" 
d="M44 1318l298 -546l-421 -627q63 -170 283 -215l306 539l313 -553q177 19 296 178l-399 692l355 515q-117 158 -280 153l-245 -394l-211 410q-200 0 -295 -152z" />
    <glyph glyph-name="Y" unicode="Y" horiz-adv-x="1278" 
d="M-61 1359l367 -685l-27 -711q139 -63 321 -2l29 705l473 700q-81 107 -293 96l-315 -510l-239 516q-215 14 -316 -109z" />
    <glyph glyph-name="Z" unicode="Z" horiz-adv-x="1350" 
d="M216 1125l604 6l-668 -896q-59 -204 40 -295l1021 4q61 182 -3 341l-617 -11l657 878q78 173 -19 313l-962 1q-90 -144 -53 -341z" />
    <glyph glyph-name="bracketleft" unicode="[" 
 />
    <glyph glyph-name="backslash" unicode="\" 
 />
    <glyph glyph-name="bracketright" unicode="]" 
 />
    <glyph glyph-name="asciicircum" unicode="^" 
 />
    <glyph glyph-name="underscore" unicode="_" 
 />
    <glyph glyph-name="grave" unicode="`" 
 />
    <glyph glyph-name="a" unicode="a" horiz-adv-x="1338" 
d="M534 1461l-524 -1461q109 -93 332 -63l92 270l371 46l72 -268q219 -42 356 48l-400 1440q-141 87 -299 -12zM749 533l-244 -29l157 492z" />
    <glyph glyph-name="b" unicode="b" horiz-adv-x="1343" 
d="M72 1374l-127 -1398l10 -36q11 -36 59 -30l48 7q397 -16 793 43q115 3 200 115.5t78.5 315.5t-223.5 312q180 83 221.5 256t-8.5 318t-248 178.5t-696 -13.5zM815 1115.5q45 -88.5 1 -206.5t-462 -106l36 360q380 41 425 -47.5zM788 498.5q54 -87.5 13.5 -191
t-517.5 -98.5l37 345q413 32 467 -55.5z" />
    <glyph glyph-name="c" unicode="c" horiz-adv-x="1275" 
d="M1151 1319q35 -180 -94 -288q-87 56 -273 89q-163 16 -266 -94.5t-126 -286.5q-34 -111 42 -285q76 -158 231.5 -167t372.5 61q78 -154 15 -302q-257 -118 -417 -112q-295 37 -430 214q-180 237 -122 669q46 342 217 517q223 181 541 148q221 -14 309 -163z" />
    <glyph glyph-name="d" unicode="d" horiz-adv-x="1234" 
d="M44 1324l16 120l100 23l384 -11q572 -103 568 -701q-13 -305 -146 -516q-164 -281 -834 -281l-114 32l-21 138zM354 1155l-40 -881q259 -17 365 89t120.5 331.5t-59 341t-386.5 119.5z" />
    <glyph glyph-name="e" unicode="e" horiz-adv-x="1242" 
d="M169 1437q-36 -17 -47 -56l-90 -1371q10 -55 53 -63l935 37q106 155 23 332l-671 -20l27 310l547 23q87 130 12 276l-537 -11l18 256l654 21q66 137 17 294z" />
    <glyph glyph-name="f" unicode="f" horiz-adv-x="1240" 
d="M169 1437q-36 -17 -47 -56l-88 -1414q136 -86 327 -4l36 565l547 23q87 129 11 275l-536 -10l20 334l654 21q66 137 17 294z" />
    <glyph glyph-name="g" unicode="g" horiz-adv-x="1309" 
d="M1093 788q58 -33 84 -92l-40 -474q-99 -177 -250 -244q-135 -60 -279 -60q-251 0 -400 161q-208 227 -179 649q28 408 267 606q195 129 458 129q144 0 236 -30.5t195 -132.5q9 -176 -86 -288l-101 45q-119 71 -263 71q-191 -4 -278 -87.5t-110 -337.5q-17 -215 38 -328
q52 -158 247 -146q206 24 224 147l6 103l-207 2q-90 178 33 312z" />
    <glyph glyph-name="h" unicode="h" horiz-adv-x="1307" 
d="M167 1398l-86 -1405q110 -79 325 -24l36 610l469 20l-29 -611q138 -85 323 8l68 1423q-142 77 -296 2l-38 -521l-475 -24l29 559q-180 69 -326 -37z" />
    <glyph glyph-name="i" unicode="i" horiz-adv-x="578" 
d="M-8 -18q141 -73 345 -15l118 1471q-176 51 -328 15z" />
    <glyph glyph-name="j" unicode="j" horiz-adv-x="1011" 
d="M546 1430q118 -1575 -472 -1003q-104 -71 -67 -287q121 -253 397 -210q203 20 326.5 194t135.5 967l-6 354q-165 53 -314 -15z" />
    <glyph glyph-name="k" unicode="k" horiz-adv-x="1214" 
d="M83 1454l-74 -1456q186 -86 329 -4l23 565l437 -580q142 -20 206.5 31t82.5 158l-500 606l521 521q-65 182 -254 169l-458 -463l29 453q-219 72 -342 0z" />
    <glyph glyph-name="l" unicode="l" horiz-adv-x="1145" 
d="M114 1433l-82 -1423q10 -55 53 -63l871 32q106 156 23 333l-600 -16l72 1157q-220 39 -337 -20z" />
    <glyph glyph-name="m" unicode="m" horiz-adv-x="1471" 
d="M74 1444l-101 -1484l323 -3l53 719l164 -674q59 -66 135 -28l306 696l-41 -710l325 3l91 1483q-134 35 -278 -2l-411 -842l-233 840q-208 57 -333 2z" />
    <glyph glyph-name="n" unicode="n" horiz-adv-x="1307" 
d="M167 1398l-86 -1405q110 -79 325 -24l56 818l447 -816q176 -70 278 22l86 1426q-142 77 -296 2l-48 -788l-476 807q-215 56 -286 -42z" />
    <glyph glyph-name="o" unicode="o" horiz-adv-x="1463" 
d="M1194 1251q162 -215 132 -544.5t-220 -543.5t-467.5 -214t-454 208.5t-147.5 535.5t237 550t483 223t437 -215zM491.5 983.5q-105.5 -107.5 -127.5 -286t74 -295.5t232 -110.5t228 118t107.5 279t-64.5 283.5t-212 117.5t-237.5 -106z" />
    <glyph glyph-name="p" unicode="p" horiz-adv-x="1350" 
d="M72 1374l-127 -1368q122 -104 327 -32l45 430l117 13l324 75q321 79 371.5 354.5t-3 425.5t-251.5 183.5t-696 -13.5zM815 1110.5q45 -96.5 -6.5 -236.5t-464.5 -168l46 456q380 45 425 -51.5z" />
    <glyph glyph-name="q" unicode="q" horiz-adv-x="1463" 
d="M1194 1251q162 -215 132 -544.5t-279 -629.5l76 -195l-293 -115l-84 213q-385 -31 -561.5 177.5t-147.5 535.5t237 550t483 223t437 -215zM491.5 983.5q-105.5 -107.5 -127.5 -286t74 -295.5t213 -113l-62 184l242 104l72 -170q87 114 102.5 281.5t-64.5 283.5
t-212 117.5t-237.5 -106z" />
    <glyph glyph-name="r" unicode="r" horiz-adv-x="1350" 
d="M72 1374l-127 -1368q122 -104 327 -32l47 473l117 12l351 -509q230 -70 328 127l-354 457q321 80 370 334t-4.5 404t-251.5 183.5t-696 -13.5zM815 1110.5q45 -96.5 -5 -215t-463 -146.5l43 413q380 45 425 -51.5z" />
    <glyph glyph-name="s" unicode="s" horiz-adv-x="1227" 
d="M38 121q-65 227 76 352q257 -151 373 -186q216 2 237 108q5 85 -132 164l-257 125q-241 128 -250 361q9 134 92.5 241t188 140.5t248.5 24.5q264 -16 463 -150q8 -189 -118 -329q-243 182 -389 170q-137 16 -145 -98q-5 -65 193 -168q227 -92 336.5 -211t97.5 -289
q-16 -230 -214 -353q-126 -88 -364 -73q-227 29 -436 171z" />
    <glyph glyph-name="t" unicode="t" horiz-adv-x="1357" 
d="M46 1434q-102 -131 9 -318l363 8l-65 -1148q181 -67 333 -2l54 1163l369 5q77 161 8 321z" />
    <glyph glyph-name="u" unicode="u" horiz-adv-x="1295" 
d="M47 1439q180 35 343 -5q-61 -794 -56.5 -922.5t53.5 -196t167.5 -67.5t163 73t56.5 191.5t41 924.5q146 37 332 2q-48 -1069 -107 -1201.5t-180 -214t-317 -81.5t-343.5 98.5t-190 285.5t37.5 1113z" />
    <glyph glyph-name="v" unicode="v" horiz-adv-x="1389" 
d="M1388 1453l-570 -1469q-179 -81 -341 -3l-363 1472q186 32 375 0l191 -1052l326 1052q185 30 382 0z" />
    <glyph glyph-name="w" unicode="w" horiz-adv-x="1553" 
d="M1247 -26l249 1470q-155 69 -307 17l-159 -876l-93 861q-118 45 -297 8l-205 -843l-41 856q-188 33 -336 -10l133 -1513q154 -33 319 5l235 874l137 -857q223 -47 365 8z" />
    <glyph glyph-name="x" unicode="x" horiz-adv-x="1313" 
d="M44 1318l298 -546l-421 -627q63 -170 283 -215l306 539l313 -553q177 19 296 178l-399 692l355 515q-117 158 -280 153l-245 -394l-211 410q-200 0 -295 -152z" />
    <glyph glyph-name="y" unicode="y" horiz-adv-x="1278" 
d="M-61 1359l367 -685l-27 -711q139 -63 321 -2l29 705l473 700q-81 107 -293 96l-315 -510l-239 516q-215 14 -316 -109z" />
    <glyph glyph-name="z" unicode="z" horiz-adv-x="1350" 
d="M216 1125l604 6l-668 -896q-59 -204 40 -295l1021 4q61 182 -3 341l-617 -11l657 878q78 173 -19 313l-962 1q-90 -144 -53 -341z" />
    <glyph glyph-name="braceleft" unicode="{" 
 />
    <glyph glyph-name="bar" unicode="|" 
 />
    <glyph glyph-name="braceright" unicode="}" 
 />
    <glyph glyph-name="asciitilde" unicode="~" 
 />
    <glyph glyph-name="Adieresis" unicode="&#xc4;" 
 />
    <glyph glyph-name="Aring" unicode="&#xc5;" 
 />
    <glyph glyph-name="Ccedilla" unicode="&#xc7;" 
 />
    <glyph glyph-name="Eacute" unicode="&#xc9;" 
 />
    <glyph glyph-name="Ntilde" unicode="&#xd1;" 
 />
    <glyph glyph-name="Odieresis" unicode="&#xd6;" 
 />
    <glyph glyph-name="Udieresis" unicode="&#xdc;" 
 />
    <glyph glyph-name="aacute" unicode="&#xe1;" 
 />
    <glyph glyph-name="agrave" unicode="&#xe0;" 
 />
    <glyph glyph-name="acircumflex" unicode="&#xe2;" 
 />
    <glyph glyph-name="adieresis" unicode="&#xe4;" 
 />
    <glyph glyph-name="atilde" unicode="&#xe3;" 
 />
    <glyph glyph-name="aring" unicode="&#xe5;" 
 />
    <glyph glyph-name="ccedilla" unicode="&#xe7;" 
 />
    <glyph glyph-name="eacute" unicode="&#xe9;" 
 />
    <glyph glyph-name="egrave" unicode="&#xe8;" 
 />
    <glyph glyph-name="ecircumflex" unicode="&#xea;" 
 />
    <glyph glyph-name="edieresis" unicode="&#xeb;" 
 />
    <glyph glyph-name="iacute" unicode="&#xed;" 
 />
    <glyph glyph-name="igrave" unicode="&#xec;" 
 />
    <glyph glyph-name="icircumflex" unicode="&#xee;" 
 />
    <glyph glyph-name="idieresis" unicode="&#xef;" 
 />
    <glyph glyph-name="ntilde" unicode="&#xf1;" 
 />
    <glyph glyph-name="oacute" unicode="&#xf3;" 
 />
    <glyph glyph-name="ograve" unicode="&#xf2;" 
 />
    <glyph glyph-name="ocircumflex" unicode="&#xf4;" 
 />
    <glyph glyph-name="odieresis" unicode="&#xf6;" 
 />
    <glyph glyph-name="otilde" unicode="&#xf5;" 
 />
    <glyph glyph-name="uacute" unicode="&#xfa;" 
 />
    <glyph glyph-name="ugrave" unicode="&#xf9;" 
 />
    <glyph glyph-name="ucircumflex" unicode="&#xfb;" 
 />
    <glyph glyph-name="udieresis" unicode="&#xfc;" 
 />
    <glyph glyph-name="dagger" unicode="&#x2020;" 
 />
    <glyph glyph-name="degree" unicode="&#xb0;" 
 />
    <glyph glyph-name="cent" unicode="&#xa2;" 
 />
    <glyph glyph-name="sterling" unicode="&#xa3;" 
 />
    <glyph glyph-name="section" unicode="&#xa7;" 
 />
    <glyph glyph-name="bullet" unicode="&#x2022;" 
 />
    <glyph glyph-name="paragraph" unicode="&#xb6;" 
 />
    <glyph glyph-name="germandbls" unicode="&#xdf;" 
 />
    <glyph glyph-name="registered" unicode="&#xae;" 
 />
    <glyph glyph-name="copyright" unicode="&#xa9;" 
 />
    <glyph glyph-name="trademark" unicode="&#x2122;" 
 />
    <glyph glyph-name="acute" unicode="&#xb4;" 
 />
    <glyph glyph-name="dieresis" unicode="&#xa8;" 
 />
    <glyph glyph-name="AE" unicode="&#xc6;" 
 />
    <glyph glyph-name="Oslash" unicode="&#xd8;" 
 />
    <glyph glyph-name="plusminus" unicode="&#xb1;" 
 />
    <glyph glyph-name="yen" unicode="&#xa5;" 
 />
    <glyph glyph-name="mu" unicode="&#xb5;" 
 />
    <glyph glyph-name="mu" unicode="&#x3bc;" 
 />
    <glyph glyph-name="ordfeminine" unicode="&#xaa;" 
 />
    <glyph glyph-name="ordmasculine" unicode="&#xba;" 
 />
    <glyph glyph-name="ae" unicode="&#xe6;" 
 />
    <glyph glyph-name="oslash" unicode="&#xf8;" 
 />
    <glyph glyph-name="questiondown" unicode="&#xbf;" 
 />
    <glyph glyph-name="exclamdown" unicode="&#xa1;" 
 />
    <glyph glyph-name="logicalnot" unicode="&#xac;" 
 />
    <glyph glyph-name="florin" unicode="&#x192;" 
 />
    <glyph glyph-name="guillemotleft" unicode="&#xab;" 
 />
    <glyph glyph-name="guillemotright" unicode="&#xbb;" 
 />
    <glyph glyph-name="ellipsis" unicode="&#x2026;" 
 />
    <glyph glyph-name="nonbreakingspace" unicode="&#xa0;" 
 />
    <glyph glyph-name="Agrave" unicode="&#xc0;" 
 />
    <glyph glyph-name="Atilde" unicode="&#xc3;" 
 />
    <glyph glyph-name="Otilde" unicode="&#xd5;" 
 />
    <glyph glyph-name="OE" unicode="&#x152;" 
 />
    <glyph glyph-name="oe" unicode="&#x153;" 
 />
    <glyph glyph-name="endash" unicode="&#x2013;" 
 />
    <glyph glyph-name="emdash" unicode="&#x2014;" 
 />
    <glyph glyph-name="quotedblleft" unicode="&#x201c;" 
 />
    <glyph glyph-name="quotedblright" unicode="&#x201d;" 
 />
    <glyph glyph-name="quoteleft" unicode="&#x2018;" 
 />
    <glyph glyph-name="quoteright" unicode="&#x2019;" 
 />
    <glyph glyph-name="divide" unicode="&#xf7;" 
 />
    <glyph glyph-name="ydieresis" unicode="&#xff;" 
 />
    <glyph glyph-name="Ydieresis" unicode="&#x178;" 
 />
    <glyph glyph-name="currency" unicode="&#xa4;" 
 />
    <glyph glyph-name="guilsinglleft" unicode="&#x2039;" 
 />
    <glyph glyph-name="guilsinglright" unicode="&#x203a;" 
 />
    <glyph glyph-name="daggerdbl" unicode="&#x2021;" 
 />
    <glyph glyph-name="periodcentered" unicode="&#xb7;" 
 />
    <glyph glyph-name="periodcentered" unicode="&#x2219;" 
 />
    <glyph glyph-name="quotesinglbase" unicode="&#x201a;" 
 />
    <glyph glyph-name="quotedblbase" unicode="&#x201e;" 
 />
    <glyph glyph-name="perthousand" unicode="&#x2030;" 
 />
    <glyph glyph-name="Acircumflex" unicode="&#xc2;" 
 />
    <glyph glyph-name="Ecircumflex" unicode="&#xca;" 
 />
    <glyph glyph-name="Aacute" unicode="&#xc1;" 
 />
    <glyph glyph-name="Edieresis" unicode="&#xcb;" 
 />
    <glyph glyph-name="Egrave" unicode="&#xc8;" 
 />
    <glyph glyph-name="Iacute" unicode="&#xcd;" 
 />
    <glyph glyph-name="Icircumflex" unicode="&#xce;" 
 />
    <glyph glyph-name="Idieresis" unicode="&#xcf;" 
 />
    <glyph glyph-name="Igrave" unicode="&#xcc;" 
 />
    <glyph glyph-name="Oacute" unicode="&#xd3;" 
 />
    <glyph glyph-name="Ocircumflex" unicode="&#xd4;" 
 />
    <glyph glyph-name="Ograve" unicode="&#xd2;" 
 />
    <glyph glyph-name="Uacute" unicode="&#xda;" 
 />
    <glyph glyph-name="Ucircumflex" unicode="&#xdb;" 
 />
    <glyph glyph-name="Ugrave" unicode="&#xd9;" 
 />
    <glyph glyph-name="circumflex" unicode="&#x2c6;" 
 />
    <glyph glyph-name="tilde" unicode="&#x2dc;" 
 />
    <glyph glyph-name="macron" unicode="&#xaf;" 
 />
    <glyph glyph-name="macron" unicode="&#x2c9;" 
 />
    <glyph glyph-name="cedilla" unicode="&#xb8;" 
 />
    <glyph glyph-name="Scaron" unicode="&#x160;" 
 />
    <glyph glyph-name="scaron" unicode="&#x161;" 
 />
    <glyph glyph-name="brokenbar" unicode="&#xa6;" 
 />
    <glyph glyph-name="Eth" unicode="&#xd0;" 
 />
    <glyph glyph-name="eth" unicode="&#xf0;" 
 />
    <glyph glyph-name="Yacute" unicode="&#xdd;" 
 />
    <glyph glyph-name="yacute" unicode="&#xfd;" 
 />
    <glyph glyph-name="Thorn" unicode="&#xde;" 
 />
    <glyph glyph-name="thorn" unicode="&#xfe;" 
 />
    <glyph glyph-name="minus" unicode="&#xad;" 
 />
    <glyph glyph-name="minus" unicode="&#x2212;" 
 />
    <glyph glyph-name="multiply" unicode="&#xd7;" 
 />
    <glyph glyph-name="onesuperior" unicode="&#xb9;" 
 />
    <glyph glyph-name="twosuperior" unicode="&#xb2;" 
 />
    <glyph glyph-name="threesuperior" unicode="&#xb3;" 
 />
    <glyph glyph-name="onehalf" unicode="&#xbd;" 
 />
    <glyph glyph-name="onequarter" unicode="&#xbc;" 
 />
    <glyph glyph-name="threequarters" unicode="&#xbe;" 
 />
    <glyph glyph-name="Zcaron" unicode="&#x17d;" 
 />
    <glyph glyph-name="zcaron" unicode="&#x17e;" 
 />
  </font>
</defs>
</svg>
