<?xml version="1.0" standalone="no"?>
<!DOCTYPE svg PUBLIC "-//W3C//DTD SVG 1.1//EN" "http://www.w3.org/Graphics/SVG/1.1/DTD/svg11.dtd" >
<svg>
<metadata>
Created by FontForge 20110222 at Tue Jul 10 21:24:20 2012
 By www-data
Pompiere is a low contrast condensed sans serif font. However unlike most sans it has very tall ascenders and and very small x height. Pompiere is playful and even a little sweet. This font was inspired by a handmade sign seen outside of NYC firefighters Squad Co. 18 in the West Village of Manhattan. Because of its small x height and modest weight it will work best at medium to large sizes.
</metadata>
<defs>
<font id="Pompiere-Regular" horiz-adv-x="1027" >
  <font-face 
    font-family="Pompiere "
    font-weight="400"
    font-stretch="normal"
    units-per-em="2048"
    panose-1="2 0 0 0 0 0 0 0 0 0"
    ascent="1638"
    descent="-410"
    x-height="747"
    cap-height="1628"
    bbox="-141 -543 1970.03 1918.08"
    underline-thickness="76"
    underline-position="-163"
    unicode-range="U+0020-2122"
  />
    <missing-glyph />
    <glyph glyph-name="space" unicode=" " horiz-adv-x="364" 
 />
    <glyph glyph-name="E" unicode="E" horiz-adv-x="760" 
d="M158 1563c-6 71 48 65 67 62c25 -5 71 -7 130 -7c61 0 130 2 188 9c48 5 75 -26 75 -56c0 -28 -23 -52 -75 -49c-62 4 -195 15 -297 4l18 35c0 -276 -5 -540 -6 -858l-17 29c40 0 175 3 228 9c49 5 70 -15 70 -44c0 -24 -15 -46 -64 -51c-25 -3 -55 -1 -77 -1
c-36 0 -126 2 -164 1l24 33c-1 -255 3 -554 3 -616l-27 23c110 0 347 7 430 15c47 6 76 -26 76 -56c0 -26 -25 -52 -76 -48c-40 2 -99 3 -160 3c-108 0 -230 -3 -284 -11c-33 -4 -70 12 -68 61c11 205 15 546 15 876c0 305 4 469 -9 637z" />
    <glyph glyph-name="I" unicode="I" horiz-adv-x="492" 
d="M303 66c1 -43 -31 -66 -60 -66c-28 0 -54 20 -53 62c7 193 13 498 13 802c0 324 -1 519 -14 701c-4 42 18 63 49 63s63 -21 62 -63c-5 -113 -9 -173 -9 -388c0 -372 5 -829 12 -1111z" />
    <glyph glyph-name="O" unicode="O" 
d="M522 1543c-217 0 -337 -378 -337 -735c0 -590 159 -735 320 -735c170 0 336 167 336 746c0 347 -79 724 -319 724zM495 -23c-279 0 -406 292 -406 854c0 423 160 800 431 800c286 0 414 -299 416 -800c2 -547 -164 -854 -441 -854z" />
    <glyph glyph-name="S" unicode="S" horiz-adv-x="867" 
d="M123 1282c0 217 144 358 331 358c148 0 291 -105 280 -342c-1 -11 0 -23 -1 -35c-5 -54 -34 -80 -63 -80c-28 0 -53 26 -44 77c5 34 11 69 11 103c0 103 -74 188 -192 188c-119 0 -221 -87 -221 -263c0 -449 533 -434 533 -911c0 -249 -139 -407 -350 -407
c-206 0 -329 180 -329 372c0 17 1 34 3 52c5 45 31 65 55 65c46 0 53 -37 53 -108c0 -187 94 -289 230 -289c147 0 239 111 239 308c0 430 -535 442 -535 912z" />
    <glyph glyph-name="H" unicode="H" horiz-adv-x="990" 
d="M829 63c2 -43 -24 -64 -51 -64c-25 0 -50 21 -49 63c3 201 6 518 6 958c0 199 -1 287 -4 539c-1 42 28 62 55 62c26 0 53 -20 52 -62c-7 -277 -16 -647 -16 -1056c0 -172 0 -328 7 -440zM752 625c-49 5 -165 10 -277 10c-91 0 -180 -3 -230 -10c-40 0 -58 30 -58 56
c0 31 24 60 58 42c48 -9 139 -12 231 -12c121 0 245 6 276 12c0 -34 0 -106 0 -98zM262 68c1 -44 -28 -67 -56 -67c-27 0 -52 21 -51 62c7 211 11 561 11 895c0 291 -2 431 -14 595c-3 42 27 63 56 63s59 -21 56 -63c-6 -162 -9 -342 -9 -670c0 -298 3 -604 7 -815z" />
    <glyph glyph-name="M" unicode="M" horiz-adv-x="1319" 
d="M1053 66c8 238 15 572 15 974c0 199 1 404 -4 537l36 1c-11 -51 -237 -944 -389 -1397c-8 -26 -36 -40 -57 -40c-20 0 -35 14 -42 40c-25 86 -373 1220 -403 1386l34 -1c-3 -116 1 -268 1 -382c0 -545 17 -911 20 -1126c2 -39 -34 -59 -58 -59c-27 0 -56 23 -54 67
c8 142 12 347 12 569c0 370 -13 659 -12 910c0 60 33 82 70 82s63 -29 73 -64c14 -48 380 -1296 380 -1296h-23c39 105 207 679 364 1294c12 45 39 69 83 69c34 0 57 -38 55 -90c-7 -153 -3 -393 -3 -647c0 -353 9 -605 16 -831c1 -42 -27 -62 -56 -62s-58 23 -58 66z" />
    <glyph glyph-name="P" unicode="P" horiz-adv-x="865" 
d="M282 70c1 -45 -27 -67 -56 -67c-25 0 -51 21 -51 62c0 152 -1 593 -1 817c0 375 -10 427 -22 624c-4 71 45 68 67 74c91 23 183 38 263 38c215 0 360 -128 360 -391c0 -375 -291 -633 -586 -794l-1 97c190 99 495 304 495 688c0 216 -114 313 -264 319
c-70 2 -173 -20 -241 -53l19 34c-8 -187 -8 -496 -8 -638c0 -161 4 -46 26 -810z" />
    <glyph glyph-name="T" unicode="T" horiz-adv-x="748" 
d="M681 1625c44 1 67 -31 67 -54s-20 -44 -61 -43c-137 4 -196 9 -288 7l27 32c-6 -144 -9 -430 -9 -696c0 -328 4 -558 9 -801c1 -45 -25 -67 -52 -67c-25 0 -56 21 -56 62c0 42 -1 86 -1 131c0 332 10 625 10 955c0 154 -2 323 -9 418l20 -34c-86 2 -156 -5 -275 -13
c-43 -2 -64 22 -64 48c0 25 22 58 64 56c155 -7 145 -9 258 -9c112 0 139 2 360 8z" />
    <glyph glyph-name="Q" unicode="Q" 
d="M507 1541c-217 0 -323 -329 -323 -719c0 -642 155 -756 307 -756c170 0 345 66 345 768c0 366 -89 707 -329 707zM492 -23c-269 0 -408 253 -408 866c0 488 162 788 423 788c284 0 421 -259 423 -788c3 -595 -151 -866 -438 -866zM807 -201c4 -11 7 -21 7 -31
c0 -30 -36 -49 -59 -49c-19 0 -37 11 -46 42c-80 239 -52 176 -205 541c-20 46 6 82 45 82c22 0 45 -14 55 -43c95 -296 108 -341 203 -542z" />
    <glyph glyph-name="R" unicode="R" horiz-adv-x="916" 
d="M808 89c22 -49 -13 -85 -50 -85c-22 0 -43 12 -53 41c-86 248 -131 452 -217 657l64 81c72 -230 162 -473 256 -694zM278 70c1 -45 -28 -67 -56 -67c-26 0 -51 21 -51 62v752c0 376 -7 503 -19 700c-4 71 45 67 67 74c97 27 179 38 258 38c215 0 361 -118 361 -380
c0 -356 -313 -644 -609 -805l-1 97c191 99 515 383 515 699c0 205 -111 305 -261 311c-44 1 -182 -13 -245 -61l29 51c-8 -171 -15 -565 -15 -726c0 -160 5 19 27 -745z" />
    <glyph glyph-name="L" unicode="L" horiz-adv-x="764" 
d="M269 1562c0 -314 -7 -544 -10 -1498l-16 23c113 -3 317 6 398 14c48 6 76 -27 76 -56c0 -26 -23 -52 -76 -48c-39 2 -97 3 -158 3c-106 0 -201 -3 -256 -11c-32 -4 -69 12 -67 61c11 207 12 546 12 875c0 304 -2 466 -20 636c-4 42 26 64 56 64s61 -21 61 -63z" />
    <glyph glyph-name="F" unicode="F" horiz-adv-x="616" 
d="M152 1564c-5 71 57 65 76 62c25 -5 76 -7 135 -7c60 0 150 2 208 9c47 6 75 -26 75 -56c0 -28 -23 -52 -75 -49c-63 4 -215 15 -318 4l18 35c0 -276 -1 -541 -2 -859l-16 29c40 0 185 3 239 9c49 5 75 -11 75 -44c0 -21 -18 -43 -66 -49c-26 -3 -73 -3 -95 -3
c-38 0 -122 2 -160 1l23 33c0 -255 9 -557 9 -618c0 -34 -19 -61 -51 -61c-21 0 -58 12 -56 61c10 205 5 535 5 865c0 305 -11 470 -24 638z" />
    <glyph glyph-name="V" unicode="V" horiz-adv-x="925" 
d="M876 1548c-62 -220 -219 -1028 -343 -1498c-9 -37 -36 -53 -64 -53c-31 0 -59 16 -71 53c-29 87 -201 996 -347 1491c-5 12 -7 23 -7 34c0 34 22 54 52 55s64 -17 75 -72c61 -336 239 -1190 316 -1443l-34 -5c47 92 139 540 173 730c53 305 102 505 135 701
c7 46 25 85 62 85c36 0 68 -28 53 -78z" />
    <glyph glyph-name="W" unicode="W" horiz-adv-x="1631" 
d="M46 1550c-11 52 23 78 57 78c35 0 55 -39 62 -85c71 -440 248 -1323 288 -1428l-29 -3c88 364 294 1102 336 1411c7 58 34 74 65 73c30 -1 45 -22 51 -54c107 -483 259 -1324 304 -1435l-28 -4c84 364 271 1147 314 1457c8 55 30 74 62 72c28 -1 44 -20 44 -54
c0 -11 -1 -23 -5 -35c-111 -509 -310 -1405 -345 -1492c-13 -32 -33 -53 -59 -53c-23 0 -49 16 -59 53c-117 414 -224 1003 -292 1369l22 -5c-119 -544 -208 -845 -324 -1364c-7 -33 -38 -53 -68 -53c-26 0 -53 16 -63 53c-123 470 -269 1206 -333 1499z" />
    <glyph glyph-name="U" unicode="U" horiz-adv-x="1044" 
d="M173 471v47c0 162 2 256 2 423c0 238 -4 408 -23 610c-4 42 27 63 60 63c32 0 65 -21 62 -63c-6 -194 -13 -426 -13 -730c0 -176 1 -273 11 -436c13 -209 114 -309 249 -309c138 0 246 109 261 308c8 130 11 165 11 323c0 200 -3 404 -19 850c-1 42 28 62 58 62
s61 -20 60 -62c-10 -398 2 -771 -24 -1152c-15 -213 -118 -428 -346 -428c-243 0 -348 195 -349 494z" />
    <glyph glyph-name="X" unicode="X" horiz-adv-x="892" 
d="M776 94c22 -52 -12 -93 -48 -93c-19 0 -38 11 -47 38c-46 142 -160 502 -232 728l23 4c-89 -277 -165 -532 -234 -714c-17 -45 -41 -64 -62 -64c-23 0 -43 25 -43 57c0 11 3 22 7 33c86 204 174 466 276 777c-104 314 -201 529 -276 693c-8 17 -11 33 -11 45
c0 42 19 65 50 65c26 0 54 -17 66 -58c58 -197 149 -409 237 -686l-31 1c90 274 204 536 239 677c11 43 38 61 63 61s48 -20 48 -56c0 -13 -3 -27 -10 -43c-72 -169 -168 -374 -282 -718c93 -281 185 -556 267 -747z" />
    <glyph glyph-name="C" unicode="C" horiz-adv-x="929" 
d="M715 413c0 44 26 70 53 70c31 0 56 -21 54 -63c-14 -276 -161 -443 -347 -443c-211 0 -379 182 -379 775c0 489 133 867 411 867c201 0 310 -144 310 -551c0 -44 -23 -66 -52 -66c-25 0 -45 19 -45 58c0 340 -64 466 -217 466c-220 0 -311 -401 -311 -791
c0 -560 142 -661 293 -661c117 0 232 97 230 339z" />
    <glyph glyph-name="J" unicode="J" horiz-adv-x="818" 
d="M540 544c1 79 2 228 2 400c0 252 4 419 -13 616c-4 42 24 61 52 61s59 -20 59 -62c-4 -472 -4 -502 -4 -996c0 -396 -79 -585 -301 -585c-161 0 -278 151 -278 452c0 27 1 56 4 86c3 41 27 63 60 63s55 -27 51 -70c-5 -45 -6 -87 -6 -124c0 -236 79 -320 176 -320
c139 0 195 117 198 479z" />
    <glyph glyph-name="K" unicode="K" horiz-adv-x="950" 
d="M816 1548c-53 -126 -165 -320 -307 -577l7 54c84 -247 291 -749 370 -939c20 -50 -16 -86 -52 -86c-20 0 -41 13 -51 41c-73 207 -229 658 -320 884l26 12c-70 -128 -194 -350 -240 -419l17 68c0 -178 2 -389 4 -520c1 -43 -29 -66 -58 -66s-57 20 -56 62
c8 212 18 567 18 904c0 287 -5 433 -22 596c-4 42 28 63 61 63c32 0 65 -21 64 -63c-8 -192 -11 -517 -11 -906l-14 8c158 262 384 710 459 928c11 29 32 42 53 42c37 0 73 -37 52 -86z" />
    <glyph glyph-name="G" unicode="G" horiz-adv-x="936" 
d="M487 77c116 0 195 103 228 302c11 67 27 223 19 259l24 -29c-146 10 -207 -8 -251 -8c-42 0 -61 27 -61 55c0 27 20 53 61 47c42 -5 84 -4 121 -4c76 0 112 11 149 11c29 0 52 -14 52 -59c0 -418 -133 -674 -351 -674c-262 0 -386 264 -386 868c0 490 128 770 405 785
c201 11 320 -119 320 -466c1 -44 -17 -66 -45 -66c-26 0 -52 19 -52 58c0 301 -88 388 -229 378c-219 -16 -301 -318 -301 -708c0 -633 138 -749 297 -749z" />
    <glyph glyph-name="B" unicode="B" horiz-adv-x="906" 
d="M219 1476l34 57c5 -123 -8 274 -8 -669c0 -59 1 -579 8 -799l-24 34c180 -3 501 157 501 468c0 146 -127 207 -265 207c-71 0 -193 -22 -242 -57l11 103c161 28 484 246 484 510c0 155 -112 207 -245 207c-55 0 -173 -15 -254 -61zM226 -3c-35 -3 -74 3 -74 65
c0 107 10 427 10 802c0 242 -2 318 -19 635c-3 60 42 65 64 71c103 27 195 46 278 46c201 0 327 -79 327 -276c0 -226 -165 -373 -394 -519v18c6 0 62 16 80 16c201 -3 321 -101 321 -277c0 -340 -333 -563 -593 -581z" />
    <glyph glyph-name="Z" unicode="Z" horiz-adv-x="796" 
d="M709 1553c0 -94 -513 -1294 -554 -1488c-13 10 -23 8 -26 21c15 1 63 2 69 2c113 0 333 8 415 17c46 4 70 -26 70 -54s-22 -61 -70 -58c-39 4 -96 5 -157 5c-109 0 -275 6 -331 -1c-31 -5 -72 18 -65 69c14 126 479 1102 541 1466c6 -6 23 -10 25 -19
c-36 2 -185 4 -239 4c-81 0 -165 -2 -214 -5c-51 -3 -75 22 -75 49c0 31 28 57 75 57c50 0 127 -9 197 -9c84 0 214 4 242 8c60 10 97 -5 97 -64z" />
    <glyph glyph-name="Y" unicode="Y" horiz-adv-x="966" 
d="M444 619l23 -113c-105 280 -282 668 -416 1042c-5 12 -7 23 -7 33c0 33 23 55 52 56c33 1 47 -19 63 -73c103 -361 282 -759 364 -944h-42c92 247 258 679 331 937c14 47 27 86 62 86c30 0 48 -16 48 -47c0 -9 -2 -20 -5 -31c-35 -117 -90 -242 -166 -458
c-50 -142 -190 -503 -230 -605l29 128c-3 -88 -7 -214 -7 -276c0 -102 6 -156 7 -291c0 -44 -38 -65 -64 -65c-27 0 -55 22 -52 65c10 103 22 184 22 299c0 65 -6 192 -12 257z" />
    <glyph glyph-name="f" unicode="f" horiz-adv-x="494" 
d="M269 1240c-1 -122 3 -335 3 -604c0 -220 -2 -433 11 -544c8 -63 -26 -98 -58 -98c-25 0 -49 24 -46 72c5 118 -3 617 -3 1154c0 411 54 567 242 567c108 0 189 -88 189 -258c0 -65 -28 -93 -60 -93c-41 0 -55 30 -55 61c0 22 13 61 13 78c-1 88 -45 116 -95 116
c-96 0 -138 -79 -141 -451zM433 747c44 0 67 -16 67 -50c0 -22 -20 -50 -61 -48c-50 2 -86 5 -120 5c-73 0 -110 -7 -194 -10c-45 -3 -64 23 -64 52c0 37 39 55 64 55c62 0 86 -10 130 -10c62 0 134 6 178 6z" />
    <glyph glyph-name="b" unicode="b" horiz-adv-x="741" 
d="M215 413c-3 -110 -4 -151 -4 -176c0 -32 3 -115 5 -213l-21 38c89 -17 384 119 384 446c0 116 -51 172 -120 172c-131 0 -232 -160 -244 -267zM165 1757c43 0 54 -34 54 -83c0 -219 -5 -242 -5 -419c0 -140 -2 -502 2 -715l-13 2c41 134 145 241 254 241
c132 0 214 -102 214 -266c0 -319 -263 -525 -475 -538c-35 -2 -75 -1 -75 58c0 111 9 438 9 865c0 274 -1 459 -21 783c-3 58 33 72 56 72z" />
    <glyph glyph-name="i" unicode="i" horiz-adv-x="382" 
d="M242 60c2 -44 -27 -67 -53 -67c-27 0 -56 20 -52 62c6 79 12 201 12 317c0 111 -6 223 -9 312c-2 41 30 62 57 62c26 0 52 -20 51 -62c-6 -138 -15 -273 -15 -407c0 -71 5 -148 9 -217zM286 1023c-5 -64 -52 -84 -88 -84c-39 0 -80 29 -80 84s45 85 86 85
c39 0 85 -30 82 -85z" />
    <glyph glyph-name="l" unicode="l" horiz-adv-x="398" 
d="M256 58c1 -44 -24 -67 -55 -67s-59 21 -57 62c11 210 19 609 19 978c0 316 -1 503 -12 669c-3 42 20 67 51 67c30 0 62 -25 61 -67c-7 -192 -15 -534 -15 -957c0 -259 4 -517 8 -685z" />
    <glyph glyph-name="one" unicode="1" horiz-adv-x="573" 
d="M362 72c1 -44 -29 -67 -60 -67c-27 0 -45 19 -44 62c8 204 13 571 13 892c0 199 0 458 -1 597l29 -11c-11 -16 -79 -127 -99 -148c-15 -17 -31 -24 -47 -24c-29 0 -56 27 -56 58c0 16 8 33 24 47c83 72 88 75 134 120c18 19 39 28 60 28c29 0 53 -20 52 -64
c-4 -111 -10 -304 -10 -523c0 -334 -1 -726 5 -967z" />
    <glyph glyph-name="two" unicode="2" horiz-adv-x="865" 
d="M750 1204c0 -377 -525 -702 -525 -1079c0 -35 9 -36 44 -35c133 6 295 24 417 17c36 -2 55 -31 55 -55c0 -25 -19 -50 -55 -50c-61 0 -140 3 -238 3c-80 0 -163 0 -262 -9c-48 -5 -77 12 -77 60c0 463 539 766 539 1135c0 217 -64 337 -203 337
c-147 0 -220 -133 -210 -382c1 -40 -30 -59 -56 -59c-28 0 -54 22 -55 66c-10 327 152 466 335 466c208 0 291 -149 291 -415z" />
    <glyph glyph-name="seven" unicode="7" horiz-adv-x="785" 
d="M611 1491c0 35 -10 38 -47 35c-108 -13 -258 -22 -356 -22c-37 0 -67 1 -83 4c-37 8 -55 34 -55 58c0 26 18 48 55 48c59 0 139 -4 237 -4c78 0 168 3 268 11c49 5 79 -12 79 -61c0 -162 -374 -1125 -363 -1504c1 -40 -32 -58 -58 -59c-43 -1 -58 33 -53 76
c49 466 376 1299 376 1418z" />
    <glyph glyph-name="three" unicode="3" horiz-adv-x="897" 
d="M440 753c127 57 220 219 220 415c0 228 -78 361 -217 361c-136 0 -219 -109 -219 -313c0 -48 -9 -70 -46 -70c-28 0 -56 22 -56 68c0 276 151 410 317 410c211 0 308 -159 308 -451c0 -172 -55 -393 -252 -493l-1 25c127 -4 283 -122 283 -339
c0 -232 -149 -388 -345 -388c-182 0 -336 152 -325 413c1 18 1 35 2 52c3 41 28 61 61 61c27 0 52 -24 47 -69c-3 -27 -11 -54 -11 -79c0 -171 77 -287 240 -287c170 0 238 139 238 291c0 134 -98 276 -264 269c-42 -6 -64 18 -64 46c0 32 27 68 84 78z" />
    <glyph glyph-name="six" unicode="6" horiz-adv-x="1011" 
d="M255 440l-31 20c42 257 213 337 320 337c181 0 304 -137 304 -402c0 -155 -95 -417 -321 -417c-89 0 -150 37 -204 87c-121 114 -165 312 -165 746c0 429 103 809 402 819c190 7 311 -120 311 -430c0 -45 -28 -67 -56 -67c-26 0 -51 19 -49 60c13 251 -80 350 -207 350
c-192 0 -293 -257 -314 -707c-6 -129 6 -240 10 -396zM276 385c28 -194 135 -312 239 -312c158 0 240 155 240 324c0 186 -77 308 -218 308c-121 0 -254 -147 -261 -320z" />
    <glyph glyph-name="nine" unicode="9" horiz-adv-x="990" 
d="M764 797l10 -4c-66 -217 -189 -273 -292 -273c-215 0 -337 194 -337 591c0 193 93 518 347 518c267 0 360 -205 360 -720c0 -582 -76 -931 -340 -931c-144 0 -308 132 -318 382c-2 45 23 66 46 66s47 -19 49 -59c14 -197 112 -298 223 -298c184 0 252 353 252 653v75z
M755 1074c-1 280 -92 466 -260 466c-158 0 -251 -220 -251 -430c0 -309 73 -502 236 -502c155 0 276 167 275 466z" />
    <glyph glyph-name="eight" unicode="8" horiz-adv-x="955" 
d="M470 1544c-160 0 -252 -131 -252 -387c0 -229 98 -425 252 -425c157 0 237 196 237 425c0 256 -69 387 -237 387zM471 1635c228 0 337 -162 337 -481c0 -137 -55 -413 -245 -484v30c121 -28 232 -120 232 -345c0 -206 -124 -377 -334 -377c-183 0 -321 165 -321 375
c0 209 106 298 226 357l-11 -28c-179 66 -233 327 -233 472c0 319 122 481 349 481zM473 72c162 0 231 149 231 302c0 141 -93 266 -243 266c-141 0 -227 -126 -227 -268c0 -153 83 -300 239 -300z" />
    <glyph glyph-name="five" unicode="5" horiz-adv-x="903" 
d="M494 762c-125 0 -178 -84 -194 -121c-18 -38 -39 -59 -70 -59c-30 0 -58 22 -52 65c14 114 25 215 25 418s-7 366 -17 497c-3 48 36 65 67 61c50 -8 179 -9 295 -9c70 0 135 1 173 4c52 3 76 -22 76 -48c0 -40 -29 -63 -76 -58c-102 11 -323 12 -460 14l28 29
c1 -328 2 -516 -6 -845l-17 10c56 97 179 129 221 129c202 0 317 -138 317 -433c0 -262 -144 -438 -334 -438c-201 0 -333 140 -326 379c1 41 28 60 54 60c29 0 58 -23 53 -68c-1 -14 -2 -28 -2 -40c0 -139 89 -249 221 -249c174 0 242 166 242 353c0 180 -80 349 -218 349z
" />
    <glyph glyph-name="four" unicode="4" horiz-adv-x="822" 
d="M734 638c44 2 65 -23 65 -46s-19 -44 -59 -43c-15 1 -143 -2 -156 -2l23 25c-1 -45 -2 -113 -2 -155c0 -137 5 -270 8 -370c1 -43 -26 -66 -51 -66s-51 20 -51 62v31c0 93 5 197 5 316c0 48 -1 116 -2 176l21 -20c-23 1 -91 3 -112 3c-112 0 -214 -11 -336 -11
c-47 0 -67 17 -67 43c0 14 6 28 14 44c60 127 282 525 473 966c10 23 35 44 62 44c33 0 44 -34 44 -65c0 -173 -7 -386 -7 -736v-227l-20 23zM533 628l-19 -28c3 218 6 315 6 507c0 92 2 330 1 408l21 -35c-122 -277 -341 -711 -402 -875l-10 23c57 -3 159 -3 213 -3
c43 0 134 2 190 3z" />
    <glyph glyph-name="zero" unicode="0" horiz-adv-x="1021" 
d="M516 1543c-215 0 -281 -315 -281 -706c0 -566 96 -770 262 -770c176 0 289 227 289 780c0 347 -33 696 -270 696zM498 -23c-265 0 -359 333 -359 877c0 491 122 777 377 777c261 0 362 -267 365 -777c3 -536 -119 -877 -383 -877z" />
    <glyph glyph-name="o" unicode="o" horiz-adv-x="713" 
d="M351 -22c-154 -3 -272 131 -272 413c0 250 126 387 297 387c144 0 259 -132 259 -376c0 -278 -137 -422 -284 -424zM368 697c-127 0 -197 -137 -197 -330c0 -211 71 -304 180 -304c127 0 192 165 192 329c0 170 -66 305 -175 305z" />
    <glyph glyph-name="j" unicode="j" horiz-adv-x="413" 
d="M261 -174c0 -276 -80 -368 -220 -368c-101 0 -182 59 -182 204c0 61 26 79 56 79c24 0 45 -23 43 -67c-3 -70 13 -135 83 -135c97 0 126 72 130 304c0 29 2 350 2 378c0 244 -1 191 -13 457c-2 47 16 69 53 69s58 -27 57 -69c-9 -273 -9 -588 -9 -852zM301 1023
c-5 -64 -53 -84 -89 -84c-41 0 -80 29 -80 84s42 85 86 85c39 0 86 -30 83 -85z" />
    <glyph glyph-name="k" unicode="k" horiz-adv-x="737" 
d="M662 697c0 -59 -136 -182 -211 -267l-1 43c48 -173 148 -287 208 -386c6 -12 9 -22 9 -32c0 -31 -29 -59 -58 -59c-22 0 -45 11 -56 38c-47 116 -141 293 -186 366l39 -9c-43 -42 -154 -144 -185 -174l24 62c-1 -40 3 -145 4 -207c1 -45 -28 -68 -56 -68
c-27 0 -52 20 -51 62c7 168 8 423 8 688c0 357 -3 744 -24 948c-4 42 26 63 57 63c32 0 63 -21 62 -63c-5 -118 -1 -318 -1 -546c0 -258 -4 -599 1 -846l-20 14c101 88 279 299 321 385c15 30 44 43 66 43c27 0 50 -22 50 -55z" />
    <glyph glyph-name="c" unicode="c" horiz-adv-x="688" 
d="M491 525c1 110 -39 166 -122 166c-110 0 -174 -156 -174 -314c0 -227 90 -316 180 -316c64 0 106 56 125 125c11 37 30 50 49 50c22 -1 43 -19 41 -50c-11 -123 -105 -207 -232 -207c-131 0 -253 129 -253 388c0 271 125 408 264 410c123 2 223 -85 223 -250
c0 -43 -17 -66 -49 -66c-31 0 -52 20 -52 64z" />
    <glyph glyph-name="q" unicode="q" horiz-adv-x="755" 
d="M398 776c47 0 102 -14 140 -52l-17 -10c3 36 33 60 53 60c31 0 44 -19 43 -90c-2 -82 -2 -174 -2 -268c0 -298 7 -632 7 -880c0 -35 -30 -56 -58 -56c-26 0 -55 20 -50 64c11 86 19 261 19 411c0 34 -2 176 -1 206l15 -17c-53 -106 -102 -166 -202 -166
c-147 0 -259 125 -259 377c0 267 159 421 312 421zM342 64c112 0 156 105 171 170c14 61 7 131 7 195c0 82 -4 156 -4 222c-22 17 -60 39 -124 39c-83 0 -218 -118 -218 -346c0 -166 71 -280 168 -280z" />
    <glyph glyph-name="s" unicode="s" horiz-adv-x="664" 
d="M132 569c0 108 81 202 219 202c107 0 203 -70 203 -184c8 -54 -20 -80 -54 -80c-25 0 -46 29 -44 74c2 53 -19 116 -115 116c-72 0 -117 -54 -117 -116c0 -183 350 -161 350 -391c0 -123 -86 -213 -243 -213c-132 0 -238 87 -230 207c3 50 28 69 57 69
c25 0 45 -16 41 -83c-4 -66 59 -118 139 -118c88 0 144 50 144 131c0 175 -350 154 -350 386z" />
    <glyph glyph-name="n" unicode="n" horiz-adv-x="754" 
d="M235 74c2 -44 -9 -72 -55 -72c-26 0 -52 25 -49 66c7 85 11 213 11 339c0 102 -2 202 -7 284c-2 41 17 67 56 67c41 0 49 -28 45 -70c-4 -27 -2 -85 -5 -114l-10 5c55 124 154 182 227 182c100 0 186 -73 186 -276c0 -75 -2 -150 -2 -216c0 -65 2 -130 7 -200
c3 -45 -28 -67 -56 -67c-27 0 -54 21 -50 62c10 86 15 223 15 337c0 32 -4 69 -5 96c-4 110 -35 174 -110 174c-89 0 -180 -111 -203 -225c-1 -37 -1 -74 -1 -107c0 -91 0 -172 6 -265z" />
    <glyph glyph-name="m" unicode="m" horiz-adv-x="1084" 
d="M239 66c1 -43 -32 -66 -60 -66c-24 0 -46 20 -45 62c3 161 9 262 9 383c0 69 -3 137 -8 233c-2 41 24 69 53 69c28 0 60 -27 56 -69c-3 -26 -5 -91 -8 -117l-13 11c55 124 140 182 212 182c98 0 153 -82 166 -193l-20 22c60 120 132 171 212 171c93 0 172 -74 172 -277
v-122c0 -98 1 -188 9 -289c3 -43 -26 -66 -54 -66c-27 0 -59 20 -55 62c6 78 11 200 11 307c0 45 2 82 1 117c-2 117 -38 175 -98 175c-97 0 -155 -104 -169 -229c0 -77 -2 -225 7 -366c2 -43 -30 -66 -58 -66c-26 0 -55 20 -51 62c8 80 12 207 12 317c0 41 0 82 -2 115
c-2 110 -41 167 -101 167c-101 0 -162 -119 -184 -233c-1 -31 -1 -55 -1 -83c0 -87 3 -165 7 -279z" />
    <glyph glyph-name="a" unicode="a" horiz-adv-x="690" 
d="M509 129c-34 -60 -126 -151 -232 -151c-111 0 -199 79 -199 197c0 172 152 262 295 262c54 0 113 -15 138 -26c0 -15 6 -67 6 -83c-18 11 -75 27 -144 27c-102 0 -200 -59 -200 -170c0 -76 50 -123 123 -123c115 0 200 135 207 187c0 -14 6 -105 6 -120zM490 374v151
c0 118 -56 176 -124 176c-72 0 -134 -55 -143 -141c4 -43 -23 -57 -48 -57c-33 0 -53 25 -52 72c3 97 118 203 246 203c105 0 206 -68 206 -262c0 -126 -1 -223 -1 -347c0 -92 29 -113 29 -146c0 -25 -24 -44 -49 -44c-51 0 -60 44 -60 91c0 13 -6 104 -4 304z" />
    <glyph glyph-name="e" unicode="e" horiz-adv-x="691" 
d="M150 345v87c37 -1 106 -7 167 -7c48 0 206 4 249 14l-48 -29c5 131 -19 287 -151 287c-147 0 -190 -211 -191 -329c-2 -206 71 -312 197 -312c68 0 104 37 127 86c16 36 32 56 62 56c22 0 40 -15 39 -42c-2 -92 -106 -180 -244 -180c-140 0 -271 132 -271 347
c0 303 135 452 276 452c217 0 246 -188 249 -350c1 -59 -13 -74 -75 -74c-114 0 -313 -5 -386 -6z" />
    <glyph glyph-name="h" unicode="h" horiz-adv-x="762" 
d="M243 66c3 -43 -23 -66 -59 -66c-30 0 -51 20 -51 62c5 474 14 799 14 1110c0 207 -3 300 -11 532c-3 42 30 63 59 63s53 -21 52 -63c-8 -184 -19 -741 -22 -1154l-21 -4c51 124 129 226 250 226c94 0 185 -73 185 -276v-162c0 -86 0 -180 8 -268c3 -43 -31 -66 -57 -66
c-32 0 -57 20 -53 62c10 103 11 185 11 265c0 60 -4 115 -5 168c-2 109 -31 184 -99 184c-107 0 -194 -140 -214 -263c2 -147 6 -265 13 -350z" />
    <glyph glyph-name="d" unicode="d" horiz-adv-x="741" 
d="M391 776c54 0 107 -13 146 -44l-28 -20c-3 365 -7 815 -14 981c-2 43 26 63 57 63c29 0 60 -20 56 -63c-11 -133 -14 -347 -14 -583c0 -380 10 -698 21 -941c0 -92 29 -119 29 -142c0 -25 -20 -42 -42 -42c-17 0 -36 8 -49 31c-11 17 -21 80 -14 147l13 -5
c-47 -133 -135 -180 -214 -180c-146 0 -259 125 -259 377c0 267 159 421 312 421zM346 65c107 0 153 103 167 168c4 109 1 304 1 418c-30 19 -58 37 -123 37c-102 0 -216 -109 -216 -323c0 -176 59 -300 171 -300z" />
    <glyph glyph-name="z" unicode="z" horiz-adv-x="620" 
d="M559 690c-6 -17 -26 -49 -49 -90c-82 -144 -254 -409 -334 -549l-6 31h107c72 0 146 10 214 18c39 6 69 -13 69 -45c0 -25 -17 -61 -75 -57c-31 2 -64 2 -97 2c-78 0 -160 -3 -219 -4c-54 -2 -80 28 -80 58c0 15 3 32 12 49c71 119 278 417 362 591l25 -33h-92
c-70 0 -160 -6 -206 -10c-52 -4 -75 22 -75 49c0 28 27 58 75 54c49 -4 109 -8 164 -8c51 0 98 1 127 6c47 7 91 -16 78 -62z" />
    <glyph glyph-name="p" unicode="p" horiz-adv-x="751" 
d="M233 438c-1 -123 -6 -264 5 -394l-21 28c78 -28 375 86 375 442c0 115 -55 176 -123 176c-127 0 -223 -146 -236 -252zM133 679c-2 44 22 73 57 73c27 0 50 -21 47 -69c-2 -24 -8 -83 -5 -135l-21 20c51 132 164 209 273 209c129 0 200 -96 200 -260
c0 -362 -289 -528 -449 -538c-2 -45 -3 -89 -3 -131c0 -146 13 -267 15 -311c1 -34 -34 -54 -63 -54c-26 0 -53 18 -51 62c5 65 11 248 11 544c0 174 -2 376 -11 590z" />
    <glyph glyph-name="u" unicode="u" horiz-adv-x="756" 
d="M621 169c0 -92 33 -104 33 -141c0 -25 -18 -48 -47 -48c-28 0 -43 13 -56 36c-11 17 -23 85 -12 150l17 -5c-62 -130 -123 -183 -218 -183c-119 0 -216 72 -216 275c0 146 -3 290 -2 427c1 44 29 66 56 66c28 0 57 -20 51 -60c-13 -113 -14 -323 -14 -442
c0 -111 43 -178 133 -178c107 0 177 123 187 238c5 157 3 233 1 376c-3 44 29 67 58 67c25 0 52 -21 47 -61c-15 -156 -18 -331 -18 -517z" />
    <glyph glyph-name="x" unicode="x" horiz-adv-x="688" 
d="M349 317l13 2c-50 -89 -132 -232 -175 -299c-14 -22 -31 -31 -47 -31c-24 0 -51 22 -51 50c0 13 5 28 17 44c54 72 119 140 198 308l6 -37c-43 58 -102 166 -184 293c-14 22 -19 42 -19 58c0 32 26 51 52 51c28 0 44 -14 57 -46c56 -135 109 -217 157 -296l-21 4
c25 42 101 163 146 311c9 25 31 35 49 35c48 0 60 -54 35 -99c-51 -97 -130 -220 -176 -320l-4 33c69 -128 131 -208 180 -299c11 -12 11 -24 11 -35c0 -29 -25 -50 -52 -50c-23 0 -44 11 -56 37c-64 159 -101 221 -136 286z" />
    <glyph glyph-name="r" unicode="r" horiz-adv-x="531" 
d="M489 659c-79 -14 -234 -178 -249 -326c-3 -31 -4 -48 -4 -74c0 -63 3 -135 8 -201c3 -44 -28 -67 -58 -67c-26 0 -53 21 -49 62c7 85 11 227 11 353c0 102 -3 205 -7 286c-2 41 29 62 55 62s54 -20 51 -62c-3 -41 -14 -114 -25 -278l-8 34c57 176 199 323 278 323
c36 0 51 -23 51 -50c0 -24 -11 -55 -54 -62z" />
    <glyph glyph-name="t" unicode="t" horiz-adv-x="538" 
d="M145 238v710c0 46 27 69 54 69s53 -23 48 -69c-13 -137 -12 -276 -12 -408c0 -100 3 -195 6 -283c2 -151 49 -195 105 -195c40 0 66 31 76 62c6 39 29 50 51 50c20 0 38 -19 38 -43c0 -81 -88 -153 -178 -153c-88 0 -188 65 -188 260zM420 742c45 1 68 -18 68 -50
c0 -22 -21 -47 -62 -45c-45 2 -103 2 -134 2c-68 0 -113 -6 -191 -10c-44 -2 -64 25 -64 50c0 24 21 47 64 47c51 0 90 -4 131 -4c107 0 139 9 188 10z" />
    <glyph glyph-name="g" unicode="g" horiz-adv-x="680" 
d="M350 777c161 3 270 -98 270 -280c0 -133 -95 -260 -275 -260c-141 0 -267 82 -267 248c0 190 131 290 272 292zM346 313c129 0 188 90 188 201c0 115 -79 180 -185 180c-124 0 -181 -109 -181 -195c0 -121 68 -186 178 -186zM498 697l-65 25c-16 109 89 297 211 297
c27 0 49 -11 49 -49c0 -21 -15 -37 -44 -51c-85 -18 -166 -102 -151 -222zM184 -239c0 -102 57 -171 195 -171c127 0 177 75 177 182c0 113 -68 179 -130 180c-65 1 -147 -4 -213 4c-83 5 -127 69 -127 147c0 84 53 157 113 197l44 -29c-5 -5 -68 -100 -68 -167
c0 -44 35 -65 93 -65c74 -4 70 2 160 -3c81 -4 217 -84 217 -260c0 -160 -98 -267 -293 -267c-150 0 -258 81 -258 229c0 134 85 249 154 249c73 0 88 -28 35 -28c-27 0 -99 -66 -99 -198z" />
    <glyph glyph-name="v" unicode="v" horiz-adv-x="647" 
d="M382 30c-6 -21 -30 -34 -52 -34c-17 0 -43 8 -49 28c-73 220 -127 431 -218 626c-8 19 -13 37 -13 52c0 37 22 58 49 58c23 0 54 -17 66 -57c67 -221 146 -537 182 -630h-26c53 198 110 321 176 629c8 35 27 56 58 56c27 0 49 -16 49 -53c0 -14 -5 -35 -12 -53
c-74 -187 -153 -424 -210 -622z" />
    <glyph glyph-name="w" unicode="w" horiz-adv-x="977" 
d="M478 703h35c-34 -141 -103 -436 -169 -661c-8 -23 -33 -41 -55 -41c-18 0 -38 10 -45 34c-68 234 -114 420 -190 617c-7 20 -10 37 -10 52c0 38 21 57 46 57c23 0 52 -18 62 -56c57 -203 118 -533 170 -644h-40l151 632c10 39 35 67 69 67c37 0 58 -21 68 -71
c39 -204 102 -508 146 -623h-44c44 163 94 355 157 638c8 40 36 57 57 57c24 0 47 -21 47 -53c0 -11 -2 -22 -7 -36c-44 -109 -162 -538 -186 -631c-7 -28 -31 -41 -51 -41c-21 0 -42 13 -48 35c-56 215 -117 501 -163 668z" />
    <glyph glyph-name="y" unicode="y" horiz-adv-x="681" 
d="M338 -20l-10 -69c-69 225 -153 540 -240 736c-9 19 -12 35 -12 51c0 37 22 59 47 59c35 0 51 -17 63 -57c67 -223 152 -558 185 -682l-22 -2c60 219 138 531 167 678c7 39 27 62 61 62c26 0 50 -16 50 -56c0 -10 -2 -24 -7 -36c-93 -263 -216 -791 -331 -1145
c-15 -42 -29 -60 -66 -60c-25 0 -52 20 -52 50c0 16 4 32 16 53c38 64 94 221 151 418z" />
    <glyph glyph-name="bracketleft" unicode="[" horiz-adv-x="664" 
d="M209 1873c31 -6 63 -7 97 -7c59 0 114 6 150 9c48 5 75 -26 75 -55c0 -28 -22 -54 -75 -50c-45 4 -77 8 -119 8c-19 0 -84 -2 -110 -4l43 52c-1 -310 -4 -1256 -8 -1998l-29 33c60 -2 133 4 226 14c47 5 74 -26 74 -55c0 -27 -23 -52 -74 -49c-43 2 -94 6 -150 6
c-26 0 -52 -1 -80 -3c-32 -2 -69 11 -67 60c12 243 19 696 19 1121c0 347 -7 677 -27 856c-5 47 29 66 55 62z" />
    <glyph glyph-name="exclam" unicode="!" horiz-adv-x="496" 
d="M296 386c4 -43 -25 -66 -51 -66s-48 19 -47 61c5 111 5 232 5 360c0 331 -3 695 -22 950c-4 52 32 77 64 77s65 -26 61 -77c-13 -176 -18 -476 -18 -758c0 -212 0 -461 8 -547zM329 61c0 -65 -55 -85 -96 -85c-39 0 -83 28 -83 85c0 56 47 85 90 85c41 0 89 -26 89 -85z
" />
    <glyph glyph-name="question" unicode="?" horiz-adv-x="879" 
d="M218 503c0 414 439 519 439 931c0 168 -83 260 -211 260c-115 0 -205 -113 -205 -236c0 -76 41 -84 41 -154c0 -34 -26 -57 -53 -57c-70 0 -92 86 -92 197c0 174 130 342 314 342c168 0 291 -122 291 -346c0 -460 -433 -568 -433 -929c0 -91 36 -168 123 -168
c88 0 128 68 128 171c0 25 -10 56 -10 84c0 49 26 70 56 70c51 0 62 -57 62 -98c0 -203 -99 -314 -235 -314c-120 0 -215 100 -215 247zM509 61c0 -65 -55 -85 -96 -85c-39 0 -83 28 -83 85c0 56 47 85 90 85c41 0 89 -26 89 -85z" />
    <glyph glyph-name="ampersand" unicode="&#x26;" horiz-adv-x="1036" 
d="M163 266c0 155 138 310 220 427l-2 -46c-121 207 -233 346 -233 552c0 318 152 468 314 468c165 0 283 -116 283 -410c0 -297 -178 -430 -294 -598l2 49c40 -70 95 -159 129 -219c32 -54 105 -164 135 -208l-26 -4c23 61 30 156 30 212c0 33 -2 64 -6 89
c-5 44 20 68 46 68c24 0 48 -19 49 -60c0 -11 1 -22 1 -32c0 -97 -17 -241 -67 -349l-8 50c51 -77 124 -155 156 -181c19 -16 27 -34 27 -50c0 -27 -21 -49 -47 -49c-18 0 -40 11 -57 39c-21 33 -79 111 -112 157l23 10c-62 -124 -175 -199 -305 -199
c-158 0 -258 111 -258 284zM245 1225c0 -210 93 -314 197 -501l-32 6c114 164 247 263 247 533c0 216 -78 308 -200 308c-97 0 -212 -96 -212 -346zM431 72c109 0 198 68 235 180l3 -55c-35 54 -107 167 -131 205c-40 59 -97 145 -141 217l32 9c-61 -99 -169 -231 -169 -355
c0 -112 54 -201 171 -201z" />
    <glyph glyph-name="parenleft" unicode="(" horiz-adv-x="616" 
d="M470 1781c-113 -128 -275 -382 -275 -986c0 -503 137 -814 244 -911c25 -21 36 -44 36 -63c1 -28 -20 -48 -47 -49c-18 0 -39 8 -58 28c-76 83 -262 452 -262 975c0 647 192 966 265 1054c25 28 49 38 69 37c27 0 45 -23 44 -47c0 -13 -4 -28 -16 -38z" />
    <glyph glyph-name="asterisk" unicode="*" horiz-adv-x="819" 
d="M368 1664c-6 59 24 85 56 85c34 0 68 -28 63 -85c-9 -92 -23 -183 -28 -248l-18 11c72 21 186 77 235 105c17 11 33 15 47 15c35 0 57 -28 57 -57c0 -26 -17 -53 -59 -63c-76 -19 -205 -54 -257 -70l6 32c39 -52 120 -140 168 -191c21 -23 30 -47 30 -66
c0 -31 -22 -53 -49 -53c-20 0 -46 13 -65 44c-47 77 -111 178 -141 219h26c-29 -50 -83 -164 -116 -221c-17 -29 -36 -41 -56 -41c-31 0 -59 29 -59 63c0 19 10 42 35 58c60 48 108 145 130 189l13 -38c-66 45 -178 48 -218 63c-42 15 -59 39 -59 62c0 32 41 73 79 55
c70 -32 155 -80 218 -101l-17 -20c-2 61 -11 176 -21 253z" />
    <glyph glyph-name="at" unicode="@" horiz-adv-x="1249" 
d="M880 626c-11 -42 -61 -224 -61 -343c0 -60 15 -104 58 -104c60 0 180 125 180 421c0 313 -155 415 -368 415c-241 0 -510 -231 -510 -677c0 -305 164 -488 448 -488c170 0 239 49 298 114c24 38 51 91 95 82c28 -6 42 -31 34 -59c-23 -77 -142 -219 -427 -219
s-539 169 -539 567c0 479 299 768 612 768c216 0 450 -126 450 -487c0 -281 -127 -516 -296 -516c-59 0 -112 39 -112 169c0 16 15 184 17 205l13 -18c-59 -204 -136 -363 -269 -363c-84 0 -173 85 -173 245c0 313 212 442 347 442c41 0 127 -29 151 -89l-39 3
c9 40 44 54 62 54c22 0 44 -18 44 -55c0 -17 -8 -37 -15 -67zM514 183c108 0 209 258 263 499l3 -61c-12 47 -57 66 -111 66c-140 0 -249 -145 -249 -338c0 -112 39 -166 94 -166z" />
    <glyph glyph-name="dollar" unicode="$" horiz-adv-x="908" 
d="M130 1246c0 228 119 379 326 379c148 0 265 -141 265 -341c0 -51 -12 -116 -63 -116c-29 0 -53 27 -45 78c5 33 11 68 11 102c0 97 -45 190 -182 190c-147 0 -216 -138 -216 -287c0 -340 548 -428 548 -800c0 -260 -127 -429 -362 -429c-198 0 -317 169 -317 361
c0 81 27 121 61 121c78 0 47 -95 47 -126c0 -186 93 -274 230 -274c182 0 248 153 248 340c0 335 -551 425 -551 802zM471 -86c2 -44 -29 -67 -55 -67c-27 0 -52 21 -51 61c7 271 22 575 22 884c0 322 8 661 -6 937c-2 42 31 63 61 63s61 -21 56 -63
c-16 -142 -29 -558 -29 -954c0 -382 -4 -756 2 -861z" />
    <glyph glyph-name="cent" unicode="&#xa2;" horiz-adv-x="702" 
d="M522 1006c0 111 -27 181 -136 181c-117 0 -186 -210 -186 -411c0 -288 88 -403 194 -403c93 0 115 54 135 124c11 36 31 50 49 50c23 -1 40 -20 40 -50c0 -106 -98 -207 -244 -207c-151 0 -264 156 -264 476c0 332 142 493 276 496c128 2 232 -85 232 -250
c0 -44 -22 -64 -46 -66s-50 16 -50 60zM423 129c3 -44 -24 -66 -50 -66c-24 0 -48 20 -47 61c10 274 18 489 18 730c0 172 -2 358 -19 589c-3 42 26 62 53 62c29 0 56 -20 54 -62c-15 -234 -18 -517 -18 -767c0 -234 4 -439 9 -547z" />
    <glyph glyph-name="braceleft" unicode="{" horiz-adv-x="699" 
d="M269 94v77c0 353 -17 404 -114 404c-45 -7 -77 27 -77 60c0 31 28 64 96 64c98 21 109 226 109 799c0 278 92 379 243 379c42 0 65 -24 65 -48c0 -26 -24 -51 -72 -51c-87 0 -147 -51 -147 -349c0 -289 36 -794 -183 -793v8c186 7 166 -218 166 -552
c0 -128 30 -239 168 -239c35 0 55 -21 55 -42c0 -25 -25 -50 -80 -50c-100 0 -233 65 -229 333z" />
    <glyph glyph-name="ae" unicode="&#xe6;" horiz-adv-x="1071" 
d="M277 -22c-122 0 -210 76 -210 194c0 172 141 267 306 267c38 0 107 -1 134 -5l-27 -29v120c0 153 -60 174 -135 174c-61 0 -125 -44 -126 -129c-1 -42 -22 -62 -48 -59s-49 24 -48 64c3 104 106 203 233 203c97 0 189 -36 197 -176h-22c22 91 110 176 218 176
c218 0 238 -202 238 -351c0 -59 -22 -73 -66 -73h-90c-94 0 -226 6 -289 5v70c27 -1 113 2 177 2c47 0 160 7 220 9l-44 -29c16 125 -2 279 -146 279c-155 0 -187 -208 -187 -324c0 -202 88 -302 184 -302c64 0 105 37 126 85c18 37 35 53 54 53c21 0 46 -24 37 -55
c-26 -93 -106 -168 -231 -168c-100 0 -183 84 -223 200l28 13c-45 -151 -158 -214 -260 -214zM478 247l3 143l23 -34c-23 7 -73 13 -102 13c-113 0 -238 -49 -238 -183c0 -77 41 -133 125 -133c113 0 177 129 189 194z" />
    <glyph glyph-name="oe" unicode="&#x153;" horiz-adv-x="1144" 
d="M620 357c0 -202 68 -294 189 -294c70 0 102 37 125 85c19 37 37 53 56 53c20 0 35 -21 34 -53c-11 -103 -107 -170 -213 -170c-132 0 -198 66 -255 200l33 13c-53 -151 -157 -211 -259 -211c-144 0 -259 132 -259 376c0 278 137 419 284 421c97 2 189 -64 237 -214
l-18 -6c30 122 119 220 227 220c228 0 249 -202 249 -351c0 -59 -48 -73 -92 -73h-64c-97 0 -235 -1 -300 -2v89c27 -1 113 -10 177 -10c49 0 168 3 231 16l-33 -36c8 118 -20 273 -168 273c-150 0 -181 -210 -181 -326zM338 68c141 0 186 137 186 323
c0 193 -63 293 -169 293c-131 0 -193 -157 -193 -318c0 -163 64 -298 176 -298z" />
    <glyph glyph-name="sterling" unicode="&#xa3;" horiz-adv-x="998" 
d="M189 4c-47 -13 -77 21 -77 57c0 28 21 57 72 57c72 0 93 120 93 333c0 131 -8 190 -18 385c-3 58 -4 111 -4 162c0 552 174 671 334 671c128 0 229 -84 229 -250c0 -11 0 -23 -1 -34c-2 -41 -33 -63 -61 -63s-54 22 -46 72c4 20 7 39 7 57c0 89 -66 119 -121 119
c-120 0 -245 -114 -245 -543c0 -52 2 -110 5 -172c10 -171 13 -246 13 -401c0 -183 -5 -353 -129 -382l-34 -3c65 36 157 61 222 61c33 0 65 -6 93 -12c42 -13 80 -19 113 -19c80 0 133 29 143 74c7 32 30 48 55 48c22 0 43 -19 43 -68c0 -57 -54 -149 -214 -150
c-83 -1 -152 33 -263 33c-56 0 -124 -8 -209 -32zM555 719c45 2 67 -21 67 -46c0 -21 -20 -60 -61 -58c-50 2 -87 4 -120 4c-74 0 -121 -3 -205 -6c-44 -1 -65 22 -65 47c0 24 22 52 65 50c63 -5 96 -5 140 -5c40 0 89 9 179 14z" />
    <glyph glyph-name="percent" unicode="%" horiz-adv-x="1099" 
d="M312 1708c128 2 202 -129 202 -356c0 -172 -79 -344 -214 -344c-119 0 -194 121 -194 332c0 235 87 366 206 368zM305 1091c79 0 128 107 128 276c0 156 -54 246 -123 246c-76 0 -117 -130 -117 -261c0 -185 45 -261 112 -261zM264 28c-12 -34 -36 -48 -57 -48
c-33 0 -60 31 -41 77c153 367 507 1301 594 1646c7 32 35 49 57 49c37 0 74 -42 49 -88c-72 -137 -459 -1215 -602 -1636zM744 718c127 2 201 -128 201 -356c0 -171 -79 -344 -214 -344c-119 0 -194 121 -194 333c0 235 87 365 207 367zM736 102c79 0 128 107 128 275
c0 157 -54 246 -122 246c-77 0 -118 -129 -118 -261c0 -185 45 -260 112 -260z" />
    <glyph glyph-name="degree" unicode="&#xb0;" horiz-adv-x="573" 
d="M289 1778c128 2 216 -74 216 -312c0 -188 -93 -308 -232 -308c-120 0 -206 87 -206 293c0 236 111 325 222 327zM279 1235c87 0 141 82 141 230c0 196 -58 231 -134 231c-85 0 -134 -97 -134 -239c0 -163 53 -222 127 -222z" />
    <glyph glyph-name="emdash" unicode="&#x2014;" horiz-adv-x="1238" 
d="M1053 467c44 3 66 -22 66 -46c0 -22 -20 -44 -61 -42c-66 4 -158 5 -272 5c-159 0 -364 -4 -602 -10c-45 -1 -65 25 -65 49c0 27 21 51 65 48c74 -6 230 -11 440 -11c125 0 271 2 429 7z" />
    <glyph glyph-name="endash" unicode="&#x2013;" horiz-adv-x="913" 
d="M728 470c45 2 66 -21 66 -47c0 -23 -20 -47 -63 -46c-80 2 -160 4 -249 4c-90 0 -187 -2 -298 -4c-45 -1 -65 23 -65 47c0 26 21 50 65 47c67 -6 161 -8 272 -8c83 0 175 2 272 7z" />
    <glyph glyph-name="numbersign" unicode="#" horiz-adv-x="884" 
d="M745 1140c43 2 66 -27 67 -54c2 -28 -17 -54 -59 -50c-29 2 -80 8 -107 9l26 20c-12 -98 -56 -446 -68 -544l-14 41c26 1 71 2 98 5c43 2 66 -26 67 -53c2 -28 -17 -54 -60 -50c-32 2 -90 6 -123 8l31 35c-16 -147 -38 -360 -49 -467c-4 -39 -28 -58 -53 -58
c-29 0 -58 26 -50 70c16 97 49 313 68 457l22 -35c-23 1 -72 1 -95 1c-50 0 -126 -2 -183 -5l28 34c-17 -142 -40 -360 -51 -464c-5 -39 -28 -58 -53 -58c-29 0 -56 26 -50 70c17 96 50 311 70 455l15 -40s-56 -2 -73 -3c-44 -2 -66 23 -68 51s19 56 62 53
c21 -3 67 -5 95 -6l-28 -31c14 99 58 432 71 535l21 -24s-73 -6 -97 -6c-44 0 -66 23 -68 52c-1 27 19 56 62 53c25 -2 78 -6 112 -7l-27 -37c30 221 44 356 47 486c0 37 24 54 51 54c33 0 61 -28 54 -74c-18 -115 -43 -245 -72 -469l-21 40c33 -1 93 -2 129 -2
c40 0 108 1 153 2l-26 -22c24 224 39 341 42 471c1 37 26 54 51 54c34 0 55 -28 47 -74c-17 -113 -34 -243 -63 -466l-15 38zM415 560c35 0 99 1 138 2l-29 -40c14 100 58 450 70 552l19 -28c-29 1 -81 2 -109 2c-47 0 -115 -2 -167 -4l24 26c-12 -98 -56 -446 -68 -543
l-22 35c36 -1 102 -2 144 -2z" />
    <glyph glyph-name="quotedbl" unicode="&#x22;" horiz-adv-x="579" 
d="M191 1195c0 -42 -18 -56 -39 -59c-23 -2 -40 17 -40 62c0 222 -19 425 -27 533c-5 58 26 88 62 88s67 -30 61 -88c-8 -106 -17 -486 -17 -536zM462 1195c0 -42 -18 -56 -41 -59c-21 -2 -40 17 -40 62c0 24 2 51 2 81c0 118 -9 276 -16 452c-2 58 20 88 56 88
c42 0 63 -31 57 -88c-15 -175 -18 -363 -18 -536z" />
    <glyph glyph-name="quotesingle" unicode="'" horiz-adv-x="303" 
d="M191 1210c0 -41 -20 -56 -40 -58c-22 -1 -41 17 -41 62c0 219 -4 421 -12 527c-4 58 20 88 54 88s59 -30 53 -88c-9 -104 -14 -481 -14 -531z" />
    <glyph glyph-name="parenright" unicode=")" horiz-adv-x="599" 
d="M159 -150c110 129 242 361 242 1014c0 465 -128 794 -234 888c-26 22 -36 44 -37 63c-1 28 21 49 48 50c18 1 38 -8 57 -28c77 -85 256 -446 256 -975c0 -640 -163 -970 -234 -1057c-24 -29 -48 -41 -67 -41c-27 0 -47 22 -47 49c0 13 5 25 16 37z" />
    <glyph glyph-name="hyphen" unicode="-" horiz-adv-x="622" 
d="M438 491c43 4 65 -25 65 -52s-21 -54 -63 -52c-40 2 -88 7 -142 7c-36 0 -75 -3 -115 -7c-43 -6 -64 23 -64 52c0 28 21 58 64 53c33 -5 76 -8 127 -8c39 0 82 2 128 7z" />
    <glyph glyph-name="plus" unicode="+" horiz-adv-x="891" 
d="M392 723c-2 43 26 65 54 65c27 0 54 -21 50 -63c-8 -63 -11 -182 -12 -249l-15 19c72 0 167 3 249 8c43 2 65 -27 65 -54c0 -28 -21 -54 -63 -50c-75 7 -157 12 -260 12l24 20c0 -58 7 -186 12 -253c3 -45 -24 -64 -52 -64s-56 20 -53 64c4 49 10 187 9 263l16 -30
c-71 -1 -160 -6 -244 -12c-44 -3 -64 23 -64 52c0 27 21 56 64 53c58 -6 154 -8 246 -9l-18 -17c-1 62 -4 178 -8 245z" />
    <glyph glyph-name="equal" unicode="=" horiz-adv-x="945" 
d="M772 373c43 2 65 -24 65 -49c0 -24 -21 -47 -63 -44c-69 5 -184 9 -307 9c-101 0 -207 -4 -294 -9c-45 -3 -65 22 -65 46c0 26 21 51 65 48c74 -6 177 -8 299 -8c92 0 194 1 300 7zM772 589c43 2 65 -25 65 -49c0 -25 -21 -49 -63 -44c-31 4 -144 9 -265 9
c-129 0 -268 -3 -336 -9c-45 -3 -65 21 -65 46s21 51 65 48c74 -6 177 -9 299 -9c92 0 194 2 300 8z" />
    <glyph glyph-name="bracketright" unicode="]" horiz-adv-x="669" 
d="M473 1874c26 3 63 -16 57 -63c-20 -179 -26 -511 -26 -861c0 -428 6 -883 18 -1126c3 -49 -35 -65 -67 -61c-54 8 -106 10 -151 10c-28 0 -54 -1 -78 -2c-52 -3 -75 22 -75 49c0 29 28 59 75 55c93 -10 172 -17 233 -15l-43 -30c0 125 -2 336 -2 444c0 689 6 1245 7 1540
l25 -42c-29 3 -79 5 -102 5c-40 0 -74 -3 -116 -7c-53 -4 -75 21 -75 49c0 30 28 61 75 56c35 -3 86 -8 140 -8c35 0 72 2 105 7z" />
    <glyph glyph-name="braceright" unicode="}" horiz-adv-x="694" 
d="M400 94c4 -268 -129 -333 -229 -333c-55 0 -80 25 -80 50c0 21 20 42 55 42c138 0 168 111 168 239c0 334 -20 549 166 552v-8c-228 -24 -183 504 -183 793c0 298 -60 349 -147 349c-48 0 -72 25 -72 51c0 24 23 48 65 48c151 0 243 -101 243 -379
c0 -573 11 -778 109 -799c68 0 96 -33 96 -64c0 -33 -32 -67 -77 -60c-97 0 -114 -51 -114 -404v-77z" />
    <glyph glyph-name="bar" unicode="|" horiz-adv-x="399" 
d="M164 -154c7 228 10 549 10 913c0 352 -2 727 -15 1042c-3 51 24 74 54 74c31 0 59 -26 57 -74c-11 -316 -15 -517 -15 -932c0 -442 5 -878 12 -1023c2 -44 -26 -65 -51 -65c-26 0 -53 21 -52 65z" />
    <glyph glyph-name="period" unicode="." horiz-adv-x="461" 
d="M318 54c0 -65 -55 -85 -96 -85c-39 0 -83 28 -83 85c0 56 47 85 90 85c41 0 89 -26 89 -85z" />
    <glyph glyph-name="asciitilde" unicode="~" horiz-adv-x="992" 
d="M662 392c71 -5 111 42 127 91c15 41 41 59 65 59c22 0 43 -28 43 -57c0 -13 -4 -28 -13 -45c-32 -68 -109 -150 -233 -139c-160 14 -180 187 -332 201c-74 6 -121 -43 -134 -92c-11 -44 -40 -64 -64 -64s-45 18 -45 49c0 13 3 39 13 58c33 67 120 148 244 137
c161 -15 197 -185 329 -198z" />
    <glyph glyph-name="comma" unicode="," horiz-adv-x="461" 
d="M245 -162c-28 -33 -51 -56 -73 -49c-11 3 -23 13 -23 32c0 10 4 23 19 41c32 38 56 77 57 140c-26 -11 -94 15 -94 70c0 54 38 89 94 89c50 0 96 -49 96 -113c0 -87 -40 -166 -76 -210z" />
    <glyph glyph-name="semicolon" unicode=";" horiz-adv-x="461" 
d="M318 633c0 -65 -55 -85 -96 -85c-39 0 -83 28 -83 85c0 56 47 85 90 85c41 0 89 -26 89 -85zM237 -162c-28 -33 -51 -56 -73 -49c-11 3 -23 13 -23 32c0 10 4 23 19 41c32 38 56 77 57 140c-26 -11 -94 15 -94 70c0 54 38 89 94 89c50 0 96 -49 96 -113
c0 -87 -40 -166 -76 -210z" />
    <glyph glyph-name="colon" unicode=":" horiz-adv-x="461" 
d="M318 639c0 -65 -55 -85 -96 -85c-39 0 -83 28 -83 85c0 56 47 85 90 85c41 0 89 -26 89 -85zM318 61c0 -65 -55 -85 -96 -85c-39 0 -83 28 -83 85c0 56 47 85 90 85c41 0 89 -26 89 -85z" />
    <glyph glyph-name="slash" unicode="/" horiz-adv-x="722" 
d="M177 -130c-11 -34 -36 -49 -55 -49c-23 0 -42 19 -42 48c0 8 2 19 6 30c134 367 400 1478 477 1826c9 41 37 61 61 61c23 0 46 -18 46 -50c0 -11 -2 -24 -8 -40c-121 -324 -354 -1405 -485 -1826z" />
    <glyph glyph-name="backslash" unicode="\" horiz-adv-x="722" 
d="M551 -139c-133 421 -350 1511 -473 1835c-5 16 -6 29 -6 40c0 32 20 50 43 50c24 0 51 -20 59 -61c78 -348 329 -1468 464 -1835c5 -11 7 -22 7 -30c0 -29 -20 -48 -42 -48c-20 0 -41 15 -52 49z" />
    <glyph glyph-name="less" unicode="&#x3c;" horiz-adv-x="951" 
d="M712 56c-217 131 -462 267 -606 334c-35 17 -54 26 -54 59c0 22 18 35 51 49c210 88 476 242 600 333c15 11 30 17 44 17c29 0 61 -18 61 -60c0 -20 -15 -41 -48 -58c-128 -66 -416 -201 -625 -323v73c148 -85 480 -264 631 -326c29 -12 41 -32 41 -50
c0 -34 -25 -60 -58 -60c-11 0 -23 3 -37 12z" />
    <glyph glyph-name="greater" unicode="&#x3e;" horiz-adv-x="951" 
d="M239 847c217 -133 461 -268 606 -335c34 -16 54 -25 54 -58c0 -23 -20 -34 -52 -49c-121 -63 -413 -224 -600 -333c-16 -10 -30 -17 -44 -17c-28 0 -60 11 -60 53c0 19 13 43 47 58c126 54 519 236 625 323v-67c-148 86 -480 265 -630 326c-29 12 -41 32 -41 51
c0 33 23 59 57 59c11 0 23 -3 38 -11z" />
    <glyph glyph-name="underscore" unicode="_" horiz-adv-x="1099" 
d="M-33 -201h1193c44 0 67 -21 67 -42c0 -19 -21 -34 -62 -34h-1198c-44 0 -65 18 -65 39c0 20 22 37 65 37z" />
    <glyph glyph-name="asciicircum" unicode="^" horiz-adv-x="951" 
d="M810 379c9 -19 11 -31 11 -44c0 -22 -27 -39 -50 -39c-17 0 -39 7 -49 31c-39 99 -227 968 -294 1069h48c-75 -123 -228 -944 -274 -1061c-13 -32 -44 -41 -62 -41c-21 0 -41 17 -41 39c0 15 1 30 12 48c70 125 226 937 290 1067c16 33 38 39 56 39c17 0 32 -7 47 -41
c59 -139 236 -906 306 -1067z" />
    <glyph glyph-name="section" unicode="&#xa7;" horiz-adv-x="882" 
d="M119 871c-1 218 151 343 223 344c75 1 120 -54 51 -55c-67 -1 -187 -116 -186 -275c3 -417 531 -374 543 -836c4 -219 -135 -382 -309 -386c-137 -2 -307 106 -302 347c0 59 20 106 73 107c28 0 54 -27 48 -78c-6 -33 -3 -67 -3 -101c3 -103 75 -198 184 -197
c150 3 218 140 217 293c-3 418 -535 380 -539 837zM764 704c0 -217 -157 -351 -234 -352c-43 -1 -96 56 -59 57c71 1 203 117 203 275c1 462 -510 403 -513 845c-2 220 144 374 318 377c137 3 300 -95 294 -345c0 -60 -22 -106 -76 -107c-28 -1 -43 25 -36 76
c4 34 2 70 2 104c-3 102 -75 192 -183 190c-137 -2 -232 -137 -231 -286c2 -394 513 -345 515 -834z" />
    <glyph glyph-name="copyright" unicode="&#xa9;" horiz-adv-x="1307" 
d="M637 -82c-342 0 -549 302 -549 915c0 493 219 888 539 888c368 0 539 -357 544 -877c4 -557 -195 -926 -534 -926zM643 1634c-309 0 -463 -383 -463 -831c0 -608 234 -797 465 -797c220 0 438 214 438 815c0 401 -114 813 -440 813zM797 1068c36 149 -2 308 -142 308
c-139 0 -209 -280 -209 -561c0 -401 74 -556 202 -556c104 0 160 93 150 241c0 46 32 62 49 62c23 -1 46 -25 46 -62c0 -196 -117 -333 -248 -333c-169 0 -293 205 -293 638c0 444 141 658 305 658c182 0 248 -157 236 -390c-3 -54 -29 -70 -52 -70c-33 0 -44 29 -44 65z
" />
    <glyph glyph-name="germandbls" unicode="&#xdf;" horiz-adv-x="922" 
d="M588 1451c0 159 -82 224 -165 224c-127 0 -186 -142 -186 -496c0 -131 4 -413 4 -687c0 -209 1 -329 14 -432c0 -7 1 -13 1 -19c0 -44 -6 -66 -50 -66c-30 0 -52 24 -52 69c0 27 2 75 2 139c0 213 -6 606 -6 1026c0 382 91 554 287 554c103 0 244 -74 244 -314
c0 -254 -226 -305 -226 -472c0 -269 387 -310 387 -676c0 -196 -103 -343 -265 -343c-136 0 -220 107 -220 211c0 62 24 93 57 93c21 0 45 -20 45 -53c0 -12 -3 -25 -3 -36c0 -68 66 -129 129 -129c93 0 164 80 164 244c0 351 -383 354 -383 686c0 212 222 236 222 477z" />
    <glyph glyph-name="registered" unicode="&#xae;" horiz-adv-x="1265" 
d="M637 -102c-353 0 -542 313 -542 926c0 492 220 877 532 877c362 0 538 -357 544 -877c3 -557 -195 -926 -534 -926zM643 1614c-309 0 -461 -383 -461 -831c0 -608 232 -797 463 -797c220 0 432 214 432 815c0 401 -108 813 -434 813zM856 257c15 -35 -6 -75 -41 -75
c-21 0 -43 17 -50 40c-62 215 -104 346 -148 448l40 -28c-25 -19 -100 -81 -159 -99l21 44c-2 -227 19 -332 19 -361c0 -33 -16 -57 -43 -57c-29 0 -55 22 -55 53c0 77 2 154 2 249c0 289 -8 665 -25 904c-1 52 52 49 68 52c51 15 108 23 151 23c144 0 241 -100 241 -321
c0 -153 -82 -332 -190 -455l-7 56c30 -133 116 -315 176 -473zM465 1335l53 65c1 -186 1 -623 6 -800l-39 23c113 59 300 227 300 493c0 177 -57 249 -148 249c-84 0 -144 -12 -172 -30z" />
    <glyph glyph-name="paragraph" unicode="&#xb6;" horiz-adv-x="1285" 
d="M608 840c1 62 4 139 4 225c0 257 -5 551 -9 622c-107 0 -189 -43 -249 -125c-61 -81 -96 -201 -96 -309c0 -159 44 -286 153 -357c52 -35 116 -56 197 -56zM609 -25c8 221 4 234 4 776c-313 6 -448 247 -448 513c0 257 157 516 457 516c32 0 182 -7 269 -7
c56 0 118 1 192 6c45 2 68 -21 68 -46c0 -21 -21 -44 -62 -42c-50 3 -120 3 -167 3l31 39c-6 -206 -6 -855 -6 -1397c0 -340 2 -459 5 -626c1 -46 -26 -68 -57 -68c-30 0 -54 21 -53 62c9 213 19 538 19 1025c0 407 -2 825 -18 997l34 -32l-216 -4l54 38
c-5 -214 -7 -857 -7 -1392v-377c0 -235 -104 -313 -225 -313c-75 0 -182 60 -182 145c0 26 22 45 44 45c17 0 38 -7 50 -28c16 -32 35 -79 97 -79c78 0 110 74 117 246z" />
    <glyph glyph-name="brokenbar" unicode="&#xa6;" horiz-adv-x="400" 
d="M165 1013c6 105 10 234 10 368c0 135 -4 277 -16 411c-6 53 26 83 58 83c30 0 59 -28 54 -83c-12 -175 -18 -315 -18 -437c0 -125 5 -232 15 -342c3 -43 -24 -64 -51 -64s-54 21 -52 64zM165 -152c6 104 10 213 10 347c0 135 -4 277 -16 412c-6 53 26 82 58 82
c30 0 59 -28 54 -82c-12 -176 -18 -316 -18 -437c0 -126 5 -213 15 -322c3 -44 -24 -65 -51 -65s-54 21 -52 65z" />
    <glyph glyph-name="multiply" unicode="&#xd7;" horiz-adv-x="749" 
d="M605 602c-59 -54 -140 -124 -186 -169l3 25c52 -51 144 -133 183 -167c18 -15 24 -31 24 -46c0 -28 -23 -53 -50 -53c-16 0 -32 8 -48 25c-46 54 -129 150 -169 192l36 3c-59 -61 -138 -151 -177 -196c-15 -18 -31 -24 -47 -24c-27 0 -53 23 -53 51c0 15 8 31 26 47
c65 56 144 126 192 171l-3 -25c-48 48 -139 126 -192 169c-17 13 -24 29 -24 44c0 27 24 51 52 51c16 0 33 -8 48 -24c46 -53 129 -145 169 -186l-22 -2c54 53 120 130 168 189c14 17 28 24 44 24c26 0 50 -24 50 -52c0 -15 -7 -33 -24 -47z" />
    <glyph glyph-name="plusminus" unicode="&#xb1;" horiz-adv-x="891" 
d="M718 115c43 2 65 -27 65 -54c0 -28 -21 -54 -63 -50c-80 8 -160 12 -249 12c-90 0 -187 -4 -299 -12c-44 -3 -64 23 -64 52c0 27 21 56 64 53c68 -6 162 -9 273 -9c83 0 176 2 273 8zM392 842c-2 43 26 64 54 64c27 0 54 -20 50 -62c-8 -62 -11 -183 -12 -249l-15 18
c72 0 167 3 249 8c43 2 65 -26 65 -54c0 -27 -21 -53 -63 -50c-75 7 -157 12 -260 12l24 21c0 -58 7 -186 12 -254c3 -44 -24 -64 -52 -64s-56 21 -53 64c4 50 10 187 9 264l16 -31c-71 -1 -160 -7 -244 -12c-44 -3 -64 24 -64 52s21 56 64 53c58 -6 154 -8 246 -9l-18 -16
c-1 62 -4 177 -8 245z" />
    <glyph glyph-name="guilsinglleft" unicode="&#x2039;" horiz-adv-x="635" 
d="M366 41c-53 126 -126 233 -185 277c-20 15 -31 39 -31 63s9 45 30 61c35 28 136 160 185 268c15 35 39 49 59 49c27 0 51 -24 51 -55c0 -16 -6 -35 -23 -53c-56 -61 -186 -217 -186 -265s121 -219 182 -285c15 -16 22 -32 22 -46c0 -30 -28 -51 -54 -51
c-20 0 -39 11 -50 37z" />
    <glyph glyph-name="guilsinglright" unicode="&#x203a;" horiz-adv-x="634" 
d="M269 41c-11 -26 -31 -37 -49 -37c-28 0 -55 21 -55 51c0 14 7 30 22 46c60 66 182 237 182 274c0 78 -131 215 -187 276c-15 18 -22 37 -22 53c0 31 23 55 51 55c20 0 43 -14 59 -49c26 -59 172 -257 185 -268c20 -16 29 -37 29 -61s-10 -48 -31 -63
c-59 -44 -131 -151 -184 -277z" />
    <glyph glyph-name="guillemotright" unicode="&#xbb;" horiz-adv-x="934" 
d="M269 41c-11 -26 -31 -37 -49 -37c-28 0 -55 21 -55 51c0 14 7 30 22 46c60 66 182 237 182 274c0 78 -131 215 -187 276c-15 18 -22 37 -22 53c0 31 23 55 51 55c20 0 43 -14 59 -49c26 -59 172 -257 185 -268c20 -16 29 -37 29 -61s-10 -48 -31 -63
c-59 -44 -131 -151 -184 -277zM568 41c-11 -26 -30 -37 -49 -37c-27 0 -54 21 -54 51c0 14 6 30 22 46c60 66 181 237 181 274c0 78 -130 215 -186 276c-16 18 -23 37 -23 53c0 31 24 55 51 55c21 0 43 -14 59 -49c27 -59 173 -257 185 -268c21 -16 30 -37 30 -61
s-11 -48 -32 -63c-58 -44 -131 -151 -184 -277z" />
    <glyph glyph-name="yen" unicode="&#xa5;" horiz-adv-x="1074" 
d="M504 748l23 -121c-108 267 -277 606 -411 940c-5 12 -7 23 -7 32c0 34 22 55 52 56c33 1 47 -18 62 -72c103 -321 268 -648 350 -823h-24c92 231 233 574 328 803c17 44 27 85 62 85c29 0 48 -15 48 -47c0 -9 0 -20 -5 -30c-153 -347 -314 -699 -400 -949l30 138
c-4 -94 -7 -285 -7 -351c0 -107 14 -213 16 -357c0 -47 -38 -69 -64 -69c-28 0 -57 23 -53 69c10 108 11 243 11 365c0 69 -6 261 -11 331zM858 448c44 2 65 -25 65 -49c0 -25 -20 -47 -63 -44c-69 5 -184 9 -307 9c-101 0 -207 -4 -294 -9c-44 -3 -65 21 -65 46
s22 51 65 48c74 -6 178 -9 300 -9c91 0 193 2 299 8zM858 662c44 3 65 -23 65 -48c0 -24 -20 -50 -63 -44c-31 4 -143 9 -265 9c-129 0 -268 -4 -336 -9c-44 -3 -65 22 -65 46c0 25 22 51 65 48c74 -5 178 -8 300 -8c91 0 193 2 299 6z" />
    <glyph glyph-name="OE" unicode="&#x152;" horiz-adv-x="1425" 
d="M888 1620c33 0 73 -7 131 -7c62 0 130 0 188 9c48 5 76 -27 76 -56c0 -27 -24 -52 -76 -49c-61 3 -195 14 -297 3l19 36c0 -240 -2 -571 -3 -853l-16 29c41 0 169 3 223 9c50 5 70 -15 70 -44c0 -24 -14 -46 -63 -51c-26 -3 -55 -1 -78 -1c-37 0 -120 2 -160 1l24 33
c-1 -255 -1 -554 -1 -616l-26 23c109 0 346 7 430 15c47 6 75 -26 75 -56c0 -26 -24 -52 -75 -48c-40 2 -99 3 -161 3c-108 0 -217 -3 -273 -11c-33 -4 -72 12 -68 61c3 45 21 231 24 363l4 -11c-44 -198 -145 -425 -364 -425c-279 0 -406 312 -406 915
c0 425 161 746 433 746c179 0 295 -127 335 -421l-7 5c2 164 -1 304 -6 336c-5 37 13 62 48 62zM513 1547c-216 0 -338 -343 -338 -678c0 -633 158 -796 319 -796c170 0 336 186 336 808c0 311 -76 666 -317 666z" />
    <glyph glyph-name="AE" unicode="&#xc6;" horiz-adv-x="1265" 
d="M674 1623c32 0 84 -6 182 -6c61 0 131 0 189 9c47 5 75 -25 75 -56c0 -27 -23 -52 -75 -49c-63 4 -195 15 -298 4l18 35c0 -243 -1 -565 -2 -850l-16 29c40 0 169 3 223 9c50 5 70 -15 70 -44c0 -24 -15 -46 -63 -51c-26 -3 -55 -1 -78 -1c-37 0 -121 2 -159 1l23 33
c-1 -255 -1 -561 -1 -623l-27 23c110 0 347 7 430 15c47 6 76 -26 76 -56c0 -26 -24 -52 -76 -48c-40 2 -98 3 -161 3c-107 0 -217 -3 -272 -11c-32 -4 -65 12 -62 61c7 117 -1 310 2 490l22 -31c-57 3 -200 9 -283 9c-41 0 -116 -2 -150 -10l28 27
c-60 -168 -163 -429 -185 -499c-11 -31 -35 -43 -56 -43c-33 0 -66 34 -44 80c95 185 453 1145 585 1486c18 50 54 64 85 64zM675 1532h7c-44 -55 -361 -899 -383 -964l-21 25h403l-14 -24c3 216 14 480 14 692c0 84 -3 205 -6 271z" />
    <glyph glyph-name="guillemotleft" unicode="&#xab;" horiz-adv-x="944" 
d="M366 41c-53 126 -126 233 -185 277c-20 15 -31 39 -31 63s9 45 30 61c35 28 136 160 185 268c15 35 39 49 59 49c27 0 51 -24 51 -55c0 -16 -6 -35 -23 -53c-56 -61 -186 -217 -186 -265s121 -219 182 -285c15 -16 22 -32 22 -46c0 -30 -28 -51 -54 -51
c-20 0 -39 11 -50 37zM675 41c-53 126 -125 233 -184 277c-21 15 -31 39 -31 63s8 45 29 61c35 28 136 160 185 268c16 35 38 49 59 49c27 0 51 -24 51 -55c0 -16 -6 -35 -23 -53c-55 -61 -186 -217 -186 -265s122 -219 183 -285c14 -16 21 -32 21 -46
c0 -30 -27 -51 -54 -51c-19 0 -39 11 -50 37z" />
    <glyph glyph-name="bullet" unicode="&#x2022;" horiz-adv-x="818" 
d="M530 654c0 -91 -71 -121 -129 -121c-54 0 -113 41 -113 121c0 81 66 123 125 123c54 0 117 -37 117 -123z" />
    <glyph glyph-name="Euro" unicode="&#x20ac;" horiz-adv-x="1024" 
d="M772 446c0 45 30 68 58 68c26 0 51 -19 49 -60c-15 -285 -145 -477 -347 -477c-263 0 -387 336 -387 939c0 429 123 754 399 754c201 0 327 -112 327 -465c0 -44 -27 -66 -55 -66c-26 0 -52 19 -52 59c0 285 -66 381 -220 381c-219 0 -295 -342 -295 -682
c0 -633 127 -820 294 -820c143 0 230 128 229 369zM591 673c43 3 65 -23 65 -48c0 -24 -21 -47 -63 -44c-69 5 -155 9 -252 9c-80 0 -166 -4 -253 -9c-44 -3 -64 22 -64 46c0 25 21 51 64 48c75 -6 147 -9 242 -9c71 0 154 2 261 7zM582 944c43 2 65 -25 65 -49
c0 -25 -21 -50 -63 -44c-31 4 -117 8 -212 8c-101 0 -212 -3 -282 -8c-44 -3 -65 21 -65 46s22 51 65 48c75 -6 144 -9 235 -9c70 0 150 2 257 8z" />
    <glyph glyph-name="periodcentered" unicode="&#xb7;" horiz-adv-x="457" 
d="M318 641c0 -65 -55 -85 -96 -85c-39 0 -83 28 -83 85c0 56 47 85 90 85c41 0 89 -26 89 -85z" />
    <glyph glyph-name="exclamdown" unicode="&#xa1;" horiz-adv-x="496" 
d="M341 1490c0 -65 -55 -85 -96 -85c-39 0 -83 28 -83 85c0 56 47 85 90 85c41 0 89 -26 89 -85z" />
    <glyph glyph-name="questiondown" unicode="&#xbf;" horiz-adv-x="879" 
d="M591 1489c0 -65 -55 -85 -96 -85c-39 0 -83 28 -83 85c0 56 47 85 90 85c41 0 89 -26 89 -85z" />
    <glyph glyph-name="Oslash" unicode="&#xd8;" 
d="M293 -103c-11 -34 -31 -49 -50 -49c-22 0 -42 19 -42 47c0 9 2 20 6 30c129 368 432 1450 527 1798c11 41 27 60 52 60c22 0 46 -17 46 -50c0 -10 -2 -23 -7 -39c-122 -324 -401 -1377 -532 -1797zM522 1543c-217 0 -337 -378 -337 -735c0 -590 159 -735 320 -735
c170 0 336 167 336 746c0 347 -79 724 -319 724zM495 -23c-279 0 -406 292 -406 854c0 423 160 800 431 800c286 0 414 -299 416 -800c2 -547 -164 -854 -441 -854z" />
    <glyph glyph-name="Eth" unicode="&#xd0;" horiz-adv-x="1032" 
d="M422 941c43 5 65 -24 65 -51c0 -28 -21 -54 -63 -52c-39 2 -111 6 -184 6c-48 0 -97 -2 -136 -6c-43 -6 -65 22 -65 52c0 28 22 58 65 52c32 -4 97 -7 165 -7c53 0 108 2 153 6zM894 966c0 -563 -312 -969 -682 -969c-39 0 -46 27 -46 66c0 120 -1 1137 -24 1470
c-3 45 18 71 60 76c64 9 112 14 158 14c365 0 534 -245 534 -657zM226 1502l36 52c-5 -50 -11 -246 -11 -440c0 -442 12 -1003 17 -1071l-34 49c253 -19 559 328 559 864c0 439 -213 576 -412 576c-24 0 -109 -2 -155 -30z" />
    <glyph glyph-name="onesuperior" unicode="&#xb9;" horiz-adv-x="524" 
d="M340 751c2 -42 -29 -67 -53 -67c-29 0 -53 20 -51 62c7 99 15 258 15 397c0 163 9 399 8 523l21 -5c-5 -6 -58 -85 -94 -123c-16 -18 -31 -25 -46 -25c-31 0 -52 28 -52 58c0 17 8 33 23 47c84 72 88 75 135 121c18 18 40 27 59 27c24 0 40 -20 39 -64
c-8 -203 -14 -715 -4 -951z" />
    <glyph glyph-name="onehalf" unicode="&#xbd;" horiz-adv-x="1551" 
d="M428 751c2 -42 -29 -67 -53 -67c-29 0 -53 20 -51 62c7 99 15 258 15 397c0 163 9 399 8 523l21 -5c-5 -6 -58 -85 -94 -123c-16 -18 -31 -25 -46 -25c-31 0 -52 28 -52 58c0 17 8 33 23 47c84 72 88 75 135 121c18 18 40 27 59 27c24 0 40 -20 39 -64
c-8 -203 -14 -715 -4 -951zM405 223c-16 -32 -39 -43 -59 -40c-21 2 -38 24 -34 54c2 8 6 18 12 27c199 341 530 1030 658 1361c16 38 44 54 71 49c21 -3 38 -23 33 -56c-1 -11 -6 -23 -13 -36c-172 -301 -470 -966 -668 -1359zM1335 795c0 -248 -357 -505 -357 -673
c0 -35 8 -46 43 -40c56 8 141 25 187 25c32 0 63 -1 77 -4c37 -7 55 -29 55 -52c0 -26 -18 -49 -55 -49c-43 0 -101 3 -173 3c-46 0 -104 0 -160 -9c-48 -7 -78 12 -78 60c0 283 371 493 371 732c0 138 -43 208 -124 208c-88 0 -138 -82 -138 -230c0 -41 -23 -56 -49 -56
c-28 0 -46 22 -46 66c0 203 107 304 227 304c149 0 220 -100 220 -285z" />
    <glyph glyph-name="threequarters" unicode="&#xbe;" horiz-adv-x="1519" 
d="M1318 478v-87l-13 25s58 0 71 1c43 3 65 -22 65 -47c0 -22 -20 -48 -60 -48c-10 0 -69 3 -77 3l15 27c-1 -46 -2 -83 -2 -124c0 -63 8 -120 8 -165s-32 -62 -59 -62c-24 0 -40 20 -40 62c0 46 7 87 7 139c0 47 5 96 3 156l11 -30c-24 2 -71 4 -92 4
c-62 0 -122 -15 -186 -15c-47 0 -66 22 -66 49c0 13 4 28 13 44c44 77 173 387 294 633c12 23 32 45 59 44c33 -2 60 -34 60 -65c0 -102 -11 -336 -11 -544zM1238 412l-7 -18c2 110 8 208 8 309c0 62 6 223 6 276v-21c-61 -161 -208 -472 -241 -567l-2 16c22 -2 67 -2 89 -2
c27 0 110 7 147 7zM558 223c-16 -32 -40 -43 -59 -40c-22 2 -38 24 -34 54c1 8 5 18 11 27c199 341 530 1030 659 1361c16 38 44 54 70 49c22 -3 39 -23 34 -56c-1 -11 -6 -23 -13 -36c-173 -301 -470 -966 -668 -1359zM342 1217c93 35 165 185 165 287
c0 116 -50 191 -142 191c-86 0 -136 -69 -136 -185c0 -41 -27 -58 -48 -58c-28 0 -55 25 -55 70c0 170 120 259 232 259c158 0 236 -106 236 -271c0 -90 -57 -300 -234 -359l2 23c113 8 241 -64 241 -230c0 -160 -109 -269 -247 -269c-147 0 -235 101 -227 217
c3 41 29 63 54 63c29 0 54 -22 50 -67c-7 -71 49 -133 127 -133c115 0 157 93 157 189c0 95 -75 169 -196 147c-40 -8 -63 26 -63 54c0 31 25 62 84 72z" />
    <glyph glyph-name="onequarter" unicode="&#xbc;" horiz-adv-x="1382" 
d="M373 751c2 -42 -29 -67 -53 -67c-29 0 -53 20 -51 62c7 99 15 258 15 397c0 163 9 399 8 523l21 -5c-5 -6 -58 -85 -94 -123c-16 -18 -31 -25 -46 -25c-31 0 -52 28 -52 58c0 17 8 33 23 47c84 72 88 75 135 121c18 18 40 27 59 27c24 0 40 -20 39 -64
c-8 -203 -14 -715 -4 -951zM366 223c-16 -32 -39 -43 -59 -40c-21 2 -38 24 -34 54c2 8 6 18 12 27c199 341 530 1030 658 1361c16 38 44 54 71 49c21 -3 38 -23 33 -56c-1 -11 -6 -23 -13 -36c-172 -301 -470 -966 -668 -1359zM1170 478v-87l-13 25s58 0 70 1
c43 3 65 -22 65 -47c0 -22 -20 -48 -60 -48c-10 0 -68 3 -76 3l14 27c0 -46 -1 -83 -1 -124c0 -63 7 -120 7 -165s-32 -62 -58 -62c-25 0 -41 20 -41 62c0 46 7 87 7 139c0 47 5 96 3 156l11 -30c-24 2 -71 4 -91 4c-63 0 -123 -15 -186 -15c-47 0 -67 22 -67 49
c0 13 5 28 14 44c44 77 172 387 294 633c11 23 31 45 59 44c33 -2 59 -34 59 -65c0 -102 -10 -336 -10 -544zM1089 412l-7 -18c2 110 8 208 8 309c0 62 6 223 6 276v-21c-61 -161 -208 -472 -241 -567l-2 16c23 -2 68 -2 89 -2c28 0 111 7 147 7z" />
    <glyph glyph-name="threesuperior" unicode="&#xb3;" horiz-adv-x="762" 
d="M342 1217c93 35 170 185 170 287c0 116 -55 191 -147 191c-86 0 -136 -69 -136 -185c0 -41 -27 -58 -48 -58c-28 0 -55 25 -55 70c0 170 120 259 232 259c158 0 236 -106 236 -271c0 -90 -57 -300 -234 -359l2 23c113 8 241 -64 241 -230c0 -160 -105 -264 -243 -264
c-147 0 -239 96 -231 212c3 41 29 63 54 63c29 0 54 -22 50 -67c-7 -71 49 -133 127 -133c115 0 157 93 157 189c0 95 -75 169 -196 147c-40 -8 -63 26 -63 54c0 31 25 62 84 72z" />
    <glyph glyph-name="twosuperior" unicode="&#xb2;" horiz-adv-x="693" 
d="M576 1495c0 -280 -356 -515 -356 -684c0 -34 8 -45 43 -39c56 8 140 25 186 25c32 0 64 -1 77 -4c38 -7 55 -29 55 -52c0 -26 -17 -49 -55 -49c-43 0 -101 4 -173 4c-46 0 -103 0 -160 -10c-48 -7 -77 12 -77 60c0 283 371 482 371 743c0 127 -43 197 -124 197
c-88 0 -138 -82 -138 -230c0 -41 -24 -57 -49 -57c-29 0 -47 23 -47 67c0 203 107 304 227 304c149 0 220 -100 220 -275z" />
    <glyph glyph-name="cedilla" unicode="&#xb8;" horiz-adv-x="494" 
d="M326 -320c0 48 -22 83 -57 83c-55 0 -66 -36 -116 -36c-31 0 -61 16 -61 51c0 44 35 103 89 253l69 5c0 -46 -58 -176 -72 -242l-12 6c19 14 79 40 118 38c55 -3 116 -40 114 -155c-2 -109 -113 -226 -208 -226c-30 0 -49 22 -49 45c0 21 17 52 52 57
c56 9 133 55 133 121z" />
    <glyph glyph-name="dieresis" unicode="&#xa8;" horiz-adv-x="658" 
d="M284 988c-4 -60 -49 -80 -87 -80c-36 0 -76 28 -76 80c0 50 43 78 83 78c37 0 84 -28 80 -78zM540 988c-4 -60 -51 -80 -88 -80c-36 0 -76 28 -76 80c0 50 43 78 84 78c37 0 83 -28 80 -78z" />
    <glyph glyph-name="adieresis" unicode="&#xe4;" horiz-adv-x="690" 
d="M509 129c-34 -60 -126 -151 -232 -151c-111 0 -199 79 -199 197c0 172 152 262 295 262c54 0 113 -15 138 -26c0 -15 6 -67 6 -83c-18 11 -75 27 -144 27c-102 0 -200 -59 -200 -170c0 -76 50 -123 123 -123c115 0 200 135 207 187c0 -14 6 -105 6 -120zM490 374v151
c0 118 -56 176 -124 176c-72 0 -134 -55 -143 -141c4 -43 -23 -57 -48 -57c-33 0 -53 25 -52 72c3 97 118 203 246 203c105 0 206 -68 206 -262c0 -126 -1 -223 -1 -347c0 -92 29 -113 29 -146c0 -25 -24 -44 -49 -44c-51 0 -60 44 -60 91c0 13 -6 104 -4 304zM308 988
c-4 -60 -49 -80 -87 -80c-36 0 -76 28 -76 80c0 50 43 78 83 78c37 0 84 -28 80 -78zM564 988c-4 -60 -51 -80 -88 -80c-36 0 -76 28 -76 80c0 50 43 78 84 78c37 0 83 -28 80 -78z" />
    <glyph glyph-name="udieresis" unicode="&#xfc;" horiz-adv-x="756" 
d="M621 169c0 -92 33 -104 33 -141c0 -25 -18 -48 -47 -48c-28 0 -43 13 -56 36c-11 17 -23 85 -12 150l17 -5c-62 -130 -123 -183 -218 -183c-119 0 -216 72 -216 275c0 146 -3 290 -2 427c1 44 29 66 56 66c28 0 57 -20 51 -60c-13 -113 -14 -323 -14 -442
c0 -111 43 -178 133 -178c107 0 177 123 187 238c5 157 3 233 1 376c-3 44 29 67 58 67c25 0 52 -21 47 -61c-15 -156 -18 -331 -18 -517zM335 988c-4 -60 -49 -80 -87 -80c-36 0 -76 28 -76 80c0 50 43 78 83 78c37 0 84 -28 80 -78zM591 988c-4 -60 -51 -80 -88 -80
c-36 0 -76 28 -76 80c0 50 43 78 84 78c37 0 83 -28 80 -78z" />
    <glyph glyph-name="aring" unicode="&#xe5;" horiz-adv-x="690" 
d="M373 1273c103 3 176 -73 176 -207c0 -96 -78 -195 -188 -195c-95 0 -169 67 -169 187c0 142 85 213 181 215zM361 950c65 0 105 59 105 137c0 68 -44 109 -99 109c-62 0 -96 -68 -96 -125c0 -79 38 -121 90 -121zM509 129c-34 -60 -126 -151 -232 -151
c-111 0 -199 79 -199 197c0 172 152 262 295 262c54 0 113 -15 138 -26c0 -15 6 -67 6 -83c-18 11 -75 27 -144 27c-102 0 -200 -59 -200 -170c0 -76 50 -123 123 -123c115 0 200 135 207 187c0 -14 6 -105 6 -120zM490 374v151c0 118 -56 176 -124 176
c-72 0 -134 -55 -143 -141c4 -43 -23 -57 -48 -57c-33 0 -53 25 -52 72c3 97 118 203 246 203c105 0 206 -68 206 -262c0 -126 -1 -223 -1 -347c0 -92 29 -113 29 -146c0 -25 -24 -44 -49 -44c-51 0 -60 44 -60 91c0 13 -6 104 -4 304z" />
    <glyph glyph-name="acute" unicode="&#xb4;" horiz-adv-x="441" 
d="M290 1106c25 35 59 59 90 40c32 -20 21 -55 3 -79c-44 -56 -89 -89 -167 -176c-13 -15 -34 -36 -61 -36c-13 0 -35 14 -35 35c0 14 10 32 30 54c45 48 102 110 140 162z" />
    <glyph glyph-name="aacute" unicode="&#xe1;" horiz-adv-x="690" 
d="M509 129c-34 -60 -126 -151 -232 -151c-111 0 -199 79 -199 197c0 172 152 262 295 262c54 0 113 -15 138 -26c0 -15 6 -67 6 -83c-18 11 -75 27 -144 27c-102 0 -200 -59 -200 -170c0 -76 50 -123 123 -123c115 0 200 135 207 187c0 -14 6 -105 6 -120zM490 374v151
c0 118 -56 176 -124 176c-72 0 -134 -55 -143 -141c4 -43 -23 -57 -48 -57c-33 0 -53 25 -52 72c3 97 118 203 246 203c105 0 206 -68 206 -262c0 -126 -1 -223 -1 -347c0 -92 29 -113 29 -146c0 -25 -24 -44 -49 -44c-51 0 -60 44 -60 91c0 13 -6 104 -4 304zM477 1106
c25 35 59 59 90 40c32 -20 21 -55 3 -79c-44 -56 -89 -89 -167 -176c-13 -15 -34 -36 -61 -36c-13 0 -35 14 -35 35c0 14 10 32 30 54c45 48 102 110 140 162z" />
    <glyph glyph-name="uacute" unicode="&#xfa;" horiz-adv-x="756" 
d="M621 169c0 -92 33 -104 33 -141c0 -25 -18 -48 -47 -48c-28 0 -43 13 -56 36c-11 17 -23 85 -12 150l17 -5c-62 -130 -123 -183 -218 -183c-119 0 -216 72 -216 275c0 146 -3 290 -2 427c1 44 29 66 56 66c28 0 57 -20 51 -60c-13 -113 -14 -323 -14 -442
c0 -111 43 -178 133 -178c107 0 177 123 187 238c5 157 3 233 1 376c-3 44 29 67 58 67c25 0 52 -21 47 -61c-15 -156 -18 -331 -18 -517zM525 1106c25 35 59 59 90 40c32 -20 21 -55 3 -79c-44 -56 -89 -89 -167 -176c-13 -15 -34 -36 -61 -36c-13 0 -35 14 -35 35
c0 14 10 32 30 54c45 48 102 110 140 162z" />
    <glyph glyph-name="grave" unicode="`" horiz-adv-x="467" 
d="M166 1106c38 -52 95 -114 140 -162c19 -22 30 -40 30 -54c0 -21 -22 -35 -35 -35c-28 0 -48 21 -61 36c-78 87 -123 120 -167 176c-18 24 -29 59 2 79c32 19 66 -5 91 -40z" />
    <glyph glyph-name="agrave" unicode="&#xe0;" horiz-adv-x="690" 
d="M509 129c-34 -60 -126 -151 -232 -151c-111 0 -199 79 -199 197c0 172 152 262 295 262c54 0 113 -15 138 -26c0 -15 6 -67 6 -83c-18 11 -75 27 -144 27c-102 0 -200 -59 -200 -170c0 -76 50 -123 123 -123c115 0 200 135 207 187c0 -14 6 -105 6 -120zM490 374v151
c0 118 -56 176 -124 176c-72 0 -134 -55 -143 -141c4 -43 -23 -57 -48 -57c-33 0 -53 25 -52 72c3 97 118 203 246 203c105 0 206 -68 206 -262c0 -126 -1 -223 -1 -347c0 -92 29 -113 29 -146c0 -25 -24 -44 -49 -44c-51 0 -60 44 -60 91c0 13 -6 104 -4 304zM272 1106
c38 -52 95 -114 140 -162c19 -22 30 -40 30 -54c0 -21 -22 -35 -35 -35c-28 0 -48 21 -61 36c-78 87 -123 120 -167 176c-18 24 -29 59 2 79c32 19 66 -5 91 -40z" />
    <glyph glyph-name="ugrave" unicode="&#xf9;" horiz-adv-x="756" 
d="M621 169c0 -92 33 -104 33 -141c0 -25 -18 -48 -47 -48c-28 0 -43 13 -56 36c-11 17 -23 85 -12 150l17 -5c-62 -130 -123 -183 -218 -183c-119 0 -216 72 -216 275c0 146 -3 290 -2 427c1 44 29 66 56 66c28 0 57 -20 51 -60c-13 -113 -14 -323 -14 -442
c0 -111 43 -178 133 -178c107 0 177 123 187 238c5 157 3 233 1 376c-3 44 29 67 58 67c25 0 52 -21 47 -61c-15 -156 -18 -331 -18 -517zM254 1106c38 -52 95 -114 140 -162c19 -22 30 -40 30 -54c0 -21 -22 -35 -35 -35c-28 0 -48 21 -61 36c-78 87 -123 120 -167 176
c-18 24 -29 59 2 79c32 19 66 -5 91 -40z" />
    <glyph glyph-name="ordfeminine" unicode="&#xaa;" horiz-adv-x="707" 
d="M514 1131c-33 -61 -115 -151 -221 -151c-111 0 -200 78 -200 197c0 171 153 261 296 261c54 0 103 -14 127 -26c0 -15 5 -61 5 -75c-16 10 -64 25 -132 25c-102 0 -200 -64 -200 -175c0 -77 50 -132 123 -132c115 0 185 157 191 220c0 -15 11 -129 11 -144zM496 1193v183
v151c0 120 -61 173 -136 173c-60 0 -124 -55 -125 -128c-1 -42 -24 -63 -51 -60c-25 3 -51 25 -50 65c4 107 111 203 238 203c105 0 208 -57 208 -262c0 -126 -1 -223 -1 -349c0 -90 28 -122 28 -145c0 -24 -23 -43 -48 -43c-19 0 -40 10 -52 32c-3 8 -8 30 -8 58
c0 14 -5 105 -3 122z" />
    <glyph glyph-name="ordmasculine" unicode="&#xba;" horiz-adv-x="757" 
d="M375 997c-154 -3 -262 117 -262 399c0 250 116 380 287 380c144 0 249 -115 249 -369c0 -278 -127 -408 -274 -410zM392 1695c-127 0 -187 -130 -187 -323c0 -211 61 -290 170 -290c127 0 182 151 182 315c0 178 -56 298 -165 298z" />
    <glyph glyph-name="divide" unicode="&#xf7;" horiz-adv-x="891" 
d="M718 492c43 2 65 -27 65 -54s-21 -54 -63 -50c-80 8 -160 12 -249 12c-90 0 -187 -4 -299 -12c-44 -3 -64 24 -64 52c0 27 21 56 64 53c68 -6 162 -9 273 -9c83 0 176 2 273 8zM533 715c0 -65 -55 -85 -96 -85c-39 0 -83 28 -83 85c0 56 47 85 90 85c41 0 89 -26 89 -85z
M533 151c0 -65 -55 -85 -96 -85c-39 0 -83 28 -83 85c0 56 47 85 90 85c41 0 89 -26 89 -85z" />
    <glyph glyph-name="logicalnot" unicode="&#xac;" horiz-adv-x="916" 
d="M726 493c44 -1 69 -18 69 -62c0 -36 -11 -64 -11 -95c0 -41 5 -89 12 -136c5 -45 -24 -66 -52 -66s-58 22 -53 66c3 27 9 64 9 111c0 24 -3 81 -7 109l20 -20c-62 1 -163 0 -231 0c-90 0 -187 -4 -299 -12c-44 -3 -64 24 -64 52c0 27 21 56 64 53c68 -6 162 -9 273 -9
c142 0 200 10 270 9z" />
    <glyph glyph-name="tilde" unicode="&#x2dc;" horiz-adv-x="786" 
d="M480 994c19 -1 40 13 50 37c14 33 24 48 49 48c23 0 37 -26 37 -55c0 -62 -65 -130 -131 -130c-79 0 -95 76 -174 78c-26 1 -53 -13 -61 -34c-15 -41 -28 -53 -54 -53c-21 0 -33 26 -33 57c0 62 64 130 138 130c95 0 107 -74 179 -78z" />
    <glyph glyph-name="atilde" unicode="&#xe3;" horiz-adv-x="690" 
d="M509 129c-34 -60 -126 -151 -232 -151c-111 0 -199 79 -199 197c0 172 152 262 295 262c54 0 113 -15 138 -26c0 -15 6 -67 6 -83c-18 11 -75 27 -144 27c-102 0 -200 -59 -200 -170c0 -76 50 -123 123 -123c115 0 200 135 207 187c0 -14 6 -105 6 -120zM490 374v151
c0 118 -56 176 -124 176c-72 0 -134 -55 -143 -141c4 -43 -23 -57 -48 -57c-33 0 -53 25 -52 72c3 97 118 203 246 203c105 0 206 -68 206 -262c0 -126 -1 -223 -1 -347c0 -92 29 -113 29 -146c0 -25 -24 -44 -49 -44c-51 0 -60 44 -60 91c0 13 -6 104 -4 304zM442 994
c19 -1 40 13 50 37c14 33 24 48 49 48c23 0 37 -26 37 -55c0 -62 -65 -130 -131 -130c-79 0 -95 76 -174 78c-26 1 -53 -13 -61 -34c-15 -41 -28 -53 -54 -53c-21 0 -33 26 -33 57c0 62 64 130 138 130c95 0 107 -74 179 -78z" />
    <glyph glyph-name="thorn" unicode="&#xfe;" horiz-adv-x="816" 
d="M278 540l-29 28c52 132 164 209 272 209c130 0 201 -96 201 -260c0 -362 -289 -517 -449 -527c-2 -45 -3 -100 -3 -142c0 -146 7 -261 8 -304c1 -41 -33 -61 -61 -61c-27 0 -55 18 -53 62c29 432 19 551 19 1227c0 275 -7 507 -27 831c-3 58 36 71 59 72
c48 3 58 -34 58 -83c0 -219 -4 -362 -4 -538c0 -139 4 -301 9 -514zM271 426c-1 -123 -4 -237 6 -368l-21 27c78 -27 373 73 373 429c0 115 -55 170 -122 170c-128 0 -223 -153 -236 -258z" />
    <glyph glyph-name="Thorn" unicode="&#xde;" horiz-adv-x="924" 
d="M160 1594c-4 43 29 63 60 63s52 -20 51 -63c-2 -87 -4 -163 -7 -349l-41 15c96 73 179 104 259 104c215 0 360 -121 360 -391c0 -313 -313 -568 -608 -708l-1 98c190 89 517 307 517 601c0 216 -114 306 -264 312c-44 1 -182 -25 -245 -116l28 51
c-7 -160 -6 -338 -6 -488c0 -90 -10 -209 13 -653c1 -45 -28 -67 -56 -67c-26 0 -47 21 -47 62c0 87 7 357 7 498c0 146 -13 937 -20 1031z" />
    <glyph glyph-name="mu" unicode="&#xb5;" horiz-adv-x="850" 
d="M506 166l16 -5c-26 -85 -88 -183 -208 -183c-116 0 -148 85 -151 144l17 -5c-49 -227 -56 -338 -82 -534c-5 -43 -36 -59 -64 -54c-25 5 -45 27 -34 68c20 78 43 189 64 304c46 268 94 505 137 782c6 45 39 61 67 56c26 -5 47 -26 37 -69c-24 -106 -72 -279 -82 -389
c-9 -123 11 -216 103 -216c107 0 151 108 173 197c41 167 77 307 106 420c10 43 36 62 64 58c27 -6 46 -30 36 -70c-41 -148 -100 -301 -133 -487c-12 -73 4 -126 47 -126c65 0 88 47 101 76c12 22 33 34 48 34c22 0 41 -17 41 -43c0 -67 -111 -146 -192 -146
c-62 0 -140 26 -111 188z" />
    <glyph glyph-name="mu" unicode="&#x3bc;" horiz-adv-x="850" 
d="M506 166l16 -5c-26 -85 -88 -183 -208 -183c-116 0 -148 85 -151 144l17 -5c-49 -227 -56 -338 -82 -534c-5 -43 -36 -59 -64 -54c-25 5 -45 27 -34 68c20 78 43 189 64 304c46 268 94 505 137 782c6 45 39 61 67 56c26 -5 47 -26 37 -69c-24 -106 -72 -279 -82 -389
c-9 -123 11 -216 103 -216c107 0 151 108 173 197c41 167 77 307 106 420c10 43 36 62 64 58c27 -6 46 -30 36 -70c-41 -148 -100 -301 -133 -487c-12 -73 4 -126 47 -126c65 0 88 47 101 76c12 22 33 34 48 34c22 0 41 -17 41 -43c0 -67 -111 -146 -192 -146
c-62 0 -140 26 -111 188z" />
    <glyph glyph-name="macron" unicode="&#xaf;" horiz-adv-x="580" 
d="M417 1364c43 4 65 -25 65 -52s-21 -54 -63 -52c-40 2 -88 7 -142 7c-36 0 -75 -3 -115 -7c-43 -6 -64 23 -64 52c0 28 21 58 64 53c33 -5 76 -8 127 -8c39 0 82 2 128 7z" />
    <glyph glyph-name="currency" unicode="&#xa4;" horiz-adv-x="988" 
d="M495 1208c65 1 139 -28 187 -94l-37 12c37 48 67 122 98 171c12 18 28 29 43 31c26 6 45 -20 45 -46c0 -59 -98 -131 -138 -221v41c48 -71 73 -183 73 -303c0 -118 -33 -223 -86 -291l2 38c42 -85 139 -163 139 -216c0 -27 -28 -49 -55 -43c-13 2 -27 12 -40 30
c-21 36 -61 127 -93 174l28 -5c-53 -53 -122 -74 -190 -74c-59 0 -125 26 -170 80l25 -12c-37 -51 -62 -120 -87 -163c-12 -19 -27 -30 -43 -33c-26 -5 -48 20 -48 48c-1 62 101 133 139 217l-2 -39c-48 66 -72 166 -72 277c0 128 31 241 86 315l-4 -35
c-37 84 -139 147 -139 214c0 27 27 54 53 48c15 -2 29 -11 40 -31c27 -48 67 -137 103 -181l-35 7c45 55 117 83 178 84zM478 499c125 0 194 136 194 323c0 193 -70 293 -177 293c-123 0 -188 -158 -188 -318c0 -164 66 -298 171 -298z" />
    <glyph glyph-name="quoteright" unicode="&#x2019;" horiz-adv-x="395" 
d="M216 1542c-22 -32 -45 -48 -63 -44c-11 2 -21 11 -21 28c0 9 4 21 17 36c37 47 35 99 38 116c-23 -9 -73 20 -73 67s29 79 82 79c33 0 85 -25 85 -88c0 -74 -36 -151 -65 -194z" />
    <glyph glyph-name="quotedblright" unicode="&#x201d;" horiz-adv-x="670" 
d="M489 1534c-26 -33 -48 -49 -69 -44c-11 4 -23 8 -23 26c0 11 4 24 19 40c30 37 48 61 49 122c-26 -10 -91 14 -91 67s34 88 88 88c53 0 96 -48 96 -110c0 -85 -33 -146 -69 -189zM228 1534c-26 -33 -48 -49 -68 -44c-12 4 -24 8 -24 26c0 11 4 24 18 40
c31 37 49 61 50 122c-26 -10 -90 14 -90 67s33 88 87 88s95 -48 95 -110c0 -85 -32 -146 -68 -189z" />
    <glyph glyph-name="quotedblleft" unicode="&#x201c;" horiz-adv-x="670" 
d="M181 1783c27 32 48 50 69 45c12 -4 23 -9 23 -27c0 -11 -4 -23 -17 -41c-32 -36 -49 -60 -50 -120c26 9 90 -15 90 -68s-33 -87 -87 -87s-95 48 -95 109c0 86 31 145 67 189zM442 1783c27 32 49 50 69 45c11 -4 24 -9 24 -27c0 -11 -5 -23 -19 -41
c-31 -36 -49 -60 -50 -120c27 9 92 -15 92 -68s-34 -87 -88 -87s-96 48 -96 109c0 86 33 145 68 189z" />
    <glyph glyph-name="quoteleft" unicode="&#x2018;" horiz-adv-x="410" 
d="M181 1783c27 32 48 50 69 45c12 -4 23 -9 23 -27c0 -11 -4 -23 -17 -41c-32 -36 -49 -60 -50 -120c26 9 90 -15 90 -68s-33 -87 -87 -87s-95 48 -95 109c0 86 31 145 67 189z" />
    <glyph glyph-name="quotesinglbase" unicode="&#x201a;" horiz-adv-x="392" 
d="M216 -162c-25 -29 -45 -49 -63 -43c-11 2 -21 11 -21 27c0 9 4 21 17 37c37 47 35 99 38 116c-23 -9 -73 19 -73 67c0 47 29 79 82 79c33 0 83 -25 83 -89c0 -62 -31 -155 -63 -194z" />
    <glyph glyph-name="quotedblbase" unicode="&#x201e;" horiz-adv-x="629" 
d="M216 -162c-25 -29 -45 -49 -63 -43c-11 2 -21 11 -21 27c0 9 4 21 17 37c37 47 35 99 38 116c-23 -9 -73 19 -73 67c0 47 29 79 82 79c33 0 83 -25 83 -89c0 -62 -31 -155 -63 -194zM453 -162c-25 -29 -44 -49 -63 -43c-11 2 -21 11 -21 27c0 9 4 21 17 37
c37 47 35 99 38 116c-23 -9 -73 19 -73 67c0 47 29 79 82 79c33 0 83 -25 83 -89c0 -62 -31 -155 -63 -194z" />
    <glyph glyph-name="circumflex" unicode="&#x2c6;" horiz-adv-x="693" 
d="M539 955c18 -21 34 -33 34 -57c0 -26 -23 -44 -49 -44c-24 0 -46 17 -59 43c-26 53 -49 123 -117 175l27 -2c-58 -54 -93 -126 -119 -173c-18 -31 -38 -43 -64 -43c-21 0 -43 17 -43 45c0 18 14 39 29 54c57 56 93 106 120 154c16 30 39 46 68 46c22 0 45 -18 60 -44
c39 -71 58 -89 113 -154z" />
    <glyph glyph-name="acircumflex" unicode="&#xe2;" horiz-adv-x="690" 
d="M509 129c-34 -60 -126 -151 -232 -151c-111 0 -199 79 -199 197c0 172 152 262 295 262c54 0 113 -15 138 -26c0 -15 6 -67 6 -83c-18 11 -75 27 -144 27c-102 0 -200 -59 -200 -170c0 -76 50 -123 123 -123c115 0 200 135 207 187c0 -14 6 -105 6 -120zM490 374v151
c0 118 -56 176 -124 176c-72 0 -134 -55 -143 -141c4 -43 -23 -57 -48 -57c-33 0 -53 25 -52 72c3 97 118 203 246 203c105 0 206 -68 206 -262c0 -126 -1 -223 -1 -347c0 -92 29 -113 29 -146c0 -25 -24 -44 -49 -44c-51 0 -60 44 -60 91c0 13 -6 104 -4 304zM534 955
c18 -21 34 -33 34 -57c0 -26 -23 -44 -49 -44c-24 0 -46 17 -59 43c-26 53 -49 123 -117 175l27 -2c-58 -54 -93 -126 -119 -173c-18 -31 -38 -43 -64 -43c-21 0 -43 17 -43 45c0 18 14 39 29 54c57 56 93 106 120 154c16 30 39 46 68 46c22 0 45 -18 60 -44
c39 -71 58 -89 113 -154z" />
    <glyph glyph-name="ucircumflex" unicode="&#xfb;" horiz-adv-x="756" 
d="M621 169c0 -92 33 -104 33 -141c0 -25 -18 -48 -47 -48c-28 0 -43 13 -56 36c-11 17 -23 85 -12 150l17 -5c-62 -130 -123 -183 -218 -183c-119 0 -216 72 -216 275c0 146 -3 290 -2 427c1 44 29 66 56 66c28 0 57 -20 51 -60c-13 -113 -14 -323 -14 -442
c0 -111 43 -178 133 -178c107 0 177 123 187 238c5 157 3 233 1 376c-3 44 29 67 58 67c25 0 52 -21 47 -61c-15 -156 -18 -331 -18 -517zM575 955c18 -21 34 -33 34 -57c0 -26 -23 -44 -49 -44c-24 0 -46 17 -59 43c-26 53 -49 123 -117 175l27 -2
c-58 -54 -93 -126 -119 -173c-18 -31 -38 -43 -64 -43c-21 0 -43 17 -43 45c0 18 14 39 29 54c57 56 93 106 120 154c16 30 39 46 68 46c22 0 45 -18 60 -44c39 -71 58 -89 113 -154z" />
    <glyph glyph-name="oslash" unicode="&#xf8;" horiz-adv-x="713" 
d="M230 -68c-11 -33 -26 -42 -46 -42c-21 0 -36 21 -36 49c0 9 2 20 6 31c164 367 231 494 326 841c11 42 22 54 46 54c23 0 43 -16 43 -49c0 -10 -6 -26 -12 -41c-144 -324 -194 -476 -327 -843zM351 -22c-154 -3 -272 131 -272 413c0 250 126 387 297 387
c144 0 259 -132 259 -376c0 -278 -137 -422 -284 -424zM368 697c-127 0 -197 -137 -197 -330c0 -211 71 -304 180 -304c127 0 192 165 192 329c0 170 -66 305 -175 305z" />
    <glyph glyph-name="eth" unicode="&#xf0;" horiz-adv-x="767" 
d="M177 1494c-40 2 -91 3 -99 44c-5 27 14 48 58 56c170 30 539 -174 553 -761c16 -670 -130 -855 -319 -855c-190 0 -260 223 -260 417c0 265 131 402 271 402c119 0 221 -115 231 -384l-25 -16c18 110 14 321 10 429c-19 555 -297 655 -420 668zM553 387
c1 193 -87 314 -168 314c-121 0 -184 -127 -184 -309c0 -205 79 -325 176 -325c114 0 175 142 176 320zM600 1566c31 30 70 23 87 4c15 -18 15 -56 -17 -81c-63 -49 -107 -71 -173 -129c-69 -57 -166 -143 -250 -220c-33 -28 -72 -19 -89 -2c-16 20 -15 60 20 84
c56 41 162 110 246 179c65 55 106 99 176 165z" />
    <glyph glyph-name="igrave" unicode="&#xec;" horiz-adv-x="385" 
d="M244 66c3 -43 -29 -66 -56 -66c-26 0 -55 20 -52 62c7 79 11 194 11 310c0 111 -4 224 -7 314c-2 40 30 61 57 61c26 0 55 -19 54 -61c-7 -139 -14 -275 -14 -409c0 -71 4 -141 7 -211zM140 1106c38 -52 95 -114 140 -162c19 -22 30 -40 30 -54c0 -21 -22 -35 -35 -35
c-28 0 -48 21 -61 36c-78 87 -123 120 -167 176c-18 24 -29 59 2 79c32 19 66 -5 91 -40z" />
    <glyph glyph-name="iacute" unicode="&#xed;" horiz-adv-x="385" 
d="M244 66c3 -43 -29 -66 -56 -66c-26 0 -55 20 -52 62c7 79 11 194 11 310c0 111 -4 224 -7 314c-2 40 30 61 57 61c26 0 55 -19 54 -61c-7 -139 -14 -275 -14 -409c0 -71 4 -141 7 -211zM278 1106c25 35 59 59 90 40c32 -20 21 -55 3 -79c-44 -56 -89 -89 -167 -176
c-13 -15 -34 -36 -61 -36c-13 0 -35 14 -35 35c0 14 10 32 30 54c45 48 102 110 140 162z" />
    <glyph glyph-name="icircumflex" unicode="&#xee;" horiz-adv-x="385" 
d="M244 66c3 -43 -29 -66 -56 -66c-26 0 -55 20 -52 62c7 79 11 194 11 310c0 111 -4 224 -7 314c-2 40 30 61 57 61c26 0 55 -19 54 -61c-7 -139 -14 -275 -14 -409c0 -71 4 -141 7 -211zM371 955c18 -21 34 -33 34 -57c0 -26 -23 -44 -49 -44c-24 0 -46 17 -59 43
c-26 53 -49 123 -117 175l27 -2c-58 -54 -93 -126 -119 -173c-18 -31 -38 -43 -64 -43c-21 0 -43 17 -43 45c0 18 14 39 29 54c57 56 93 106 120 154c16 30 39 46 68 46c22 0 45 -18 60 -44c39 -71 58 -89 113 -154z" />
    <glyph glyph-name="idieresis" unicode="&#xef;" horiz-adv-x="385" 
d="M244 66c3 -43 -29 -66 -56 -66c-26 0 -55 20 -52 62c7 79 11 194 11 310c0 111 -4 224 -7 314c-2 40 30 61 57 61c26 0 55 -19 54 -61c-7 -139 -14 -275 -14 -409c0 -71 4 -141 7 -211zM147 988c-4 -60 -49 -80 -87 -80c-36 0 -76 28 -76 80c0 50 43 78 83 78
c37 0 84 -28 80 -78zM403 988c-4 -60 -51 -80 -88 -80c-36 0 -76 28 -76 80c0 50 43 78 84 78c37 0 83 -28 80 -78z" />
    <glyph glyph-name="ccedilla" unicode="&#xe7;" horiz-adv-x="688" 
d="M491 525c1 110 -39 166 -122 166c-110 0 -174 -156 -174 -314c0 -227 90 -316 180 -316c64 0 106 56 125 125c11 37 30 50 49 50c22 -1 43 -19 41 -50c-11 -123 -105 -207 -232 -207c-131 0 -253 129 -253 388c0 271 125 408 264 410c123 2 223 -85 223 -250
c0 -43 -17 -66 -49 -66c-31 0 -52 20 -52 64zM464 -320c0 48 -22 83 -57 83c-55 0 -66 -36 -116 -36c-31 0 -61 16 -61 51c0 44 35 103 89 253l69 5c0 -46 -58 -176 -72 -242l-12 6c19 14 79 40 118 38c55 -3 116 -40 114 -155c-2 -109 -113 -226 -208 -226
c-30 0 -49 22 -49 45c0 21 17 52 52 57c56 9 133 55 133 121z" />
    <glyph glyph-name="egrave" unicode="&#xe8;" horiz-adv-x="691" 
d="M150 345v87c37 -1 106 -7 167 -7c48 0 206 4 249 14l-48 -29c5 131 -19 287 -151 287c-147 0 -190 -211 -191 -329c-2 -206 71 -312 197 -312c68 0 104 37 127 86c16 36 32 56 62 56c22 0 40 -15 39 -42c-2 -92 -106 -180 -244 -180c-140 0 -271 132 -271 347
c0 303 135 452 276 452c217 0 246 -188 249 -350c1 -59 -13 -74 -75 -74c-114 0 -313 -5 -386 -6zM319 1106c38 -52 95 -114 140 -162c19 -22 30 -40 30 -54c0 -21 -22 -35 -35 -35c-28 0 -48 21 -61 36c-78 87 -123 120 -167 176c-18 24 -29 59 2 79c32 19 66 -5 91 -40z
" />
    <glyph glyph-name="eacute" unicode="&#xe9;" horiz-adv-x="691" 
d="M150 345v87c37 -1 106 -7 167 -7c48 0 206 4 249 14l-48 -29c5 131 -19 287 -151 287c-147 0 -190 -211 -191 -329c-2 -206 71 -312 197 -312c68 0 104 37 127 86c16 36 32 56 62 56c22 0 40 -15 39 -42c-2 -92 -106 -180 -244 -180c-140 0 -271 132 -271 347
c0 303 135 452 276 452c217 0 246 -188 249 -350c1 -59 -13 -74 -75 -74c-114 0 -313 -5 -386 -6zM455 1106c25 35 59 59 90 40c32 -20 21 -55 3 -79c-44 -56 -89 -89 -167 -176c-13 -15 -34 -36 -61 -36c-13 0 -35 14 -35 35c0 14 10 32 30 54c45 48 102 110 140 162z" />
    <glyph glyph-name="ecircumflex" unicode="&#xea;" horiz-adv-x="691" 
d="M150 345v87c37 -1 106 -7 167 -7c48 0 206 4 249 14l-48 -29c5 131 -19 287 -151 287c-147 0 -190 -211 -191 -329c-2 -206 71 -312 197 -312c68 0 104 37 127 86c16 36 32 56 62 56c22 0 40 -15 39 -42c-2 -92 -106 -180 -244 -180c-140 0 -271 132 -271 347
c0 303 135 452 276 452c217 0 246 -188 249 -350c1 -59 -13 -74 -75 -74c-114 0 -313 -5 -386 -6zM550 955c18 -21 34 -33 34 -57c0 -26 -23 -44 -49 -44c-24 0 -46 17 -59 43c-26 53 -49 123 -117 175l27 -2c-58 -54 -93 -126 -119 -173c-18 -31 -38 -43 -64 -43
c-21 0 -43 17 -43 45c0 18 14 39 29 54c57 56 93 106 120 154c16 30 39 46 68 46c22 0 45 -18 60 -44c39 -71 58 -89 113 -154z" />
    <glyph glyph-name="edieresis" unicode="&#xeb;" horiz-adv-x="691" 
d="M150 345v87c37 -1 106 -7 167 -7c48 0 206 4 249 14l-48 -29c5 131 -19 287 -151 287c-147 0 -190 -211 -191 -329c-2 -206 71 -312 197 -312c68 0 104 37 127 86c16 36 32 56 62 56c22 0 40 -15 39 -42c-2 -92 -106 -180 -244 -180c-140 0 -271 132 -271 347
c0 303 135 452 276 452c217 0 246 -188 249 -350c1 -59 -13 -74 -75 -74c-114 0 -313 -5 -386 -6zM325 988c-4 -60 -49 -80 -87 -80c-36 0 -76 28 -76 80c0 50 43 78 83 78c37 0 84 -28 80 -78zM581 988c-4 -60 -51 -80 -88 -80c-36 0 -76 28 -76 80c0 50 43 78 84 78
c37 0 83 -28 80 -78z" />
    <glyph glyph-name="ntilde" unicode="&#xf1;" horiz-adv-x="754" 
d="M235 74c2 -44 -9 -72 -55 -72c-26 0 -52 25 -49 66c7 85 11 213 11 339c0 102 -2 202 -7 284c-2 41 17 67 56 67c41 0 49 -28 45 -70c-4 -27 -2 -85 -5 -114l-10 5c55 124 154 182 227 182c100 0 186 -73 186 -276c0 -75 -2 -150 -2 -216c0 -65 2 -130 7 -200
c3 -45 -28 -67 -56 -67c-27 0 -54 21 -50 62c10 86 15 223 15 337c0 32 -4 69 -5 96c-4 110 -35 174 -110 174c-89 0 -180 -111 -203 -225c-1 -37 -1 -74 -1 -107c0 -91 0 -172 6 -265zM472 994c19 -1 40 13 50 37c14 33 24 48 49 48c23 0 37 -26 37 -55
c0 -62 -65 -130 -131 -130c-79 0 -95 76 -174 78c-26 1 -53 -13 -61 -34c-15 -41 -28 -53 -54 -53c-21 0 -33 26 -33 57c0 62 64 130 138 130c95 0 107 -74 179 -78z" />
    <glyph glyph-name="ograve" unicode="&#xf2;" horiz-adv-x="713" 
d="M351 -22c-154 -3 -272 131 -272 413c0 250 126 387 297 387c144 0 259 -132 259 -376c0 -278 -137 -422 -284 -424zM368 697c-127 0 -197 -137 -197 -330c0 -211 71 -304 180 -304c127 0 192 165 192 329c0 170 -66 305 -175 305zM304 1106c38 -52 95 -114 140 -162
c19 -22 30 -40 30 -54c0 -21 -22 -35 -35 -35c-28 0 -48 21 -61 36c-78 87 -123 120 -167 176c-18 24 -29 59 2 79c32 19 66 -5 91 -40z" />
    <glyph glyph-name="oacute" unicode="&#xf3;" horiz-adv-x="713" 
d="M351 -22c-154 -3 -272 131 -272 413c0 250 126 387 297 387c144 0 259 -132 259 -376c0 -278 -137 -422 -284 -424zM368 697c-127 0 -197 -137 -197 -330c0 -211 71 -304 180 -304c127 0 192 165 192 329c0 170 -66 305 -175 305zM441 1106c25 35 59 59 90 40
c32 -20 21 -55 3 -79c-44 -56 -89 -89 -167 -176c-13 -15 -34 -36 -61 -36c-13 0 -35 14 -35 35c0 14 10 32 30 54c45 48 102 110 140 162z" />
    <glyph glyph-name="ocircumflex" unicode="&#xf4;" horiz-adv-x="713" 
d="M351 -22c-154 -3 -272 131 -272 413c0 250 126 387 297 387c144 0 259 -132 259 -376c0 -278 -137 -422 -284 -424zM368 697c-127 0 -197 -137 -197 -330c0 -211 71 -304 180 -304c127 0 192 165 192 329c0 170 -66 305 -175 305zM535 955c18 -21 34 -33 34 -57
c0 -26 -23 -44 -49 -44c-24 0 -46 17 -59 43c-26 53 -49 123 -117 175l27 -2c-58 -54 -93 -126 -119 -173c-18 -31 -38 -43 -64 -43c-21 0 -43 17 -43 45c0 18 14 39 29 54c57 56 93 106 120 154c16 30 39 46 68 46c22 0 45 -18 60 -44c39 -71 58 -89 113 -154z" />
    <glyph glyph-name="otilde" unicode="&#xf5;" horiz-adv-x="713" 
d="M351 -22c-154 -3 -272 131 -272 413c0 250 126 387 297 387c144 0 259 -132 259 -376c0 -278 -137 -422 -284 -424zM368 697c-127 0 -197 -137 -197 -330c0 -211 71 -304 180 -304c127 0 192 165 192 329c0 170 -66 305 -175 305zM448 994c19 -1 40 13 50 37
c14 33 24 48 49 48c23 0 37 -26 37 -55c0 -62 -65 -130 -131 -130c-79 0 -95 76 -174 78c-26 1 -53 -13 -61 -34c-15 -41 -28 -53 -54 -53c-21 0 -33 26 -33 57c0 62 64 130 138 130c95 0 107 -74 179 -78z" />
    <glyph glyph-name="odieresis" unicode="&#xf6;" horiz-adv-x="713" 
d="M351 -22c-154 -3 -272 131 -272 413c0 250 126 387 297 387c144 0 259 -132 259 -376c0 -278 -137 -422 -284 -424zM368 697c-127 0 -197 -137 -197 -330c0 -211 71 -304 180 -304c127 0 192 165 192 329c0 170 -66 305 -175 305zM309 988c-4 -60 -49 -80 -87 -80
c-36 0 -76 28 -76 80c0 50 43 78 83 78c37 0 84 -28 80 -78zM565 988c-4 -60 -51 -80 -88 -80c-36 0 -76 28 -76 80c0 50 43 78 84 78c37 0 83 -28 80 -78z" />
    <glyph glyph-name="yacute" unicode="&#xfd;" horiz-adv-x="681" 
d="M338 -20l-10 -69c-69 225 -153 540 -240 736c-9 19 -12 35 -12 51c0 37 22 59 47 59c35 0 51 -17 63 -57c67 -223 152 -558 185 -682l-22 -2c60 219 138 531 167 678c7 39 27 62 61 62c26 0 50 -16 50 -56c0 -10 -2 -24 -7 -36c-93 -263 -216 -791 -331 -1145
c-15 -42 -29 -60 -66 -60c-25 0 -52 20 -52 50c0 16 4 32 16 53c38 64 94 221 151 418zM434 1106c25 35 59 59 90 40c32 -20 21 -55 3 -79c-44 -56 -89 -89 -167 -176c-13 -15 -34 -36 -61 -36c-13 0 -35 14 -35 35c0 14 10 32 30 54c45 48 102 110 140 162z" />
    <glyph glyph-name="ydieresis" unicode="&#xff;" horiz-adv-x="681" 
d="M338 -20l-10 -69c-69 225 -153 540 -240 736c-9 19 -12 35 -12 51c0 37 22 59 47 59c35 0 51 -17 63 -57c67 -223 152 -558 185 -682l-22 -2c60 219 138 531 167 678c7 39 27 62 61 62c26 0 50 -16 50 -56c0 -10 -2 -24 -7 -36c-93 -263 -216 -791 -331 -1145
c-15 -42 -29 -60 -66 -60c-25 0 -52 20 -52 50c0 16 4 32 16 53c38 64 94 221 151 418zM303 988c-4 -60 -49 -80 -87 -80c-36 0 -76 28 -76 80c0 50 43 78 83 78c37 0 84 -28 80 -78zM559 988c-4 -60 -51 -80 -88 -80c-36 0 -76 28 -76 80c0 50 43 78 84 78
c37 0 83 -28 80 -78z" />
    <glyph glyph-name="uni00AD" unicode="&#xad;" horiz-adv-x="1325" 
 />
    <glyph glyph-name="A" unicode="A" horiz-adv-x="933" 
d="M773 37c-75 336 -263 1171 -330 1511h27c-93 -450 -243 -1132 -310 -1503c-7 -35 -31 -51 -53 -51c-32 0 -67 29 -53 74c67 206 248 1099 329 1475c11 51 44 78 77 78c32 0 62 -27 72 -80c60 -346 233 -1120 336 -1469c14 -49 -13 -81 -45 -81c-19 0 -43 14 -50 46z
M719 609v-100c-44 5 -143 7 -244 7s-206 -2 -262 -7v100c51 -6 151 -8 249 -8c114 0 220 2 257 8z" />
    <glyph glyph-name="D" unicode="D" horiz-adv-x="978" 
d="M894 966c0 -563 -312 -969 -682 -969c-39 0 -46 27 -46 66c0 120 -1 1137 -24 1470c-3 45 18 71 60 76c64 9 112 14 158 14c365 0 534 -245 534 -657zM226 1502l36 52c-5 -50 -11 -246 -11 -440c0 -442 12 -1003 17 -1071l-34 49c253 -19 559 328 559 864
c0 439 -213 576 -412 576c-24 0 -109 -2 -155 -30z" />
    <glyph glyph-name="N" unicode="N" horiz-adv-x="1072" 
d="M786 51c-185 541 -386 932 -582 1530h41c2 -672 14 -1332 14 -1521c0 -41 -26 -61 -52 -61c-28 0 -56 22 -55 66c8 218 10 510 10 892c0 231 0 446 -2 595c0 49 36 76 74 76c28 0 57 -15 69 -50c102 -299 528 -1385 574 -1510h-28c-18 320 -21 935 -41 1499
c0 42 28 63 55 63c29 0 55 -21 55 -63c-2 -220 -6 -463 -6 -811c0 -267 2 -520 8 -683c2 -43 -35 -70 -70 -70c-27 0 -53 16 -64 48z" />
    <glyph glyph-name="nbspace" unicode="&#xa0;" horiz-adv-x="384" 
 />
    <glyph glyph-name="Ccedilla" unicode="&#xc7;" horiz-adv-x="915" 
d="M715 413c0 44 26 70 53 70c31 0 56 -21 54 -63c-14 -276 -161 -443 -347 -443c-211 0 -379 182 -379 775c0 489 133 867 411 867c201 0 310 -144 310 -551c0 -44 -23 -66 -52 -66c-25 0 -45 19 -45 58c0 340 -64 466 -217 466c-220 0 -311 -401 -311 -791
c0 -560 142 -661 293 -661c117 0 232 97 230 339zM538 -320c0 48 -22 83 -57 83c-55 0 -66 -36 -116 -36c-31 0 -61 16 -61 51c0 44 35 103 89 253l69 5c0 -46 -58 -176 -72 -242l-12 6c19 14 79 40 118 38c55 -3 116 -40 114 -155c-2 -109 -113 -226 -208 -226
c-30 0 -49 22 -49 45c0 21 17 52 52 57c56 9 133 55 133 121z" />
    <glyph glyph-name="Agrave" unicode="&#xc0;" horiz-adv-x="933" 
d="M773 37c-75 336 -263 1171 -330 1511h27c-93 -450 -243 -1132 -310 -1503c-7 -35 -31 -51 -53 -51c-32 0 -67 29 -53 74c67 206 248 1099 329 1475c11 51 44 78 77 78c32 0 62 -27 72 -80c60 -346 233 -1120 336 -1469c14 -49 -13 -81 -45 -81c-19 0 -43 14 -50 46z
M719 609v-100c-44 5 -143 7 -244 7s-206 -2 -262 -7v100c51 -6 151 -8 249 -8c114 0 220 2 257 8zM349 1881c147 -98 206 -93 215 -143c6 -26 -12 -41 -32 -45c-24 -4 -52 10 -70 19c-103 51 -248 95 -253 137c-4 30 11 61 42 66c30 6 55 -4 98 -34z" />
    <glyph glyph-name="Aacute" unicode="&#xc1;" horiz-adv-x="933" 
d="M773 37c-75 336 -263 1171 -330 1511h27c-93 -450 -243 -1132 -310 -1503c-7 -35 -31 -51 -53 -51c-32 0 -67 29 -53 74c67 206 248 1099 329 1475c11 51 44 78 77 78c32 0 62 -27 72 -80c60 -346 233 -1120 336 -1469c14 -49 -13 -81 -45 -81c-19 0 -43 14 -50 46z
M719 609v-100c-44 5 -143 7 -244 7s-206 -2 -262 -7v100c51 -6 151 -8 249 -8c114 0 220 2 257 8zM573 1881c33 26 62 38 88 34c29 -6 49 -37 38 -65c-22 -55 -119 -76 -236 -148c-16 -10 -34 -21 -63 -16c-20 3 -33 15 -29 41c9 46 101 67 202 154z" />
    <glyph glyph-name="Acircumflex" unicode="&#xc2;" horiz-adv-x="933" 
d="M773 37c-75 336 -263 1171 -330 1511h27c-93 -450 -243 -1132 -310 -1503c-7 -35 -31 -51 -53 -51c-32 0 -67 29 -53 74c67 206 248 1099 329 1475c11 51 44 78 77 78c32 0 62 -27 72 -80c60 -346 233 -1120 336 -1469c14 -49 -13 -81 -45 -81c-19 0 -43 14 -50 46z
M719 609v-100c-44 5 -143 7 -244 7s-206 -2 -262 -7v100c51 -6 151 -8 249 -8c114 0 220 2 257 8zM678 1764c18 -9 30 -29 30 -53c0 -25 -23 -44 -49 -44c-23 0 -39 9 -62 32c-22 24 -97 99 -164 152l64 -3c-58 -54 -143 -116 -176 -149c-25 -24 -38 -32 -63 -32
c-22 0 -43 18 -43 45c0 19 12 41 31 52c52 30 119 67 151 107c21 26 39 46 67 46c23 0 42 -22 61 -44c39 -50 99 -84 153 -109z" />
    <glyph glyph-name="Atilde" unicode="&#xc3;" horiz-adv-x="933" 
d="M773 37c-75 336 -263 1171 -330 1511h27c-93 -450 -243 -1132 -310 -1503c-7 -35 -31 -51 -53 -51c-32 0 -67 29 -53 74c67 206 248 1099 329 1475c11 51 44 78 77 78c32 0 62 -27 72 -80c60 -346 233 -1120 336 -1469c14 -49 -13 -81 -45 -81c-19 0 -43 14 -50 46z
M719 509v100c-37 -6 -143 -8 -257 -8c-98 0 -198 2 -249 8v-100c56 5 161 7 262 7s200 -2 244 -7zM577 1819c20 -2 42 15 54 37c13 41 36 62 56 62c23 0 45 -19 45 -49c0 -75 -75 -136 -148 -136c-95 0 -115 90 -205 92c-27 2 -55 -14 -63 -35c-14 -46 -36 -66 -58 -66
c-23 0 -45 18 -45 50c0 77 84 137 155 137c111 0 124 -90 209 -92z" />
    <glyph glyph-name="Adieresis" unicode="&#xc4;" horiz-adv-x="933" 
d="M773 37c-75 336 -263 1171 -330 1511h27c-93 -450 -243 -1132 -310 -1503c-7 -35 -31 -51 -53 -51c-32 0 -67 29 -53 74c67 206 248 1099 329 1475c11 51 44 78 77 78c32 0 62 -27 72 -80c60 -346 233 -1120 336 -1469c14 -49 -13 -81 -45 -81c-19 0 -43 14 -50 46z
M719 609v-100c-44 5 -143 7 -244 7s-206 -2 -262 -7v100c51 -6 151 -8 249 -8c114 0 220 2 257 8zM402 1837c-4 -63 -52 -83 -92 -83c-38 0 -79 27 -79 83c0 52 45 81 86 81c40 0 89 -29 85 -81zM692 1837c-4 -63 -53 -83 -93 -83c-37 0 -79 27 -79 83c0 52 45 81 87 81
c39 0 89 -29 85 -81z" />
    <glyph glyph-name="Aring" unicode="&#xc5;" horiz-adv-x="933" 
d="M773 37c-75 336 -263 1171 -330 1511h27c-93 -450 -243 -1132 -310 -1503c-7 -35 -31 -51 -53 -51c-32 0 -67 29 -53 74c67 206 248 1099 329 1475c11 51 44 78 77 78c32 0 62 -27 72 -80c60 -346 233 -1120 336 -1469c14 -49 -13 -81 -45 -81c-19 0 -43 14 -50 46z
M719 609v-100c-44 5 -143 7 -244 7s-206 -2 -262 -7v100c51 -6 151 -8 249 -8c114 0 220 2 257 8zM464 1918c103 3 176 -75 176 -193c0 -85 -78 -175 -188 -175c-95 0 -169 62 -169 169c0 123 85 197 181 199zM452 1626c65 0 105 48 105 117c0 60 -44 94 -99 94
c-62 0 -96 -58 -96 -107c0 -71 38 -104 90 -104z" />
    <glyph glyph-name="Egrave" unicode="&#xc8;" horiz-adv-x="760" 
d="M158 1563c-6 71 48 65 67 62c25 -5 71 -7 130 -7c61 0 130 2 188 9c48 5 75 -26 75 -56c0 -28 -23 -52 -75 -49c-62 4 -195 15 -297 4l18 35c0 -276 -5 -540 -6 -858l-17 29c40 0 175 3 228 9c49 5 70 -15 70 -44c0 -24 -15 -46 -64 -51c-25 -3 -55 -1 -77 -1
c-36 0 -126 2 -164 1l24 33c-1 -255 3 -554 3 -616l-27 23c110 0 347 7 430 15c47 6 76 -26 76 -56c0 -26 -25 -52 -76 -48c-40 2 -99 3 -160 3c-108 0 -230 -3 -284 -11c-33 -4 -70 12 -68 61c11 205 15 546 15 876c0 305 4 469 -9 637zM300 1881c147 -98 206 -93 215 -143
c6 -26 -12 -41 -32 -45c-24 -4 -52 10 -70 19c-103 51 -248 95 -253 137c-4 30 11 61 42 66c30 6 55 -4 98 -34z" />
    <glyph glyph-name="Eacute" unicode="&#xc9;" horiz-adv-x="760" 
d="M158 1563c-6 71 48 65 67 62c25 -5 71 -7 130 -7c61 0 130 2 188 9c48 5 75 -26 75 -56c0 -28 -23 -52 -75 -49c-62 4 -195 15 -297 4l18 35c0 -276 -5 -540 -6 -858l-17 29c40 0 175 3 228 9c49 5 70 -15 70 -44c0 -24 -15 -46 -64 -51c-25 -3 -55 -1 -77 -1
c-36 0 -126 2 -164 1l24 33c-1 -255 3 -554 3 -616l-27 23c110 0 347 7 430 15c47 6 76 -26 76 -56c0 -26 -25 -52 -76 -48c-40 2 -99 3 -160 3c-108 0 -230 -3 -284 -11c-33 -4 -70 12 -68 61c11 205 15 546 15 876c0 305 4 469 -9 637zM524 1881c33 26 62 38 88 34
c29 -6 49 -37 38 -65c-22 -55 -119 -76 -236 -148c-16 -10 -34 -21 -63 -16c-20 3 -33 15 -29 41c9 46 101 67 202 154z" />
    <glyph glyph-name="Ecircumflex" unicode="&#xca;" horiz-adv-x="760" 
d="M158 1563c-6 71 48 65 67 62c25 -5 71 -7 130 -7c61 0 130 2 188 9c48 5 75 -26 75 -56c0 -28 -23 -52 -75 -49c-62 4 -195 15 -297 4l18 35c0 -276 -5 -540 -6 -858l-17 29c40 0 175 3 228 9c49 5 70 -15 70 -44c0 -24 -15 -46 -64 -51c-25 -3 -55 -1 -77 -1
c-36 0 -126 2 -164 1l24 33c-1 -255 3 -554 3 -616l-27 23c110 0 347 7 430 15c47 6 76 -26 76 -56c0 -26 -25 -52 -76 -48c-40 2 -99 3 -160 3c-108 0 -230 -3 -284 -11c-33 -4 -70 12 -68 61c11 205 15 546 15 876c0 305 4 469 -9 637zM629 1764c18 -9 30 -29 30 -53
c0 -25 -23 -44 -49 -44c-23 0 -39 9 -62 32c-22 24 -97 99 -164 152l64 -3c-58 -54 -143 -116 -176 -149c-25 -24 -38 -32 -63 -32c-22 0 -43 18 -43 45c0 19 12 41 31 52c52 30 119 67 151 107c21 26 39 46 67 46c23 0 42 -22 61 -44c39 -50 99 -84 153 -109z" />
    <glyph glyph-name="Edieresis" unicode="&#xcb;" horiz-adv-x="760" 
d="M158 1563c-6 71 48 65 67 62c25 -5 71 -7 130 -7c61 0 130 2 188 9c48 5 75 -26 75 -56c0 -28 -23 -52 -75 -49c-62 4 -195 15 -297 4l18 35c0 -276 -5 -540 -6 -858l-17 29c40 0 175 3 228 9c49 5 70 -15 70 -44c0 -24 -15 -46 -64 -51c-25 -3 -55 -1 -77 -1
c-36 0 -126 2 -164 1l24 33c-1 -255 3 -554 3 -616l-27 23c110 0 347 7 430 15c47 6 76 -26 76 -56c0 -26 -25 -52 -76 -48c-40 2 -99 3 -160 3c-108 0 -230 -3 -284 -11c-33 -4 -70 12 -68 61c11 205 15 546 15 876c0 305 4 469 -9 637zM353 1837c-4 -63 -52 -83 -92 -83
c-38 0 -79 27 -79 83c0 52 45 81 86 81c40 0 89 -29 85 -81zM643 1837c-4 -63 -53 -83 -93 -83c-37 0 -79 27 -79 83c0 52 45 81 87 81c39 0 89 -29 85 -81z" />
    <glyph glyph-name="Igrave" unicode="&#xcc;" horiz-adv-x="492" 
d="M303 66c1 -43 -31 -66 -60 -66c-28 0 -54 20 -53 62c7 193 13 498 13 802c0 324 -1 519 -14 701c-4 42 18 63 49 63s63 -21 62 -63c-5 -113 -9 -173 -9 -388c0 -372 5 -829 12 -1111zM134 1881c147 -98 206 -93 215 -143c6 -26 -12 -41 -32 -45c-24 -4 -52 10 -70 19
c-103 51 -248 95 -253 137c-4 30 11 61 42 66c30 6 55 -4 98 -34z" />
    <glyph glyph-name="Iacute" unicode="&#xcd;" horiz-adv-x="492" 
d="M303 66c1 -43 -31 -66 -60 -66c-28 0 -54 20 -53 62c7 193 13 498 13 802c0 324 -1 519 -14 701c-4 42 18 63 49 63s63 -21 62 -63c-5 -113 -9 -173 -9 -388c0 -372 5 -829 12 -1111zM358 1881c33 26 62 38 88 34c29 -6 49 -37 38 -65c-22 -55 -119 -76 -236 -148
c-16 -10 -34 -21 -63 -16c-20 3 -33 15 -29 41c9 46 101 67 202 154z" />
    <glyph glyph-name="Icircumflex" unicode="&#xce;" horiz-adv-x="492" 
d="M303 66c1 -43 -31 -66 -60 -66c-28 0 -54 20 -53 62c7 193 13 498 13 802c0 324 -1 519 -14 701c-4 42 18 63 49 63s63 -21 62 -63c-5 -113 -9 -173 -9 -388c0 -372 5 -829 12 -1111zM463 1764c18 -9 30 -29 30 -53c0 -25 -23 -44 -49 -44c-23 0 -39 9 -62 32
c-22 24 -97 99 -164 152l64 -3c-58 -54 -143 -116 -176 -149c-25 -24 -38 -32 -63 -32c-22 0 -43 18 -43 45c0 19 12 41 31 52c52 30 119 67 151 107c21 26 39 46 67 46c23 0 42 -22 61 -44c39 -50 99 -84 153 -109z" />
    <glyph glyph-name="Idieresis" unicode="&#xcf;" horiz-adv-x="492" 
d="M303 66c1 -43 -31 -66 -60 -66c-28 0 -54 20 -53 62c7 193 13 498 13 802c0 324 -1 519 -14 701c-4 42 18 63 49 63s63 -21 62 -63c-5 -113 -9 -173 -9 -388c0 -372 5 -829 12 -1111zM187 1837c-4 -63 -52 -83 -92 -83c-38 0 -79 27 -79 83c0 52 45 81 86 81
c40 0 89 -29 85 -81zM477 1837c-4 -63 -53 -83 -93 -83c-37 0 -79 27 -79 83c0 52 45 81 87 81c39 0 89 -29 85 -81z" />
    <glyph glyph-name="Ntilde" unicode="&#xd1;" horiz-adv-x="1072" 
d="M786 51c-185 541 -386 932 -582 1530h41c2 -672 14 -1332 14 -1521c0 -41 -26 -61 -52 -61c-28 0 -56 22 -55 66c8 218 10 510 10 892c0 231 0 446 -2 595c0 49 36 76 74 76c28 0 57 -15 69 -50c102 -299 528 -1385 574 -1510h-28c-18 320 -21 935 -41 1499
c0 42 28 63 55 63c29 0 55 -21 55 -63c-2 -220 -6 -463 -6 -811c0 -267 2 -520 8 -683c2 -43 -35 -70 -70 -70c-27 0 -53 16 -64 48zM652 1819c20 -2 42 15 54 37c13 41 36 62 56 62c23 0 45 -19 45 -49c0 -75 -75 -136 -148 -136c-95 0 -115 90 -205 92
c-27 2 -55 -14 -63 -35c-14 -46 -36 -66 -58 -66c-23 0 -45 18 -45 50c0 77 84 137 155 137c111 0 124 -90 209 -92z" />
    <glyph glyph-name="Ograve" unicode="&#xd2;" 
d="M522 1543c-217 0 -337 -378 -337 -735c0 -590 159 -735 320 -735c170 0 336 167 336 746c0 347 -79 724 -319 724zM495 -23c-279 0 -406 292 -406 854c0 423 160 800 431 800c286 0 414 -299 416 -800c2 -547 -164 -854 -441 -854zM402 1881c147 -98 206 -93 215 -143
c6 -26 -12 -41 -32 -45c-24 -4 -52 10 -70 19c-103 51 -248 95 -253 137c-4 30 11 61 42 66c30 6 55 -4 98 -34z" />
    <glyph glyph-name="Oacute" unicode="&#xd3;" 
d="M522 1543c-217 0 -337 -378 -337 -735c0 -590 159 -735 320 -735c170 0 336 167 336 746c0 347 -79 724 -319 724zM495 -23c-279 0 -406 292 -406 854c0 423 160 800 431 800c286 0 414 -299 416 -800c2 -547 -164 -854 -441 -854zM626 1881c33 26 62 38 88 34
c29 -6 49 -37 38 -65c-22 -55 -119 -76 -236 -148c-16 -10 -34 -21 -63 -16c-20 3 -33 15 -29 41c9 46 101 67 202 154z" />
    <glyph glyph-name="Ocircumflex" unicode="&#xd4;" 
d="M522 1543c-217 0 -337 -378 -337 -735c0 -590 159 -735 320 -735c170 0 336 167 336 746c0 347 -79 724 -319 724zM495 -23c-279 0 -406 292 -406 854c0 423 160 800 431 800c286 0 414 -299 416 -800c2 -547 -164 -854 -441 -854zM731 1764c18 -9 30 -29 30 -53
c0 -25 -23 -44 -49 -44c-23 0 -39 9 -62 32c-22 24 -97 99 -164 152l64 -3c-58 -54 -143 -116 -176 -149c-25 -24 -38 -32 -63 -32c-22 0 -43 18 -43 45c0 19 12 41 31 52c52 30 119 67 151 107c21 26 39 46 67 46c23 0 42 -22 61 -44c39 -50 99 -84 153 -109z" />
    <glyph glyph-name="Otilde" unicode="&#xd5;" 
d="M522 1543c-217 0 -337 -378 -337 -735c0 -590 159 -735 320 -735c170 0 336 167 336 746c0 347 -79 724 -319 724zM495 -23c-279 0 -406 292 -406 854c0 423 160 800 431 800c286 0 414 -299 416 -800c2 -547 -164 -854 -441 -854zM630 1819c20 -2 42 15 54 37
c13 41 36 62 56 62c23 0 45 -19 45 -49c0 -75 -75 -136 -148 -136c-95 0 -115 90 -205 92c-27 2 -55 -14 -63 -35c-14 -46 -36 -66 -58 -66c-23 0 -45 18 -45 50c0 77 84 137 155 137c111 0 124 -90 209 -92z" />
    <glyph glyph-name="Odieresis" unicode="&#xd6;" 
d="M522 1543c-217 0 -337 -378 -337 -735c0 -590 159 -735 320 -735c170 0 336 167 336 746c0 347 -79 724 -319 724zM495 -23c-279 0 -406 292 -406 854c0 423 160 800 431 800c286 0 414 -299 416 -800c2 -547 -164 -854 -441 -854zM455 1837c-4 -63 -52 -83 -92 -83
c-38 0 -79 27 -79 83c0 52 45 81 86 81c40 0 89 -29 85 -81zM745 1837c-4 -63 -53 -83 -93 -83c-37 0 -79 27 -79 83c0 52 45 81 87 81c39 0 89 -29 85 -81z" />
    <glyph glyph-name="Ucircumflex" unicode="&#xdb;" horiz-adv-x="1044" 
d="M173 471v47c0 162 2 256 2 423c0 238 -4 408 -23 610c-4 42 27 63 60 63c32 0 65 -21 62 -63c-6 -194 -13 -426 -13 -730c0 -176 1 -273 11 -436c13 -209 114 -309 249 -309c138 0 246 109 261 308c8 130 11 165 11 323c0 200 -3 404 -19 850c-1 42 28 62 58 62
s61 -20 60 -62c-10 -398 2 -771 -24 -1152c-15 -213 -118 -428 -346 -428c-243 0 -348 195 -349 494zM738 1764c18 -9 30 -29 30 -53c0 -25 -23 -44 -49 -44c-23 0 -39 9 -62 32c-22 24 -97 99 -164 152l64 -3c-58 -54 -143 -116 -176 -149c-25 -24 -38 -32 -63 -32
c-22 0 -43 18 -43 45c0 19 12 41 31 52c52 30 119 67 151 107c21 26 39 46 67 46c23 0 42 -22 61 -44c39 -50 99 -84 153 -109z" />
    <glyph glyph-name="Udieresis" unicode="&#xdc;" horiz-adv-x="1044" 
d="M173 471v47c0 162 2 256 2 423c0 238 -4 408 -23 610c-4 42 27 63 60 63c32 0 65 -21 62 -63c-6 -194 -13 -426 -13 -730c0 -176 1 -273 11 -436c13 -209 114 -309 249 -309c138 0 246 109 261 308c8 130 11 165 11 323c0 200 -3 404 -19 850c-1 42 28 62 58 62
s61 -20 60 -62c-10 -398 2 -771 -24 -1152c-15 -213 -118 -428 -346 -428c-243 0 -348 195 -349 494zM462 1837c-4 -63 -52 -83 -92 -83c-38 0 -79 27 -79 83c0 52 45 81 86 81c40 0 89 -29 85 -81zM752 1837c-4 -63 -53 -83 -93 -83c-37 0 -79 27 -79 83c0 52 45 81 87 81
c39 0 89 -29 85 -81z" />
    <glyph glyph-name="Ugrave" unicode="&#xd9;" horiz-adv-x="1044" 
d="M173 471v47c0 162 2 256 2 423c0 238 -4 408 -23 610c-4 42 27 63 60 63c32 0 65 -21 62 -63c-6 -194 -13 -426 -13 -730c0 -176 1 -273 11 -436c13 -209 114 -309 249 -309c138 0 246 109 261 308c8 130 11 165 11 323c0 200 -3 404 -19 850c-1 42 28 62 58 62
s61 -20 60 -62c-10 -398 2 -771 -24 -1152c-15 -213 -118 -428 -346 -428c-243 0 -348 195 -349 494zM409 1881c147 -98 206 -93 215 -143c6 -26 -12 -41 -32 -45c-24 -4 -52 10 -70 19c-103 51 -248 95 -253 137c-4 30 11 61 42 66c30 6 55 -4 98 -34z" />
    <glyph glyph-name="Uacute" unicode="&#xda;" horiz-adv-x="1044" 
d="M173 471v47c0 162 2 256 2 423c0 238 -4 408 -23 610c-4 42 27 63 60 63c32 0 65 -21 62 -63c-6 -194 -13 -426 -13 -730c0 -176 1 -273 11 -436c13 -209 114 -309 249 -309c138 0 246 109 261 308c8 130 11 165 11 323c0 200 -3 404 -19 850c-1 42 28 62 58 62
s61 -20 60 -62c-10 -398 2 -771 -24 -1152c-15 -213 -118 -428 -346 -428c-243 0 -348 195 -349 494zM633 1881c33 26 62 38 88 34c29 -6 49 -37 38 -65c-22 -55 -119 -76 -236 -148c-16 -10 -34 -21 -63 -16c-20 3 -33 15 -29 41c9 46 101 67 202 154z" />
    <glyph glyph-name="Yacute" unicode="&#xdd;" horiz-adv-x="966" 
d="M444 619l23 -113c-105 280 -282 668 -416 1042c-5 12 -7 23 -7 33c0 33 23 55 52 56c33 1 47 -19 63 -73c103 -361 282 -759 364 -944h-42c92 247 258 679 331 937c14 47 27 86 62 86c30 0 48 -16 48 -47c0 -9 -2 -20 -5 -31c-35 -117 -90 -242 -166 -458
c-50 -142 -190 -503 -230 -605l29 128c-3 -88 -7 -214 -7 -276c0 -102 6 -156 7 -291c0 -44 -38 -65 -64 -65c-27 0 -55 22 -52 65c10 103 22 184 22 299c0 65 -6 192 -12 257zM621 1881c33 26 62 38 88 34c29 -6 49 -37 38 -65c-22 -55 -119 -76 -236 -148
c-16 -10 -34 -21 -63 -16c-20 3 -33 15 -29 41c9 46 101 67 202 154z" />
    <glyph glyph-name="ellipsis" unicode="&#x2026;" horiz-adv-x="1383" 
d="M318 54c0 -65 -55 -85 -96 -85c-39 0 -83 28 -83 85c0 56 47 85 90 85c41 0 89 -26 89 -85zM779 54c0 -65 -55 -85 -96 -85c-39 0 -83 28 -83 85c0 56 47 85 90 85c41 0 89 -26 89 -85zM1240 54c0 -65 -55 -85 -96 -85c-39 0 -83 28 -83 85c0 56 47 85 90 85
c41 0 89 -26 89 -85z" />
    <glyph glyph-name="perthousand" unicode="&#x2030;" horiz-adv-x="1592" 
d="M312 1708c128 2 202 -129 202 -356c0 -172 -79 -344 -214 -344c-119 0 -194 121 -194 332c0 235 87 366 206 368zM305 1091c79 0 128 107 128 276c0 156 -54 246 -123 246c-76 0 -117 -130 -117 -261c0 -185 45 -261 112 -261zM264 28c-12 -34 -36 -48 -57 -48
c-33 0 -60 31 -41 77c153 367 507 1301 594 1646c7 32 35 49 57 49c37 0 74 -42 49 -88c-72 -137 -459 -1215 -602 -1636zM744 718c127 2 201 -128 201 -356c0 -171 -79 -344 -214 -344c-119 0 -194 121 -194 333c0 235 87 365 207 367zM736 102c79 0 128 107 128 275
c0 157 -54 246 -122 246c-77 0 -118 -129 -118 -261c0 -185 45 -260 112 -260zM1264 718c127 2 201 -128 201 -356c0 -171 -79 -344 -214 -344c-119 0 -194 121 -194 333c0 235 87 365 207 367zM1256 102c79 0 128 107 128 275c0 157 -54 246 -122 246
c-77 0 -118 -129 -118 -261c0 -185 45 -260 112 -260z" />
    <glyph glyph-name="trademark" unicode="&#x2122;" horiz-adv-x="2126" 
d="M836 1625c44 1 67 -31 67 -54s-20 -44 -61 -43c-137 4 -196 9 -288 7l27 32c-6 -72 -9 -214 -9 -336c0 -328 4 -558 9 -801c1 -45 -25 -67 -52 -67c-25 0 -56 21 -56 62c0 42 -1 86 -1 131c0 208 10 387 10 595c0 154 -2 323 -9 418l20 -34c-86 2 -156 -5 -275 -13
c-43 -2 -64 22 -64 48c0 25 22 58 64 56c155 -7 145 -9 258 -9c112 0 139 2 360 8zM1856 426c8 153 15 356 15 614c0 199 1 404 -4 537l36 1c-11 -31 -187 -408 -339 -627c-8 -27 -36 -40 -57 -40c-20 0 -35 14 -42 40c-25 31 -323 527 -353 616l34 -1
c-3 -116 1 -268 1 -382c0 -365 17 -623 20 -766c2 -39 -34 -59 -58 -59c-27 0 -56 23 -54 67c8 142 12 347 12 569c0 226 -13 407 -12 550c0 60 33 82 70 82s63 -29 73 -64c14 -26 330 -526 330 -526h-23c39 28 157 288 314 524c12 45 39 69 83 69c34 0 57 -38 55 -90
c-7 -72 -3 -177 -3 -287c0 -353 9 -605 16 -831c1 -42 -27 -62 -56 -62s-58 23 -58 66z" />
    <glyph glyph-name="dagger" unicode="&#x2020;" horiz-adv-x="529" 
d="M214 226c7 228 10 169 10 533c0 352 -2 727 -15 1042c-3 51 24 74 54 74c31 0 59 -26 57 -74c-11 -316 -15 -517 -15 -932c0 -442 5 -498 12 -643c2 -44 -26 -65 -51 -65c-26 0 -53 21 -52 65zM391 1251c43 4 65 -25 65 -52s-21 -54 -63 -52c-40 2 -88 7 -142 7
c-36 0 -75 -3 -115 -7c-43 -6 -64 23 -64 52c0 28 21 58 64 53c33 -5 76 -8 127 -8c39 0 82 2 128 7z" />
    <glyph glyph-name="daggerdbl" unicode="&#x2021;" horiz-adv-x="364" 
d="M214 226c7 228 10 169 10 533c0 352 -2 727 -15 1042c-3 51 24 74 54 74c31 0 59 -26 57 -74c-11 -316 -15 -517 -15 -932c0 -442 5 -498 12 -643c2 -44 -26 -65 -51 -65c-26 0 -53 21 -52 65zM391 1251c43 4 65 -25 65 -52s-21 -54 -63 -52c-40 2 -88 7 -142 7
c-36 0 -75 -3 -115 -7c-43 -6 -64 23 -64 52c0 28 21 58 64 53c33 -5 76 -8 127 -8c39 0 82 2 128 7zM391 811c43 4 65 -25 65 -52s-21 -54 -63 -52c-40 2 -88 7 -142 7c-36 0 -75 -3 -115 -7c-43 -6 -64 23 -64 52c0 28 21 58 64 53c33 -5 76 -8 127 -8c39 0 82 2 128 7z
" />
  </font>
</defs>
</svg>
